<svg width="100" height="100" viewBox="0 0 100 100" fill="none" xmlns="http://www.w3.org/2000/svg"><path d="M100 0H0V100H100V0Z" fill="#fff"/><path d="M31.7805 4.87805H29.2683V7.39025H31.7805V4.87805Z" fill="#000"/><path d="M34.2195 4.87805H31.7073V7.39025H34.2195V4.87805Z" fill="#000"/><path d="M41.5366 4.87805H39.0244V7.39025H41.5366V4.87805Z" fill="#000"/><path d="M43.9756 4.87805H41.4634V7.39025H43.9756V4.87805Z" fill="#000"/><path d="M46.4147 4.87805H43.9025V7.39025H46.4147V4.87805Z" fill="#000"/><path d="M53.7317 4.87805H51.2195V7.39025H53.7317V4.87805Z" fill="#000"/><path d="M58.6097 4.87805H56.0975V7.39025H58.6097V4.87805Z" fill="#000"/><path d="M61.0487 4.87805H58.5366V7.39025H61.0487V4.87805Z" fill="#000"/><path d="M68.3659 4.87805H65.8537V7.39025H68.3659V4.87805Z" fill="#000"/><path d="M70.8049 4.87805H68.2927V7.39025H70.8049V4.87805Z" fill="#000"/><path d="M36.6586 7.31708H34.1464V9.82928H36.6586V7.31708Z" fill="#000"/><path d="M39.0975 7.31708H36.5853V9.82928H39.0975V7.31708Z" fill="#000"/><path d="M43.9756 7.31708H41.4634V9.82928H43.9756V7.31708Z" fill="#000"/><path d="M46.4147 7.31708H43.9025V9.82928H46.4147V7.31708Z" fill="#000"/><path d="M58.6097 7.31708H56.0975V9.82928H58.6097V7.31708Z" fill="#000"/><path d="M68.3659 7.31708H65.8537V9.82928H68.3659V7.31708Z" fill="#000"/><path d="M70.8049 7.31708H68.2927V9.82928H70.8049V7.31708Z" fill="#000"/><path d="M73.2439 7.31708H70.7317V9.82928H73.2439V7.31708Z" fill="#000"/><path d="M75.683 7.31708H73.1708V9.82928H75.683V7.31708Z" fill="#000"/><path d="M26.9025 9.7561H24.3903V12.2683H26.9025V9.7561Z" fill="#000"/><path d="M34.2195 9.7561H31.7073V12.2683H34.2195V9.7561Z" fill="#000"/><path d="M39.0975 9.7561H36.5853V12.2683H39.0975V9.7561Z" fill="#000"/><path d="M43.9756 9.7561H41.4634V12.2683H43.9756V9.7561Z" fill="#000"/><path d="M53.7317 9.7561H51.2195V12.2683H53.7317V9.7561Z" fill="#000"/><path d="M56.1708 9.7561H53.6586V12.2683H56.1708V9.7561Z" fill="#000"/><path d="M58.6097 9.7561H56.0975V12.2683H58.6097V9.7561Z" fill="#000"/><path d="M73.2439 9.7561H70.7317V12.2683H73.2439V9.7561Z" fill="#000"/><path d="M75.683 9.7561H73.1708V12.2683H75.683V9.7561Z" fill="#000"/><path d="M26.9025 12.1951H24.3903V14.7073H26.9025V12.1951Z" fill="#000"/><path d="M29.3415 12.1951H26.8293V14.7073H29.3415V12.1951Z" fill="#000"/><path d="M31.7805 12.1951H29.2683V14.7073H31.7805V12.1951Z" fill="#000"/><path d="M34.2195 12.1951H31.7073V14.7073H34.2195V12.1951Z" fill="#000"/><path d="M43.9756 12.1951H41.4634V14.7073H43.9756V12.1951Z" fill="#000"/><path d="M46.4147 12.1951H43.9025V14.7073H46.4147V12.1951Z" fill="#000"/><path d="M48.8537 12.1951H46.3415V14.7073H48.8537V12.1951Z" fill="#000"/><path d="M53.7317 12.1951H51.2195V14.7073H53.7317V12.1951Z" fill="#000"/><path d="M56.1708 12.1951H53.6586V14.7073H56.1708V12.1951Z" fill="#000"/><path d="M61.0487 12.1951H58.5366V14.7073H61.0487V12.1951Z" fill="#000"/><path d="M63.4878 12.1951H60.9756V14.7073H63.4878V12.1951Z" fill="#000"/><path d="M68.3659 12.1951H65.8537V14.7073H68.3659V12.1951Z" fill="#000"/><path d="M70.8049 12.1951H68.2927V14.7073H70.8049V12.1951Z" fill="#000"/><path d="M26.9025 14.6342H24.3903V17.1463H26.9025V14.6342Z" fill="#000"/><path d="M36.6586 14.6342H34.1464V17.1463H36.6586V14.6342Z" fill="#000"/><path d="M39.0975 14.6342H36.5853V17.1463H39.0975V14.6342Z" fill="#000"/><path d="M43.9756 14.6342H41.4634V17.1463H43.9756V14.6342Z" fill="#000"/><path d="M48.8537 14.6342H46.3415V17.1463H48.8537V14.6342Z" fill="#000"/><path d="M53.7317 14.6342H51.2195V17.1463H53.7317V14.6342Z" fill="#000"/><path d="M56.1708 14.6342H53.6586V17.1463H56.1708V14.6342Z" fill="#000"/><path d="M61.0487 14.6342H58.5366V17.1463H61.0487V14.6342Z" fill="#000"/><path d="M68.3659 14.6342H65.8537V17.1463H68.3659V14.6342Z" fill="#000"/><path d="M75.683 14.6342H73.1708V17.1463H75.683V14.6342Z" fill="#000"/><path d="M26.9025 17.0732H24.3903V19.5854H26.9025V17.0732Z" fill="#000"/><path d="M31.7805 17.0732H29.2683V19.5854H31.7805V17.0732Z" fill="#000"/><path d="M34.2195 17.0732H31.7073V19.5854H34.2195V17.0732Z" fill="#000"/><path d="M41.5366 17.0732H39.0244V19.5854H41.5366V17.0732Z" fill="#000"/><path d="M43.9756 17.0732H41.4634V19.5854H43.9756V17.0732Z" fill="#000"/><path d="M46.4147 17.0732H43.9025V19.5854H46.4147V17.0732Z" fill="#000"/><path d="M56.1708 17.0732H53.6586V19.5854H56.1708V17.0732Z" fill="#000"/><path d="M61.0487 17.0732H58.5366V19.5854H61.0487V17.0732Z" fill="#000"/><path d="M70.8049 17.0732H68.2927V19.5854H70.8049V17.0732Z" fill="#000"/><path d="M73.2439 17.0732H70.7317V19.5854H73.2439V17.0732Z" fill="#000"/><path d="M75.683 17.0732H73.1708V19.5854H75.683V17.0732Z" fill="#000"/><path d="M26.9025 19.5122H24.3903V22.0244H26.9025V19.5122Z" fill="#000"/><path d="M31.7805 19.5122H29.2683V22.0244H31.7805V19.5122Z" fill="#000"/><path d="M36.6586 19.5122H34.1464V22.0244H36.6586V19.5122Z" fill="#000"/><path d="M41.5366 19.5122H39.0244V22.0244H41.5366V19.5122Z" fill="#000"/><path d="M46.4147 19.5122H43.9025V22.0244H46.4147V19.5122Z" fill="#000"/><path d="M51.2927 19.5122H48.7805V22.0244H51.2927V19.5122Z" fill="#000"/><path d="M56.1708 19.5122H53.6586V22.0244H56.1708V19.5122Z" fill="#000"/><path d="M61.0487 19.5122H58.5366V22.0244H61.0487V19.5122Z" fill="#000"/><path d="M65.9268 19.5122H63.4146V22.0244H65.9268V19.5122Z" fill="#000"/><path d="M70.8049 19.5122H68.2927V22.0244H70.8049V19.5122Z" fill="#000"/><path d="M75.683 19.5122H73.1708V22.0244H75.683V19.5122Z" fill="#000"/><path d="M26.9025 21.9512H24.3903V24.4634H26.9025V21.9512Z" fill="#000"/><path d="M29.3415 21.9512H26.8293V24.4634H29.3415V21.9512Z" fill="#000"/><path d="M36.6586 21.9512H34.1464V24.4634H36.6586V21.9512Z" fill="#000"/><path d="M41.5366 21.9512H39.0244V24.4634H41.5366V21.9512Z" fill="#000"/><path d="M43.9756 21.9512H41.4634V24.4634H43.9756V21.9512Z" fill="#000"/><path d="M46.4147 21.9512H43.9025V24.4634H46.4147V21.9512Z" fill="#000"/><path d="M53.7317 21.9512H51.2195V24.4634H53.7317V21.9512Z" fill="#000"/><path d="M56.1708 21.9512H53.6586V24.4634H56.1708V21.9512Z" fill="#000"/><path d="M58.6097 21.9512H56.0975V24.4634H58.6097V21.9512Z" fill="#000"/><path d="M61.0487 21.9512H58.5366V24.4634H61.0487V21.9512Z" fill="#000"/><path d="M70.8049 21.9512H68.2927V24.4634H70.8049V21.9512Z" fill="#000"/><path d="M75.683 21.9512H73.1708V24.4634H75.683V21.9512Z" fill="#000"/><path d="M7.39025 24.3903H4.87805V26.9025H7.39025V24.3903Z" fill="#000"/><path d="M12.2683 24.3903H9.7561V26.9025H12.2683V24.3903Z" fill="#000"/><path d="M14.7073 24.3903H12.1951V26.9025H14.7073V24.3903Z" fill="#000"/><path d="M17.1464 24.3903H14.6342V26.9025H17.1464V24.3903Z" fill="#000"/><path d="M19.5854 24.3903H17.0732V26.9025H19.5854V24.3903Z" fill="#000"/><path d="M22.0244 24.3903H19.5122V26.9025H22.0244V24.3903Z" fill="#000"/><path d="M29.3415 24.3903H26.8293V26.9025H29.3415V24.3903Z" fill="#000"/><path d="M34.2195 24.3903H31.7073V26.9025H34.2195V24.3903Z" fill="#000"/><path d="M46.4147 24.3903H43.9025V26.9025H46.4147V24.3903Z" fill="#000"/><path d="M48.8537 24.3903H46.3415V26.9025H48.8537V24.3903Z" fill="#000"/><path d="M51.2927 24.3903H48.7805V26.9025H51.2927V24.3903Z" fill="#000"/><path d="M53.7317 24.3903H51.2195V26.9025H53.7317V24.3903Z" fill="#000"/><path d="M61.0487 24.3903H58.5366V26.9025H61.0487V24.3903Z" fill="#000"/><path d="M65.9268 24.3903H63.4146V26.9025H65.9268V24.3903Z" fill="#000"/><path d="M68.3659 24.3903H65.8537V26.9025H68.3659V24.3903Z" fill="#000"/><path d="M70.8049 24.3903H68.2927V26.9025H70.8049V24.3903Z" fill="#000"/><path d="M80.561 24.3903H78.0488V26.9025H80.561V24.3903Z" fill="#000"/><path d="M83 24.3903H80.4878V26.9025H83V24.3903Z" fill="#000"/><path d="M85.439 24.3903H82.9268V26.9025H85.439V24.3903Z" fill="#000"/><path d="M87.8781 24.3903H85.3658V26.9025H87.8781V24.3903Z" fill="#000"/><path d="M90.3171 24.3903H87.8049V26.9025H90.3171V24.3903Z" fill="#000"/><path d="M17.1464 26.8293H14.6342V29.3415H17.1464V26.8293Z" fill="#000"/><path d="M19.5854 26.8293H17.0732V29.3415H19.5854V26.8293Z" fill="#000"/><path d="M24.4634 26.8293H21.9512V29.3415H24.4634V26.8293Z" fill="#000"/><path d="M26.9025 26.8293H24.3903V29.3415H26.9025V26.8293Z" fill="#000"/><path d="M29.3415 26.8293H26.8293V29.3415H29.3415V26.8293Z" fill="#000"/><path d="M34.2195 26.8293H31.7073V29.3415H34.2195V26.8293Z" fill="#000"/><path d="M41.5366 26.8293H39.0244V29.3415H41.5366V26.8293Z" fill="#000"/><path d="M43.9756 26.8293H41.4634V29.3415H43.9756V26.8293Z" fill="#000"/><path d="M53.7317 26.8293H51.2195V29.3415H53.7317V26.8293Z" fill="#000"/><path d="M56.1708 26.8293H53.6586V29.3415H56.1708V26.8293Z" fill="#000"/><path d="M58.6097 26.8293H56.0975V29.3415H58.6097V26.8293Z" fill="#000"/><path d="M63.4878 26.8293H60.9756V29.3415H63.4878V26.8293Z" fill="#000"/><path d="M75.683 26.8293H73.1708V29.3415H75.683V26.8293Z" fill="#000"/><path d="M78.122 26.8293H75.6097V29.3415H78.122V26.8293Z" fill="#000"/><path d="M80.561 26.8293H78.0488V29.3415H80.561V26.8293Z" fill="#000"/><path d="M83 26.8293H80.4878V29.3415H83V26.8293Z" fill="#000"/><path d="M92.7561 26.8293H90.2439V29.3415H92.7561V26.8293Z" fill="#000"/><path d="M14.7073 29.2683H12.1951V31.7805H14.7073V29.2683Z" fill="#000"/><path d="M19.5854 29.2683H17.0732V31.7805H19.5854V29.2683Z" fill="#000"/><path d="M22.0244 29.2683H19.5122V31.7805H22.0244V29.2683Z" fill="#000"/><path d="M24.4634 29.2683H21.9512V31.7805H24.4634V29.2683Z" fill="#000"/><path d="M26.9025 29.2683H24.3903V31.7805H26.9025V29.2683Z" fill="#000"/><path d="M34.2195 29.2683H31.7073V31.7805H34.2195V29.2683Z" fill="#000"/><path d="M41.5366 29.2683H39.0244V31.7805H41.5366V29.2683Z" fill="#000"/><path d="M43.9756 29.2683H41.4634V31.7805H43.9756V29.2683Z" fill="#000"/><path d="M46.4147 29.2683H43.9025V31.7805H46.4147V29.2683Z" fill="#000"/><path d="M56.1708 29.2683H53.6586V31.7805H56.1708V29.2683Z" fill="#000"/><path d="M65.9268 29.2683H63.4146V31.7805H65.9268V29.2683Z" fill="#000"/><path d="M70.8049 29.2683H68.2927V31.7805H70.8049V29.2683Z" fill="#000"/><path d="M73.2439 29.2683H70.7317V31.7805H73.2439V29.2683Z" fill="#000"/><path d="M75.683 29.2683H73.1708V31.7805H75.683V29.2683Z" fill="#000"/><path d="M78.122 29.2683H75.6097V31.7805H78.122V29.2683Z" fill="#000"/><path d="M80.561 29.2683H78.0488V31.7805H80.561V29.2683Z" fill="#000"/><path d="M83 29.2683H80.4878V31.7805H83V29.2683Z" fill="#000"/><path d="M87.8781 29.2683H85.3658V31.7805H87.8781V29.2683Z" fill="#000"/><path d="M92.7561 29.2683H90.2439V31.7805H92.7561V29.2683Z" fill="#000"/><path d="M95.1951 29.2683H92.6829V31.7805H95.1951V29.2683Z" fill="#000"/><path d="M14.7073 31.7073H12.1951V34.2195H14.7073V31.7073Z" fill="#000"/><path d="M19.5854 31.7073H17.0732V34.2195H19.5854V31.7073Z" fill="#000"/><path d="M26.9025 31.7073H24.3903V34.2195H26.9025V31.7073Z" fill="#000"/><path d="M29.3415 31.7073H26.8293V34.2195H29.3415V31.7073Z" fill="#000"/><path d="M31.7805 31.7073H29.2683V34.2195H31.7805V31.7073Z" fill="#000"/><path d="M34.2195 31.7073H31.7073V34.2195H34.2195V31.7073Z" fill="#000"/><path d="M39.0975 31.7073H36.5853V34.2195H39.0975V31.7073Z" fill="#000"/><path d="M43.9756 31.7073H41.4634V34.2195H43.9756V31.7073Z" fill="#000"/><path d="M51.2927 31.7073H48.7805V34.2195H51.2927V31.7073Z" fill="#000"/><path d="M53.7317 31.7073H51.2195V34.2195H53.7317V31.7073Z" fill="#000"/><path d="M56.1708 31.7073H53.6586V34.2195H56.1708V31.7073Z" fill="#000"/><path d="M58.6097 31.7073H56.0975V34.2195H58.6097V31.7073Z" fill="#000"/><path d="M73.2439 31.7073H70.7317V34.2195H73.2439V31.7073Z" fill="#000"/><path d="M75.683 31.7073H73.1708V34.2195H75.683V31.7073Z" fill="#000"/><path d="M80.561 31.7073H78.0488V34.2195H80.561V31.7073Z" fill="#000"/><path d="M83 31.7073H80.4878V34.2195H83V31.7073Z" fill="#000"/><path d="M85.439 31.7073H82.9268V34.2195H85.439V31.7073Z" fill="#000"/><path d="M95.1951 31.7073H92.6829V34.2195H95.1951V31.7073Z" fill="#000"/><path d="M9.82928 34.1464H7.31708V36.6586H9.82928V34.1464Z" fill="#000"/><path d="M12.2683 34.1464H9.7561V36.6586H12.2683V34.1464Z" fill="#000"/><path d="M19.5854 34.1464H17.0732V36.6586H19.5854V34.1464Z" fill="#000"/><path d="M22.0244 34.1464H19.5122V36.6586H22.0244V34.1464Z" fill="#000"/><path d="M29.3415 34.1464H26.8293V36.6586H29.3415V34.1464Z" fill="#000"/><path d="M31.7805 34.1464H29.2683V36.6586H31.7805V34.1464Z" fill="#000"/><path d="M36.6586 34.1464H34.1464V36.6586H36.6586V34.1464Z" fill="#000"/><path d="M39.0975 34.1464H36.5853V36.6586H39.0975V34.1464Z" fill="#000"/><path d="M43.9756 34.1464H41.4634V36.6586H43.9756V34.1464Z" fill="#000"/><path d="M48.8537 34.1464H46.3415V36.6586H48.8537V34.1464Z" fill="#000"/><path d="M56.1708 34.1464H53.6586V36.6586H56.1708V34.1464Z" fill="#000"/><path d="M61.0487 34.1464H58.5366V36.6586H61.0487V34.1464Z" fill="#000"/><path d="M65.9268 34.1464H63.4146V36.6586H65.9268V34.1464Z" fill="#000"/><path d="M68.3659 34.1464H65.8537V36.6586H68.3659V34.1464Z" fill="#000"/><path d="M70.8049 34.1464H68.2927V36.6586H70.8049V34.1464Z" fill="#000"/><path d="M73.2439 34.1464H70.7317V36.6586H73.2439V34.1464Z" fill="#000"/><path d="M80.561 34.1464H78.0488V36.6586H80.561V34.1464Z" fill="#000"/><path d="M83 34.1464H80.4878V36.6586H83V34.1464Z" fill="#000"/><path d="M85.439 34.1464H82.9268V36.6586H85.439V34.1464Z" fill="#000"/><path d="M87.8781 34.1464H85.3658V36.6586H87.8781V34.1464Z" fill="#000"/><path d="M90.3171 34.1464H87.8049V36.6586H90.3171V34.1464Z" fill="#000"/><path d="M92.7561 34.1464H90.2439V36.6586H92.7561V34.1464Z" fill="#000"/><path d="M95.1951 34.1464H92.6829V36.6586H95.1951V34.1464Z" fill="#000"/><path d="M9.82928 36.5854H7.31708V39.0976H9.82928V36.5854Z" fill="#000"/><path d="M19.5854 36.5854H17.0732V39.0976H19.5854V36.5854Z" fill="#000"/><path d="M31.7805 36.5854H29.2683V39.0976H31.7805V36.5854Z" fill="#000"/><path d="M46.4147 36.5854H43.9025V39.0976H46.4147V36.5854Z" fill="#000"/><path d="M51.2927 36.5854H48.7805V39.0976H51.2927V36.5854Z" fill="#000"/><path d="M53.7317 36.5854H51.2195V39.0976H53.7317V36.5854Z" fill="#000"/><path d="M58.6097 36.5854H56.0975V39.0976H58.6097V36.5854Z" fill="#000"/><path d="M63.4878 36.5854H60.9756V39.0976H63.4878V36.5854Z" fill="#000"/><path d="M68.3659 36.5854H65.8537V39.0976H68.3659V36.5854Z" fill="#000"/><path d="M75.683 36.5854H73.1708V39.0976H75.683V36.5854Z" fill="#000"/><path d="M83 36.5854H80.4878V39.0976H83V36.5854Z" fill="#000"/><path d="M92.7561 36.5854H90.2439V39.0976H92.7561V36.5854Z" fill="#000"/><path d="M7.39025 39.0244H4.87805V41.5366H7.39025V39.0244Z" fill="#000"/><path d="M12.2683 39.0244H9.7561V41.5366H12.2683V39.0244Z" fill="#000"/><path d="M17.1464 39.0244H14.6342V41.5366H17.1464V39.0244Z" fill="#000"/><path d="M19.5854 39.0244H17.0732V41.5366H19.5854V39.0244Z" fill="#000"/><path d="M22.0244 39.0244H19.5122V41.5366H22.0244V39.0244Z" fill="#000"/><path d="M24.4634 39.0244H21.9512V41.5366H24.4634V39.0244Z" fill="#000"/><path d="M26.9025 39.0244H24.3903V41.5366H26.9025V39.0244Z" fill="#000"/><path d="M29.3415 39.0244H26.8293V41.5366H29.3415V39.0244Z" fill="#000"/><path d="M39.0975 39.0244H36.5853V41.5366H39.0975V39.0244Z" fill="#000"/><path d="M41.5366 39.0244H39.0244V41.5366H41.5366V39.0244Z" fill="#000"/><path d="M43.9756 39.0244H41.4634V41.5366H43.9756V39.0244Z" fill="#000"/><path d="M51.2927 39.0244H48.7805V41.5366H51.2927V39.0244Z" fill="#000"/><path d="M70.8049 39.0244H68.2927V41.5366H70.8049V39.0244Z" fill="#000"/><path d="M73.2439 39.0244H70.7317V41.5366H73.2439V39.0244Z" fill="#000"/><path d="M75.683 39.0244H73.1708V41.5366H75.683V39.0244Z" fill="#000"/><path d="M78.122 39.0244H75.6097V41.5366H78.122V39.0244Z" fill="#000"/><path d="M83 39.0244H80.4878V41.5366H83V39.0244Z" fill="#000"/><path d="M85.439 39.0244H82.9268V41.5366H85.439V39.0244Z" fill="#000"/><path d="M87.8781 39.0244H85.3658V41.5366H87.8781V39.0244Z" fill="#000"/><path d="M92.7561 39.0244H90.2439V41.5366H92.7561V39.0244Z" fill="#000"/><path d="M95.1951 39.0244H92.6829V41.5366H95.1951V39.0244Z" fill="#000"/><path d="M9.82928 41.4634H7.31708V43.9756H9.82928V41.4634Z" fill="#000"/><path d="M12.2683 41.4634H9.7561V43.9756H12.2683V41.4634Z" fill="#000"/><path d="M14.7073 41.4634H12.1951V43.9756H14.7073V41.4634Z" fill="#000"/><path d="M17.1464 41.4634H14.6342V43.9756H17.1464V41.4634Z" fill="#000"/><path d="M19.5854 41.4634H17.0732V43.9756H19.5854V41.4634Z" fill="#000"/><path d="M24.4634 41.4634H21.9512V43.9756H24.4634V41.4634Z" fill="#000"/><path d="M31.7805 41.4634H29.2683V43.9756H31.7805V41.4634Z" fill="#000"/><path d="M36.6586 41.4634H34.1464V43.9756H36.6586V41.4634Z" fill="#000"/><path d="M39.0975 41.4634H36.5853V43.9756H39.0975V41.4634Z" fill="#000"/><path d="M41.5366 41.4634H39.0244V43.9756H41.5366V41.4634Z" fill="#000"/><path d="M56.1708 41.4634H53.6586V43.9756H56.1708V41.4634Z" fill="#000"/><path d="M58.6097 41.4634H56.0975V43.9756H58.6097V41.4634Z" fill="#000"/><path d="M61.0487 41.4634H58.5366V43.9756H61.0487V41.4634Z" fill="#000"/><path d="M63.4878 41.4634H60.9756V43.9756H63.4878V41.4634Z" fill="#000"/><path d="M65.9268 41.4634H63.4146V43.9756H65.9268V41.4634Z" fill="#000"/><path d="M70.8049 41.4634H68.2927V43.9756H70.8049V41.4634Z" fill="#000"/><path d="M73.2439 41.4634H70.7317V43.9756H73.2439V41.4634Z" fill="#000"/><path d="M75.683 41.4634H73.1708V43.9756H75.683V41.4634Z" fill="#000"/><path d="M78.122 41.4634H75.6097V43.9756H78.122V41.4634Z" fill="#000"/><path d="M83 41.4634H80.4878V43.9756H83V41.4634Z" fill="#000"/><path d="M85.439 41.4634H82.9268V43.9756H85.439V41.4634Z" fill="#000"/><path d="M92.7561 41.4634H90.2439V43.9756H92.7561V41.4634Z" fill="#000"/><path d="M95.1951 41.4634H92.6829V43.9756H95.1951V41.4634Z" fill="#000"/><path d="M7.39025 43.9025H4.87805V46.4147H7.39025V43.9025Z" fill="#000"/><path d="M14.7073 43.9025H12.1951V46.4147H14.7073V43.9025Z" fill="#000"/><path d="M22.0244 43.9025H19.5122V46.4147H22.0244V43.9025Z" fill="#000"/><path d="M26.9025 43.9025H24.3903V46.4147H26.9025V43.9025Z" fill="#000"/><path d="M29.3415 43.9025H26.8293V46.4147H29.3415V43.9025Z" fill="#000"/><path d="M34.2195 43.9025H31.7073V46.4147H34.2195V43.9025Z" fill="#000"/><path d="M36.6586 43.9025H34.1464V46.4147H36.6586V43.9025Z" fill="#000"/><path d="M43.9756 43.9025H41.4634V46.4147H43.9756V43.9025Z" fill="#000"/><path d="M51.2927 43.9025H48.7805V46.4147H51.2927V43.9025Z" fill="#000"/><path d="M61.0487 43.9025H58.5366V46.4147H61.0487V43.9025Z" fill="#000"/><path d="M68.3659 43.9025H65.8537V46.4147H68.3659V43.9025Z" fill="#000"/><path d="M70.8049 43.9025H68.2927V46.4147H70.8049V43.9025Z" fill="#000"/><path d="M75.683 43.9025H73.1708V46.4147H75.683V43.9025Z" fill="#000"/><path d="M78.122 43.9025H75.6097V46.4147H78.122V43.9025Z" fill="#000"/><path d="M80.561 43.9025H78.0488V46.4147H80.561V43.9025Z" fill="#000"/><path d="M85.439 43.9025H82.9268V46.4147H85.439V43.9025Z" fill="#000"/><path d="M90.3171 43.9025H87.8049V46.4147H90.3171V43.9025Z" fill="#000"/><path d="M92.7561 43.9025H90.2439V46.4147H92.7561V43.9025Z" fill="#000"/><path d="M9.82928 46.3415H7.31708V48.8537H9.82928V46.3415Z" fill="#000"/><path d="M12.2683 46.3415H9.7561V48.8537H12.2683V46.3415Z" fill="#000"/><path d="M19.5854 46.3415H17.0732V48.8537H19.5854V46.3415Z" fill="#000"/><path d="M24.4634 46.3415H21.9512V48.8537H24.4634V46.3415Z" fill="#000"/><path d="M26.9025 46.3415H24.3903V48.8537H26.9025V46.3415Z" fill="#000"/><path d="M29.3415 46.3415H26.8293V48.8537H29.3415V46.3415Z" fill="#000"/><path d="M39.0975 46.3415H36.5853V48.8537H39.0975V46.3415Z" fill="#000"/><path d="M41.5366 46.3415H39.0244V48.8537H41.5366V46.3415Z" fill="#000"/><path d="M43.9756 46.3415H41.4634V48.8537H43.9756V46.3415Z" fill="#000"/><path d="M46.4147 46.3415H43.9025V48.8537H46.4147V46.3415Z" fill="#000"/><path d="M48.8537 46.3415H46.3415V48.8537H48.8537V46.3415Z" fill="#000"/><path d="M51.2927 46.3415H48.7805V48.8537H51.2927V46.3415Z" fill="#000"/><path d="M53.7317 46.3415H51.2195V48.8537H53.7317V46.3415Z" fill="#000"/><path d="M56.1708 46.3415H53.6586V48.8537H56.1708V46.3415Z" fill="#000"/><path d="M63.4878 46.3415H60.9756V48.8537H63.4878V46.3415Z" fill="#000"/><path d="M68.3659 46.3415H65.8537V48.8537H68.3659V46.3415Z" fill="#000"/><path d="M75.683 46.3415H73.1708V48.8537H75.683V46.3415Z" fill="#000"/><path d="M83 46.3415H80.4878V48.8537H83V46.3415Z" fill="#000"/><path d="M92.7561 46.3415H90.2439V48.8537H92.7561V46.3415Z" fill="#000"/><path d="M7.39025 48.7805H4.87805V51.2927H7.39025V48.7805Z" fill="#000"/><path d="M9.82928 48.7805H7.31708V51.2927H9.82928V48.7805Z" fill="#000"/><path d="M17.1464 48.7805H14.6342V51.2927H17.1464V48.7805Z" fill="#000"/><path d="M19.5854 48.7805H17.0732V51.2927H19.5854V48.7805Z" fill="#000"/><path d="M22.0244 48.7805H19.5122V51.2927H22.0244V48.7805Z" fill="#000"/><path d="M29.3415 48.7805H26.8293V51.2927H29.3415V48.7805Z" fill="#000"/><path d="M31.7805 48.7805H29.2683V51.2927H31.7805V48.7805Z" fill="#000"/><path d="M36.6586 48.7805H34.1464V51.2927H36.6586V48.7805Z" fill="#000"/><path d="M39.0975 48.7805H36.5853V51.2927H39.0975V48.7805Z" fill="#000"/><path d="M56.1708 48.7805H53.6586V51.2927H56.1708V48.7805Z" fill="#000"/><path d="M61.0487 48.7805H58.5366V51.2927H61.0487V48.7805Z" fill="#000"/><path d="M73.2439 48.7805H70.7317V51.2927H73.2439V48.7805Z" fill="#000"/><path d="M75.683 48.7805H73.1708V51.2927H75.683V48.7805Z" fill="#000"/><path d="M78.122 48.7805H75.6097V51.2927H78.122V48.7805Z" fill="#000"/><path d="M92.7561 48.7805H90.2439V51.2927H92.7561V48.7805Z" fill="#000"/><path d="M95.1951 48.7805H92.6829V51.2927H95.1951V48.7805Z" fill="#000"/><path d="M12.2683 51.2195H9.7561V53.7317H12.2683V51.2195Z" fill="#000"/><path d="M14.7073 51.2195H12.1951V53.7317H14.7073V51.2195Z" fill="#000"/><path d="M19.5854 51.2195H17.0732V53.7317H19.5854V51.2195Z" fill="#000"/><path d="M26.9025 51.2195H24.3903V53.7317H26.9025V51.2195Z" fill="#000"/><path d="M31.7805 51.2195H29.2683V53.7317H31.7805V51.2195Z" fill="#000"/><path d="M34.2195 51.2195H31.7073V53.7317H34.2195V51.2195Z" fill="#000"/><path d="M39.0975 51.2195H36.5853V53.7317H39.0975V51.2195Z" fill="#000"/><path d="M46.4147 51.2195H43.9025V53.7317H46.4147V51.2195Z" fill="#000"/><path d="M58.6097 51.2195H56.0975V53.7317H58.6097V51.2195Z" fill="#000"/><path d="M61.0487 51.2195H58.5366V53.7317H61.0487V51.2195Z" fill="#000"/><path d="M70.8049 51.2195H68.2927V53.7317H70.8049V51.2195Z" fill="#000"/><path d="M73.2439 51.2195H70.7317V53.7317H73.2439V51.2195Z" fill="#000"/><path d="M83 51.2195H80.4878V53.7317H83V51.2195Z" fill="#000"/><path d="M95.1951 51.2195H92.6829V53.7317H95.1951V51.2195Z" fill="#000"/><path d="M9.82928 53.6586H7.31708V56.1708H9.82928V53.6586Z" fill="#000"/><path d="M14.7073 53.6586H12.1951V56.1708H14.7073V53.6586Z" fill="#000"/><path d="M17.1464 53.6586H14.6342V56.1708H17.1464V53.6586Z" fill="#000"/><path d="M19.5854 53.6586H17.0732V56.1708H19.5854V53.6586Z" fill="#000"/><path d="M22.0244 53.6586H19.5122V56.1708H22.0244V53.6586Z" fill="#000"/><path d="M24.4634 53.6586H21.9512V56.1708H24.4634V53.6586Z" fill="#000"/><path d="M29.3415 53.6586H26.8293V56.1708H29.3415V53.6586Z" fill="#000"/><path d="M34.2195 53.6586H31.7073V56.1708H34.2195V53.6586Z" fill="#000"/><path d="M36.6586 53.6586H34.1464V56.1708H36.6586V53.6586Z" fill="#000"/><path d="M46.4147 53.6586H43.9025V56.1708H46.4147V53.6586Z" fill="#000"/><path d="M53.7317 53.6586H51.2195V56.1708H53.7317V53.6586Z" fill="#000"/><path d="M56.1708 53.6586H53.6586V56.1708H56.1708V53.6586Z" fill="#000"/><path d="M61.0487 53.6586H58.5366V56.1708H61.0487V53.6586Z" fill="#000"/><path d="M65.9268 53.6586H63.4146V56.1708H65.9268V53.6586Z" fill="#000"/><path d="M70.8049 53.6586H68.2927V56.1708H70.8049V53.6586Z" fill="#000"/><path d="M78.122 53.6586H75.6097V56.1708H78.122V53.6586Z" fill="#000"/><path d="M80.561 53.6586H78.0488V56.1708H80.561V53.6586Z" fill="#000"/><path d="M85.439 53.6586H82.9268V56.1708H85.439V53.6586Z" fill="#000"/><path d="M87.8781 53.6586H85.3658V56.1708H87.8781V53.6586Z" fill="#000"/><path d="M90.3171 53.6586H87.8049V56.1708H90.3171V53.6586Z" fill="#000"/><path d="M24.4634 56.0975H21.9512V58.6097H24.4634V56.0975Z" fill="#000"/><path d="M29.3415 56.0975H26.8293V58.6097H29.3415V56.0975Z" fill="#000"/><path d="M31.7805 56.0975H29.2683V58.6097H31.7805V56.0975Z" fill="#000"/><path d="M34.2195 56.0975H31.7073V58.6097H34.2195V56.0975Z" fill="#000"/><path d="M41.5366 56.0975H39.0244V58.6097H41.5366V56.0975Z" fill="#000"/><path d="M46.4147 56.0975H43.9025V58.6097H46.4147V56.0975Z" fill="#000"/><path d="M48.8537 56.0975H46.3415V58.6097H48.8537V56.0975Z" fill="#000"/><path d="M53.7317 56.0975H51.2195V58.6097H53.7317V56.0975Z" fill="#000"/><path d="M56.1708 56.0975H53.6586V58.6097H56.1708V56.0975Z" fill="#000"/><path d="M58.6097 56.0975H56.0975V58.6097H58.6097V56.0975Z" fill="#000"/><path d="M63.4878 56.0975H60.9756V58.6097H63.4878V56.0975Z" fill="#000"/><path d="M73.2439 56.0975H70.7317V58.6097H73.2439V56.0975Z" fill="#000"/><path d="M75.683 56.0975H73.1708V58.6097H75.683V56.0975Z" fill="#000"/><path d="M87.8781 56.0975H85.3658V58.6097H87.8781V56.0975Z" fill="#000"/><path d="M92.7561 56.0975H90.2439V58.6097H92.7561V56.0975Z" fill="#000"/><path d="M9.82928 58.5366H7.31708V61.0488H9.82928V58.5366Z" fill="#000"/><path d="M12.2683 58.5366H9.7561V61.0488H12.2683V58.5366Z" fill="#000"/><path d="M17.1464 58.5366H14.6342V61.0488H17.1464V58.5366Z" fill="#000"/><path d="M22.0244 58.5366H19.5122V61.0488H22.0244V58.5366Z" fill="#000"/><path d="M26.9025 58.5366H24.3903V61.0488H26.9025V58.5366Z" fill="#000"/><path d="M36.6586 58.5366H34.1464V61.0488H36.6586V58.5366Z" fill="#000"/><path d="M43.9756 58.5366H41.4634V61.0488H43.9756V58.5366Z" fill="#000"/><path d="M46.4147 58.5366H43.9025V61.0488H46.4147V58.5366Z" fill="#000"/><path d="M48.8537 58.5366H46.3415V61.0488H48.8537V58.5366Z" fill="#000"/><path d="M56.1708 58.5366H53.6586V61.0488H56.1708V58.5366Z" fill="#000"/><path d="M58.6097 58.5366H56.0975V61.0488H58.6097V58.5366Z" fill="#000"/><path d="M70.8049 58.5366H68.2927V61.0488H70.8049V58.5366Z" fill="#000"/><path d="M73.2439 58.5366H70.7317V61.0488H73.2439V58.5366Z" fill="#000"/><path d="M75.683 58.5366H73.1708V61.0488H75.683V58.5366Z" fill="#000"/><path d="M78.122 58.5366H75.6097V61.0488H78.122V58.5366Z" fill="#000"/><path d="M83 58.5366H80.4878V61.0488H83V58.5366Z" fill="#000"/><path d="M85.439 58.5366H82.9268V61.0488H85.439V58.5366Z" fill="#000"/><path d="M87.8781 58.5366H85.3658V61.0488H87.8781V58.5366Z" fill="#000"/><path d="M95.1951 58.5366H92.6829V61.0488H95.1951V58.5366Z" fill="#000"/><path d="M7.39025 60.9756H4.87805V63.4879H7.39025V60.9756Z" fill="#000"/><path d="M17.1464 60.9756H14.6342V63.4879H17.1464V60.9756Z" fill="#000"/><path d="M19.5854 60.9756H17.0732V63.4879H19.5854V60.9756Z" fill="#000"/><path d="M24.4634 60.9756H21.9512V63.4879H24.4634V60.9756Z" fill="#000"/><path d="M29.3415 60.9756H26.8293V63.4879H29.3415V60.9756Z" fill="#000"/><path d="M31.7805 60.9756H29.2683V63.4879H31.7805V60.9756Z" fill="#000"/><path d="M39.0975 60.9756H36.5853V63.4879H39.0975V60.9756Z" fill="#000"/><path d="M41.5366 60.9756H39.0244V63.4879H41.5366V60.9756Z" fill="#000"/><path d="M43.9756 60.9756H41.4634V63.4879H43.9756V60.9756Z" fill="#000"/><path d="M46.4147 60.9756H43.9025V63.4879H46.4147V60.9756Z" fill="#000"/><path d="M48.8537 60.9756H46.3415V63.4879H48.8537V60.9756Z" fill="#000"/><path d="M51.2927 60.9756H48.7805V63.4879H51.2927V60.9756Z" fill="#000"/><path d="M53.7317 60.9756H51.2195V63.4879H53.7317V60.9756Z" fill="#000"/><path d="M56.1708 60.9756H53.6586V63.4879H56.1708V60.9756Z" fill="#000"/><path d="M58.6097 60.9756H56.0975V63.4879H58.6097V60.9756Z" fill="#000"/><path d="M61.0487 60.9756H58.5366V63.4879H61.0487V60.9756Z" fill="#000"/><path d="M65.9268 60.9756H63.4146V63.4879H65.9268V60.9756Z" fill="#000"/><path d="M70.8049 60.9756H68.2927V63.4879H70.8049V60.9756Z" fill="#000"/><path d="M75.683 60.9756H73.1708V63.4879H75.683V60.9756Z" fill="#000"/><path d="M78.122 60.9756H75.6097V63.4879H78.122V60.9756Z" fill="#000"/><path d="M80.561 60.9756H78.0488V63.4879H80.561V60.9756Z" fill="#000"/><path d="M83 60.9756H80.4878V63.4879H83V60.9756Z" fill="#000"/><path d="M85.439 60.9756H82.9268V63.4879H85.439V60.9756Z" fill="#000"/><path d="M92.7561 60.9756H90.2439V63.4879H92.7561V60.9756Z" fill="#000"/><path d="M95.1951 60.9756H92.6829V63.4879H95.1951V60.9756Z" fill="#000"/><path d="M7.39025 63.4146H4.87805V65.9268H7.39025V63.4146Z" fill="#000"/><path d="M14.7073 63.4146H12.1951V65.9268H14.7073V63.4146Z" fill="#000"/><path d="M17.1464 63.4146H14.6342V65.9268H17.1464V63.4146Z" fill="#000"/><path d="M22.0244 63.4146H19.5122V65.9268H22.0244V63.4146Z" fill="#000"/><path d="M29.3415 63.4146H26.8293V65.9268H29.3415V63.4146Z" fill="#000"/><path d="M31.7805 63.4146H29.2683V65.9268H31.7805V63.4146Z" fill="#000"/><path d="M39.0975 63.4146H36.5853V65.9268H39.0975V63.4146Z" fill="#000"/><path d="M41.5366 63.4146H39.0244V65.9268H41.5366V63.4146Z" fill="#000"/><path d="M43.9756 63.4146H41.4634V65.9268H43.9756V63.4146Z" fill="#000"/><path d="M46.4147 63.4146H43.9025V65.9268H46.4147V63.4146Z" fill="#000"/><path d="M53.7317 63.4146H51.2195V65.9268H53.7317V63.4146Z" fill="#000"/><path d="M61.0487 63.4146H58.5366V65.9268H61.0487V63.4146Z" fill="#000"/><path d="M63.4878 63.4146H60.9756V65.9268H63.4878V63.4146Z" fill="#000"/><path d="M68.3659 63.4146H65.8537V65.9268H68.3659V63.4146Z" fill="#000"/><path d="M70.8049 63.4146H68.2927V65.9268H70.8049V63.4146Z" fill="#000"/><path d="M78.122 63.4146H75.6097V65.9268H78.122V63.4146Z" fill="#000"/><path d="M80.561 63.4146H78.0488V65.9268H80.561V63.4146Z" fill="#000"/><path d="M83 63.4146H80.4878V65.9268H83V63.4146Z" fill="#000"/><path d="M85.439 63.4146H82.9268V65.9268H85.439V63.4146Z" fill="#000"/><path d="M90.3171 63.4146H87.8049V65.9268H90.3171V63.4146Z" fill="#000"/><path d="M92.7561 63.4146H90.2439V65.9268H92.7561V63.4146Z" fill="#000"/><path d="M95.1951 63.4146H92.6829V65.9268H95.1951V63.4146Z" fill="#000"/><path d="M7.39025 65.8536H4.87805V68.3658H7.39025V65.8536Z" fill="#000"/><path d="M9.82928 65.8536H7.31708V68.3658H9.82928V65.8536Z" fill="#000"/><path d="M12.2683 65.8536H9.7561V68.3658H12.2683V65.8536Z" fill="#000"/><path d="M17.1464 65.8536H14.6342V68.3658H17.1464V65.8536Z" fill="#000"/><path d="M24.4634 65.8536H21.9512V68.3658H24.4634V65.8536Z" fill="#000"/><path d="M29.3415 65.8536H26.8293V68.3658H29.3415V65.8536Z" fill="#000"/><path d="M34.2195 65.8536H31.7073V68.3658H34.2195V65.8536Z" fill="#000"/><path d="M43.9756 65.8536H41.4634V68.3658H43.9756V65.8536Z" fill="#000"/><path d="M48.8537 65.8536H46.3415V68.3658H48.8537V65.8536Z" fill="#000"/><path d="M51.2927 65.8536H48.7805V68.3658H51.2927V65.8536Z" fill="#000"/><path d="M53.7317 65.8536H51.2195V68.3658H53.7317V65.8536Z" fill="#000"/><path d="M56.1708 65.8536H53.6586V68.3658H56.1708V65.8536Z" fill="#000"/><path d="M63.4878 65.8536H60.9756V68.3658H63.4878V65.8536Z" fill="#000"/><path d="M68.3659 65.8536H65.8537V68.3658H68.3659V65.8536Z" fill="#000"/><path d="M70.8049 65.8536H68.2927V68.3658H70.8049V65.8536Z" fill="#000"/><path d="M75.683 65.8536H73.1708V68.3658H75.683V65.8536Z" fill="#000"/><path d="M83 65.8536H80.4878V68.3658H83V65.8536Z" fill="#000"/><path d="M90.3171 65.8536H87.8049V68.3658H90.3171V65.8536Z" fill="#000"/><path d="M7.39025 68.2927H4.87805V70.8049H7.39025V68.2927Z" fill="#000"/><path d="M14.7073 68.2927H12.1951V70.8049H14.7073V68.2927Z" fill="#000"/><path d="M17.1464 68.2927H14.6342V70.8049H17.1464V68.2927Z" fill="#000"/><path d="M19.5854 68.2927H17.0732V70.8049H19.5854V68.2927Z" fill="#000"/><path d="M22.0244 68.2927H19.5122V70.8049H22.0244V68.2927Z" fill="#000"/><path d="M24.4634 68.2927H21.9512V70.8049H24.4634V68.2927Z" fill="#000"/><path d="M26.9025 68.2927H24.3903V70.8049H26.9025V68.2927Z" fill="#000"/><path d="M29.3415 68.2927H26.8293V70.8049H29.3415V68.2927Z" fill="#000"/><path d="M36.6586 68.2927H34.1464V70.8049H36.6586V68.2927Z" fill="#000"/><path d="M41.5366 68.2927H39.0244V70.8049H41.5366V68.2927Z" fill="#000"/><path d="M43.9756 68.2927H41.4634V70.8049H43.9756V68.2927Z" fill="#000"/><path d="M46.4147 68.2927H43.9025V70.8049H46.4147V68.2927Z" fill="#000"/><path d="M48.8537 68.2927H46.3415V70.8049H48.8537V68.2927Z" fill="#000"/><path d="M56.1708 68.2927H53.6586V70.8049H56.1708V68.2927Z" fill="#000"/><path d="M58.6097 68.2927H56.0975V70.8049H58.6097V68.2927Z" fill="#000"/><path d="M61.0487 68.2927H58.5366V70.8049H61.0487V68.2927Z" fill="#000"/><path d="M65.9268 68.2927H63.4146V70.8049H65.9268V68.2927Z" fill="#000"/><path d="M68.3659 68.2927H65.8537V70.8049H68.3659V68.2927Z" fill="#000"/><path d="M70.8049 68.2927H68.2927V70.8049H70.8049V68.2927Z" fill="#000"/><path d="M73.2439 68.2927H70.7317V70.8049H73.2439V68.2927Z" fill="#000"/><path d="M78.122 68.2927H75.6097V70.8049H78.122V68.2927Z" fill="#000"/><path d="M83 68.2927H80.4878V70.8049H83V68.2927Z" fill="#000"/><path d="M87.8781 68.2927H85.3658V70.8049H87.8781V68.2927Z" fill="#000"/><path d="M92.7561 68.2927H90.2439V70.8049H92.7561V68.2927Z" fill="#000"/><path d="M95.1951 68.2927H92.6829V70.8049H95.1951V68.2927Z" fill="#000"/><path d="M7.39025 70.7317H4.87805V73.2439H7.39025V70.7317Z" fill="#000"/><path d="M14.7073 70.7317H12.1951V73.2439H14.7073V70.7317Z" fill="#000"/><path d="M26.9025 70.7317H24.3903V73.2439H26.9025V70.7317Z" fill="#000"/><path d="M29.3415 70.7317H26.8293V73.2439H29.3415V70.7317Z" fill="#000"/><path d="M31.7805 70.7317H29.2683V73.2439H31.7805V70.7317Z" fill="#000"/><path d="M36.6586 70.7317H34.1464V73.2439H36.6586V70.7317Z" fill="#000"/><path d="M39.0975 70.7317H36.5853V73.2439H39.0975V70.7317Z" fill="#000"/><path d="M41.5366 70.7317H39.0244V73.2439H41.5366V70.7317Z" fill="#000"/><path d="M43.9756 70.7317H41.4634V73.2439H43.9756V70.7317Z" fill="#000"/><path d="M58.6097 70.7317H56.0975V73.2439H58.6097V70.7317Z" fill="#000"/><path d="M61.0487 70.7317H58.5366V73.2439H61.0487V70.7317Z" fill="#000"/><path d="M63.4878 70.7317H60.9756V73.2439H63.4878V70.7317Z" fill="#000"/><path d="M70.8049 70.7317H68.2927V73.2439H70.8049V70.7317Z" fill="#000"/><path d="M73.2439 70.7317H70.7317V73.2439H73.2439V70.7317Z" fill="#000"/><path d="M75.683 70.7317H73.1708V73.2439H75.683V70.7317Z" fill="#000"/><path d="M78.122 70.7317H75.6097V73.2439H78.122V70.7317Z" fill="#000"/><path d="M80.561 70.7317H78.0488V73.2439H80.561V70.7317Z" fill="#000"/><path d="M83 70.7317H80.4878V73.2439H83V70.7317Z" fill="#000"/><path d="M87.8781 70.7317H85.3658V73.2439H87.8781V70.7317Z" fill="#000"/><path d="M7.39025 73.1707H4.87805V75.6829H7.39025V73.1707Z" fill="#000"/><path d="M14.7073 73.1707H12.1951V75.6829H14.7073V73.1707Z" fill="#000"/><path d="M19.5854 73.1707H17.0732V75.6829H19.5854V73.1707Z" fill="#000"/><path d="M22.0244 73.1707H19.5122V75.6829H22.0244V73.1707Z" fill="#000"/><path d="M26.9025 73.1707H24.3903V75.6829H26.9025V73.1707Z" fill="#000"/><path d="M31.7805 73.1707H29.2683V75.6829H31.7805V73.1707Z" fill="#000"/><path d="M34.2195 73.1707H31.7073V75.6829H34.2195V73.1707Z" fill="#000"/><path d="M41.5366 73.1707H39.0244V75.6829H41.5366V73.1707Z" fill="#000"/><path d="M43.9756 73.1707H41.4634V75.6829H43.9756V73.1707Z" fill="#000"/><path d="M46.4147 73.1707H43.9025V75.6829H46.4147V73.1707Z" fill="#000"/><path d="M48.8537 73.1707H46.3415V75.6829H48.8537V73.1707Z" fill="#000"/><path d="M61.0487 73.1707H58.5366V75.6829H61.0487V73.1707Z" fill="#000"/><path d="M65.9268 73.1707H63.4146V75.6829H65.9268V73.1707Z" fill="#000"/><path d="M68.3659 73.1707H65.8537V75.6829H68.3659V73.1707Z" fill="#000"/><path d="M70.8049 73.1707H68.2927V75.6829H70.8049V73.1707Z" fill="#000"/><path d="M73.2439 73.1707H70.7317V75.6829H73.2439V73.1707Z" fill="#000"/><path d="M75.683 73.1707H73.1708V75.6829H75.683V73.1707Z" fill="#000"/><path d="M78.122 73.1707H75.6097V75.6829H78.122V73.1707Z" fill="#000"/><path d="M80.561 73.1707H78.0488V75.6829H80.561V73.1707Z" fill="#000"/><path d="M83 73.1707H80.4878V75.6829H83V73.1707Z" fill="#000"/><path d="M85.439 73.1707H82.9268V75.6829H85.439V73.1707Z" fill="#000"/><path d="M87.8781 73.1707H85.3658V75.6829H87.8781V73.1707Z" fill="#000"/><path d="M90.3171 73.1707H87.8049V75.6829H90.3171V73.1707Z" fill="#000"/><path d="M92.7561 73.1707H90.2439V75.6829H92.7561V73.1707Z" fill="#000"/><path d="M26.9025 75.6097H24.3903V78.1219H26.9025V75.6097Z" fill="#000"/><path d="M29.3415 75.6097H26.8293V78.1219H29.3415V75.6097Z" fill="#000"/><path d="M31.7805 75.6097H29.2683V78.1219H31.7805V75.6097Z" fill="#000"/><path d="M34.2195 75.6097H31.7073V78.1219H34.2195V75.6097Z" fill="#000"/><path d="M41.5366 75.6097H39.0244V78.1219H41.5366V75.6097Z" fill="#000"/><path d="M46.4147 75.6097H43.9025V78.1219H46.4147V75.6097Z" fill="#000"/><path d="M53.7317 75.6097H51.2195V78.1219H53.7317V75.6097Z" fill="#000"/><path d="M56.1708 75.6097H53.6586V78.1219H56.1708V75.6097Z" fill="#000"/><path d="M63.4878 75.6097H60.9756V78.1219H63.4878V75.6097Z" fill="#000"/><path d="M73.2439 75.6097H70.7317V78.1219H73.2439V75.6097Z" fill="#000"/><path d="M75.683 75.6097H73.1708V78.1219H75.683V75.6097Z" fill="#000"/><path d="M85.439 75.6097H82.9268V78.1219H85.439V75.6097Z" fill="#000"/><path d="M87.8781 75.6097H85.3658V78.1219H87.8781V75.6097Z" fill="#000"/><path d="M29.3415 78.0488H26.8293V80.561H29.3415V78.0488Z" fill="#000"/><path d="M31.7805 78.0488H29.2683V80.561H31.7805V78.0488Z" fill="#000"/><path d="M34.2195 78.0488H31.7073V80.561H34.2195V78.0488Z" fill="#000"/><path d="M39.0975 78.0488H36.5853V80.561H39.0975V78.0488Z" fill="#000"/><path d="M41.5366 78.0488H39.0244V80.561H41.5366V78.0488Z" fill="#000"/><path d="M43.9756 78.0488H41.4634V80.561H43.9756V78.0488Z" fill="#000"/><path d="M46.4147 78.0488H43.9025V80.561H46.4147V78.0488Z" fill="#000"/><path d="M51.2927 78.0488H48.7805V80.561H51.2927V78.0488Z" fill="#000"/><path d="M58.6097 78.0488H56.0975V80.561H58.6097V78.0488Z" fill="#000"/><path d="M61.0487 78.0488H58.5366V80.561H61.0487V78.0488Z" fill="#000"/><path d="M65.9268 78.0488H63.4146V80.561H65.9268V78.0488Z" fill="#000"/><path d="M68.3659 78.0488H65.8537V80.561H68.3659V78.0488Z" fill="#000"/><path d="M75.683 78.0488H73.1708V80.561H75.683V78.0488Z" fill="#000"/><path d="M80.561 78.0488H78.0488V80.561H80.561V78.0488Z" fill="#000"/><path d="M85.439 78.0488H82.9268V80.561H85.439V78.0488Z" fill="#000"/><path d="M90.3171 78.0488H87.8049V80.561H90.3171V78.0488Z" fill="#000"/><path d="M92.7561 78.0488H90.2439V80.561H92.7561V78.0488Z" fill="#000"/><path d="M95.1951 78.0488H92.6829V80.561H95.1951V78.0488Z" fill="#000"/><path d="M26.9025 80.4878H24.3903V83H26.9025V80.4878Z" fill="#000"/><path d="M29.3415 80.4878H26.8293V83H29.3415V80.4878Z" fill="#000"/><path d="M31.7805 80.4878H29.2683V83H31.7805V80.4878Z" fill="#000"/><path d="M34.2195 80.4878H31.7073V83H34.2195V80.4878Z" fill="#000"/><path d="M41.5366 80.4878H39.0244V83H41.5366V80.4878Z" fill="#000"/><path d="M46.4147 80.4878H43.9025V83H46.4147V80.4878Z" fill="#000"/><path d="M53.7317 80.4878H51.2195V83H53.7317V80.4878Z" fill="#000"/><path d="M58.6097 80.4878H56.0975V83H58.6097V80.4878Z" fill="#000"/><path d="M61.0487 80.4878H58.5366V83H61.0487V80.4878Z" fill="#000"/><path d="M63.4878 80.4878H60.9756V83H63.4878V80.4878Z" fill="#000"/><path d="M70.8049 80.4878H68.2927V83H70.8049V80.4878Z" fill="#000"/><path d="M73.2439 80.4878H70.7317V83H73.2439V80.4878Z" fill="#000"/><path d="M75.683 80.4878H73.1708V83H75.683V80.4878Z" fill="#000"/><path d="M85.439 80.4878H82.9268V83H85.439V80.4878Z" fill="#000"/><path d="M87.8781 80.4878H85.3658V83H87.8781V80.4878Z" fill="#000"/><path d="M92.7561 80.4878H90.2439V83H92.7561V80.4878Z" fill="#000"/><path d="M26.9025 82.9268H24.3903V85.439H26.9025V82.9268Z" fill="#000"/><path d="M34.2195 82.9268H31.7073V85.439H34.2195V82.9268Z" fill="#000"/><path d="M39.0975 82.9268H36.5853V85.439H39.0975V82.9268Z" fill="#000"/><path d="M41.5366 82.9268H39.0244V85.439H41.5366V82.9268Z" fill="#000"/><path d="M51.2927 82.9268H48.7805V85.439H51.2927V82.9268Z" fill="#000"/><path d="M61.0487 82.9268H58.5366V85.439H61.0487V82.9268Z" fill="#000"/><path d="M65.9268 82.9268H63.4146V85.439H65.9268V82.9268Z" fill="#000"/><path d="M68.3659 82.9268H65.8537V85.439H68.3659V82.9268Z" fill="#000"/><path d="M70.8049 82.9268H68.2927V85.439H70.8049V82.9268Z" fill="#000"/><path d="M73.2439 82.9268H70.7317V85.439H73.2439V82.9268Z" fill="#000"/><path d="M75.683 82.9268H73.1708V85.439H75.683V82.9268Z" fill="#000"/><path d="M78.122 82.9268H75.6097V85.439H78.122V82.9268Z" fill="#000"/><path d="M80.561 82.9268H78.0488V85.439H80.561V82.9268Z" fill="#000"/><path d="M83 82.9268H80.4878V85.439H83V82.9268Z" fill="#000"/><path d="M85.439 82.9268H82.9268V85.439H85.439V82.9268Z" fill="#000"/><path d="M90.3171 82.9268H87.8049V85.439H90.3171V82.9268Z" fill="#000"/><path d="M95.1951 82.9268H92.6829V85.439H95.1951V82.9268Z" fill="#000"/><path d="M26.9025 85.3658H24.3903V87.8781H26.9025V85.3658Z" fill="#000"/><path d="M36.6586 85.3658H34.1464V87.8781H36.6586V85.3658Z" fill="#000"/><path d="M39.0975 85.3658H36.5853V87.8781H39.0975V85.3658Z" fill="#000"/><path d="M43.9756 85.3658H41.4634V87.8781H43.9756V85.3658Z" fill="#000"/><path d="M46.4147 85.3658H43.9025V87.8781H46.4147V85.3658Z" fill="#000"/><path d="M53.7317 85.3658H51.2195V87.8781H53.7317V85.3658Z" fill="#000"/><path d="M56.1708 85.3658H53.6586V87.8781H56.1708V85.3658Z" fill="#000"/><path d="M61.0487 85.3658H58.5366V87.8781H61.0487V85.3658Z" fill="#000"/><path d="M63.4878 85.3658H60.9756V87.8781H63.4878V85.3658Z" fill="#000"/><path d="M65.9268 85.3658H63.4146V87.8781H65.9268V85.3658Z" fill="#000"/><path d="M70.8049 85.3658H68.2927V87.8781H70.8049V85.3658Z" fill="#000"/><path d="M78.122 85.3658H75.6097V87.8781H78.122V85.3658Z" fill="#000"/><path d="M80.561 85.3658H78.0488V87.8781H80.561V85.3658Z" fill="#000"/><path d="M85.439 85.3658H82.9268V87.8781H85.439V85.3658Z" fill="#000"/><path d="M95.1951 85.3658H92.6829V87.8781H95.1951V85.3658Z" fill="#000"/><path d="M26.9025 87.8049H24.3903V90.3171H26.9025V87.8049Z" fill="#000"/><path d="M29.3415 87.8049H26.8293V90.3171H29.3415V87.8049Z" fill="#000"/><path d="M31.7805 87.8049H29.2683V90.3171H31.7805V87.8049Z" fill="#000"/><path d="M36.6586 87.8049H34.1464V90.3171H36.6586V87.8049Z" fill="#000"/><path d="M41.5366 87.8049H39.0244V90.3171H41.5366V87.8049Z" fill="#000"/><path d="M48.8537 87.8049H46.3415V90.3171H48.8537V87.8049Z" fill="#000"/><path d="M51.2927 87.8049H48.7805V90.3171H51.2927V87.8049Z" fill="#000"/><path d="M61.0487 87.8049H58.5366V90.3171H61.0487V87.8049Z" fill="#000"/><path d="M68.3659 87.8049H65.8537V90.3171H68.3659V87.8049Z" fill="#000"/><path d="M70.8049 87.8049H68.2927V90.3171H70.8049V87.8049Z" fill="#000"/><path d="M87.8781 87.8049H85.3658V90.3171H87.8781V87.8049Z" fill="#000"/><path d="M90.3171 87.8049H87.8049V90.3171H90.3171V87.8049Z" fill="#000"/><path d="M92.7561 87.8049H90.2439V90.3171H92.7561V87.8049Z" fill="#000"/><path d="M95.1951 87.8049H92.6829V90.3171H95.1951V87.8049Z" fill="#000"/><path d="M46.4147 90.2439H43.9025V92.7561H46.4147V90.2439Z" fill="#000"/><path d="M58.6097 90.2439H56.0975V92.7561H58.6097V90.2439Z" fill="#000"/><path d="M61.0487 90.2439H58.5366V92.7561H61.0487V90.2439Z" fill="#000"/><path d="M63.4878 90.2439H60.9756V92.7561H63.4878V90.2439Z" fill="#000"/><path d="M65.9268 90.2439H63.4146V92.7561H65.9268V90.2439Z" fill="#000"/><path d="M73.2439 90.2439H70.7317V92.7561H73.2439V90.2439Z" fill="#000"/><path d="M75.683 90.2439H73.1708V92.7561H75.683V90.2439Z" fill="#000"/><path d="M78.122 90.2439H75.6097V92.7561H78.122V90.2439Z" fill="#000"/><path d="M80.561 90.2439H78.0488V92.7561H80.561V90.2439Z" fill="#000"/><path d="M85.439 90.2439H82.9268V92.7561H85.439V90.2439Z" fill="#000"/><path d="M95.1951 90.2439H92.6829V92.7561H95.1951V90.2439Z" fill="#000"/><path d="M26.9025 92.6829H24.3903V95.1951H26.9025V92.6829Z" fill="#000"/><path d="M29.3415 92.6829H26.8293V95.1951H29.3415V92.6829Z" fill="#000"/><path d="M31.7805 92.6829H29.2683V95.1951H31.7805V92.6829Z" fill="#000"/><path d="M36.6586 92.6829H34.1464V95.1951H36.6586V92.6829Z" fill="#000"/><path d="M39.0975 92.6829H36.5853V95.1951H39.0975V92.6829Z" fill="#000"/><path d="M48.8537 92.6829H46.3415V95.1951H48.8537V92.6829Z" fill="#000"/><path d="M58.6097 92.6829H56.0975V95.1951H58.6097V92.6829Z" fill="#000"/><path d="M61.0487 92.6829H58.5366V95.1951H61.0487V92.6829Z" fill="#000"/><path d="M65.9268 92.6829H63.4146V95.1951H65.9268V92.6829Z" fill="#000"/><path d="M68.3659 92.6829H65.8537V95.1951H68.3659V92.6829Z" fill="#000"/><path d="M70.8049 92.6829H68.2927V95.1951H70.8049V92.6829Z" fill="#000"/><path d="M78.122 92.6829H75.6097V95.1951H78.122V92.6829Z" fill="#000"/><path d="M80.561 92.6829H78.0488V95.1951H80.561V92.6829Z" fill="#000"/><path d="M85.439 92.6829H82.9268V95.1951H85.439V92.6829Z" fill="#000"/><path d="M90.3171 92.6829H87.8049V95.1951H90.3171V92.6829Z" fill="#000"/><path d="M92.7561 92.6829H90.2439V95.1951H92.7561V92.6829Z" fill="#000"/><path d="M95.1951 92.6829H92.6829V95.1951H95.1951V92.6829Z" fill="#000"/><path d="M4.87805 4.87805V21.9512H21.9512V4.87805H4.87805ZM19.5122 19.5122H7.31708V7.31708H19.5122V19.5122Z" fill="#000"/><path d="M78.0488 4.87805V21.9512H95.1219V4.87805H78.0488ZM92.6829 19.5122H80.4878V7.31708H92.6829V19.5122Z" fill="#000"/><path d="M4.87805 78.0488V95.1219H21.9512V78.0488H4.87805ZM19.5122 92.6829H7.31708V80.4878H19.5122V92.6829Z" fill="#000"/><path d="M17.0732 9.7561H9.7561V17.0732H17.0732V9.7561Z" fill="#000"/><path d="M90.2439 9.7561H82.9268V17.0732H90.2439V9.7561Z" fill="#000"/><path d="M17.0732 82.9268H9.7561V90.2439H17.0732V82.9268Z" fill="#000"/></svg>