<svg width="100" height="100" viewBox="0 0 100 100" fill="none" xmlns="http://www.w3.org/2000/svg"><path d="M100 0H0V100H100V0Z" fill="#fff"/><path d="M29.3415 4.87805H26.8293V7.39025H29.3415V4.87805Z" fill="#000"/><path d="M34.2195 4.87805H31.7073V7.39025H34.2195V4.87805Z" fill="#000"/><path d="M36.6586 4.87805H34.1464V7.39025H36.6586V4.87805Z" fill="#000"/><path d="M39.0976 4.87805H36.5854V7.39025H39.0976V4.87805Z" fill="#000"/><path d="M46.4147 4.87805H43.9025V7.39025H46.4147V4.87805Z" fill="#000"/><path d="M53.7317 4.87805H51.2195V7.39025H53.7317V4.87805Z" fill="#000"/><path d="M58.6098 4.87805H56.0975V7.39025H58.6098V4.87805Z" fill="#000"/><path d="M63.4878 4.87805H60.9756V7.39025H63.4878V4.87805Z" fill="#000"/><path d="M68.3658 4.87805H65.8536V7.39025H68.3658V4.87805Z" fill="#000"/><path d="M75.683 4.87805H73.1708V7.39025H75.683V4.87805Z" fill="#000"/><path d="M29.3415 7.31708H26.8293V9.82928H29.3415V7.31708Z" fill="#000"/><path d="M36.6586 7.31708H34.1464V9.82928H36.6586V7.31708Z" fill="#000"/><path d="M39.0976 7.31708H36.5854V9.82928H39.0976V7.31708Z" fill="#000"/><path d="M43.9756 7.31708H41.4634V9.82928H43.9756V7.31708Z" fill="#000"/><path d="M46.4147 7.31708H43.9025V9.82928H46.4147V7.31708Z" fill="#000"/><path d="M56.1708 7.31708H53.6586V9.82928H56.1708V7.31708Z" fill="#000"/><path d="M68.3658 7.31708H65.8536V9.82928H68.3658V7.31708Z" fill="#000"/><path d="M70.805 7.31708H68.2927V9.82928H70.805V7.31708Z" fill="#000"/><path d="M73.2439 7.31708H70.7317V9.82928H73.2439V7.31708Z" fill="#000"/><path d="M75.683 7.31708H73.1708V9.82928H75.683V7.31708Z" fill="#000"/><path d="M26.9025 9.7561H24.3903V12.2683H26.9025V9.7561Z" fill="#000"/><path d="M29.3415 9.7561H26.8293V12.2683H29.3415V9.7561Z" fill="#000"/><path d="M43.9756 9.7561H41.4634V12.2683H43.9756V9.7561Z" fill="#000"/><path d="M51.2927 9.7561H48.7805V12.2683H51.2927V9.7561Z" fill="#000"/><path d="M56.1708 9.7561H53.6586V12.2683H56.1708V9.7561Z" fill="#000"/><path d="M58.6098 9.7561H56.0975V12.2683H58.6098V9.7561Z" fill="#000"/><path d="M63.4878 9.7561H60.9756V12.2683H63.4878V9.7561Z" fill="#000"/><path d="M73.2439 9.7561H70.7317V12.2683H73.2439V9.7561Z" fill="#000"/><path d="M75.683 9.7561H73.1708V12.2683H75.683V9.7561Z" fill="#000"/><path d="M26.9025 12.1951H24.3903V14.7073H26.9025V12.1951Z" fill="#000"/><path d="M31.7805 12.1951H29.2683V14.7073H31.7805V12.1951Z" fill="#000"/><path d="M34.2195 12.1951H31.7073V14.7073H34.2195V12.1951Z" fill="#000"/><path d="M36.6586 12.1951H34.1464V14.7073H36.6586V12.1951Z" fill="#000"/><path d="M43.9756 12.1951H41.4634V14.7073H43.9756V12.1951Z" fill="#000"/><path d="M46.4147 12.1951H43.9025V14.7073H46.4147V12.1951Z" fill="#000"/><path d="M48.8537 12.1951H46.3415V14.7073H48.8537V12.1951Z" fill="#000"/><path d="M53.7317 12.1951H51.2195V14.7073H53.7317V12.1951Z" fill="#000"/><path d="M56.1708 12.1951H53.6586V14.7073H56.1708V12.1951Z" fill="#000"/><path d="M61.0488 12.1951H58.5366V14.7073H61.0488V12.1951Z" fill="#000"/><path d="M63.4878 12.1951H60.9756V14.7073H63.4878V12.1951Z" fill="#000"/><path d="M68.3658 12.1951H65.8536V14.7073H68.3658V12.1951Z" fill="#000"/><path d="M70.805 12.1951H68.2927V14.7073H70.805V12.1951Z" fill="#000"/><path d="M26.9025 14.6342H24.3903V17.1463H26.9025V14.6342Z" fill="#000"/><path d="M29.3415 14.6342H26.8293V17.1463H29.3415V14.6342Z" fill="#000"/><path d="M31.7805 14.6342H29.2683V17.1463H31.7805V14.6342Z" fill="#000"/><path d="M34.2195 14.6342H31.7073V17.1463H34.2195V14.6342Z" fill="#000"/><path d="M36.6586 14.6342H34.1464V17.1463H36.6586V14.6342Z" fill="#000"/><path d="M39.0976 14.6342H36.5854V17.1463H39.0976V14.6342Z" fill="#000"/><path d="M43.9756 14.6342H41.4634V17.1463H43.9756V14.6342Z" fill="#000"/><path d="M46.4147 14.6342H43.9025V17.1463H46.4147V14.6342Z" fill="#000"/><path d="M51.2927 14.6342H48.7805V17.1463H51.2927V14.6342Z" fill="#000"/><path d="M53.7317 14.6342H51.2195V17.1463H53.7317V14.6342Z" fill="#000"/><path d="M56.1708 14.6342H53.6586V17.1463H56.1708V14.6342Z" fill="#000"/><path d="M58.6098 14.6342H56.0975V17.1463H58.6098V14.6342Z" fill="#000"/><path d="M63.4878 14.6342H60.9756V17.1463H63.4878V14.6342Z" fill="#000"/><path d="M68.3658 14.6342H65.8536V17.1463H68.3658V14.6342Z" fill="#000"/><path d="M75.683 14.6342H73.1708V17.1463H75.683V14.6342Z" fill="#000"/><path d="M26.9025 17.0732H24.3903V19.5854H26.9025V17.0732Z" fill="#000"/><path d="M34.2195 17.0732H31.7073V19.5854H34.2195V17.0732Z" fill="#000"/><path d="M36.6586 17.0732H34.1464V19.5854H36.6586V17.0732Z" fill="#000"/><path d="M41.5366 17.0732H39.0244V19.5854H41.5366V17.0732Z" fill="#000"/><path d="M43.9756 17.0732H41.4634V19.5854H43.9756V17.0732Z" fill="#000"/><path d="M46.4147 17.0732H43.9025V19.5854H46.4147V17.0732Z" fill="#000"/><path d="M48.8537 17.0732H46.3415V19.5854H48.8537V17.0732Z" fill="#000"/><path d="M51.2927 17.0732H48.7805V19.5854H51.2927V17.0732Z" fill="#000"/><path d="M56.1708 17.0732H53.6586V19.5854H56.1708V17.0732Z" fill="#000"/><path d="M65.9268 17.0732H63.4147V19.5854H65.9268V17.0732Z" fill="#000"/><path d="M70.805 17.0732H68.2927V19.5854H70.805V17.0732Z" fill="#000"/><path d="M73.2439 17.0732H70.7317V19.5854H73.2439V17.0732Z" fill="#000"/><path d="M75.683 17.0732H73.1708V19.5854H75.683V17.0732Z" fill="#000"/><path d="M26.9025 19.5122H24.3903V22.0244H26.9025V19.5122Z" fill="#000"/><path d="M31.7805 19.5122H29.2683V22.0244H31.7805V19.5122Z" fill="#000"/><path d="M36.6586 19.5122H34.1464V22.0244H36.6586V19.5122Z" fill="#000"/><path d="M41.5366 19.5122H39.0244V22.0244H41.5366V19.5122Z" fill="#000"/><path d="M46.4147 19.5122H43.9025V22.0244H46.4147V19.5122Z" fill="#000"/><path d="M51.2927 19.5122H48.7805V22.0244H51.2927V19.5122Z" fill="#000"/><path d="M56.1708 19.5122H53.6586V22.0244H56.1708V19.5122Z" fill="#000"/><path d="M61.0488 19.5122H58.5366V22.0244H61.0488V19.5122Z" fill="#000"/><path d="M65.9268 19.5122H63.4147V22.0244H65.9268V19.5122Z" fill="#000"/><path d="M70.805 19.5122H68.2927V22.0244H70.805V19.5122Z" fill="#000"/><path d="M75.683 19.5122H73.1708V22.0244H75.683V19.5122Z" fill="#000"/><path d="M26.9025 21.9512H24.3903V24.4634H26.9025V21.9512Z" fill="#000"/><path d="M34.2195 21.9512H31.7073V24.4634H34.2195V21.9512Z" fill="#000"/><path d="M51.2927 21.9512H48.7805V24.4634H51.2927V21.9512Z" fill="#000"/><path d="M56.1708 21.9512H53.6586V24.4634H56.1708V21.9512Z" fill="#000"/><path d="M58.6098 21.9512H56.0975V24.4634H58.6098V21.9512Z" fill="#000"/><path d="M61.0488 21.9512H58.5366V24.4634H61.0488V21.9512Z" fill="#000"/><path d="M65.9268 21.9512H63.4147V24.4634H65.9268V21.9512Z" fill="#000"/><path d="M70.805 21.9512H68.2927V24.4634H70.805V21.9512Z" fill="#000"/><path d="M75.683 21.9512H73.1708V24.4634H75.683V21.9512Z" fill="#000"/><path d="M7.39025 24.3903H4.87805V26.9025H7.39025V24.3903Z" fill="#000"/><path d="M12.2683 24.3903H9.7561V26.9025H12.2683V24.3903Z" fill="#000"/><path d="M14.7073 24.3903H12.1951V26.9025H14.7073V24.3903Z" fill="#000"/><path d="M17.1463 24.3903H14.6342V26.9025H17.1463V24.3903Z" fill="#000"/><path d="M19.5854 24.3903H17.0732V26.9025H19.5854V24.3903Z" fill="#000"/><path d="M22.0244 24.3903H19.5122V26.9025H22.0244V24.3903Z" fill="#000"/><path d="M34.2195 24.3903H31.7073V26.9025H34.2195V24.3903Z" fill="#000"/><path d="M51.2927 24.3903H48.7805V26.9025H51.2927V24.3903Z" fill="#000"/><path d="M56.1708 24.3903H53.6586V26.9025H56.1708V24.3903Z" fill="#000"/><path d="M61.0488 24.3903H58.5366V26.9025H61.0488V24.3903Z" fill="#000"/><path d="M68.3658 24.3903H65.8536V26.9025H68.3658V24.3903Z" fill="#000"/><path d="M70.805 24.3903H68.2927V26.9025H70.805V24.3903Z" fill="#000"/><path d="M75.683 24.3903H73.1708V26.9025H75.683V24.3903Z" fill="#000"/><path d="M80.561 24.3903H78.0488V26.9025H80.561V24.3903Z" fill="#000"/><path d="M83 24.3903H80.4878V26.9025H83V24.3903Z" fill="#000"/><path d="M85.439 24.3903H82.9269V26.9025H85.439V24.3903Z" fill="#000"/><path d="M87.8781 24.3903H85.3658V26.9025H87.8781V24.3903Z" fill="#000"/><path d="M90.3172 24.3903H87.8049V26.9025H90.3172V24.3903Z" fill="#000"/><path d="M9.82928 26.8293H7.31708V29.3415H9.82928V26.8293Z" fill="#000"/><path d="M14.7073 26.8293H12.1951V29.3415H14.7073V26.8293Z" fill="#000"/><path d="M26.9025 26.8293H24.3903V29.3415H26.9025V26.8293Z" fill="#000"/><path d="M29.3415 26.8293H26.8293V29.3415H29.3415V26.8293Z" fill="#000"/><path d="M31.7805 26.8293H29.2683V29.3415H31.7805V26.8293Z" fill="#000"/><path d="M34.2195 26.8293H31.7073V29.3415H34.2195V26.8293Z" fill="#000"/><path d="M36.6586 26.8293H34.1464V29.3415H36.6586V26.8293Z" fill="#000"/><path d="M41.5366 26.8293H39.0244V29.3415H41.5366V26.8293Z" fill="#000"/><path d="M43.9756 26.8293H41.4634V29.3415H43.9756V26.8293Z" fill="#000"/><path d="M46.4147 26.8293H43.9025V29.3415H46.4147V26.8293Z" fill="#000"/><path d="M48.8537 26.8293H46.3415V29.3415H48.8537V26.8293Z" fill="#000"/><path d="M51.2927 26.8293H48.7805V29.3415H51.2927V26.8293Z" fill="#000"/><path d="M53.7317 26.8293H51.2195V29.3415H53.7317V26.8293Z" fill="#000"/><path d="M83 26.8293H80.4878V29.3415H83V26.8293Z" fill="#000"/><path d="M92.7561 26.8293H90.2439V29.3415H92.7561V26.8293Z" fill="#000"/><path d="M9.82928 29.2683H7.31708V31.7805H9.82928V29.2683Z" fill="#000"/><path d="M12.2683 29.2683H9.7561V31.7805H12.2683V29.2683Z" fill="#000"/><path d="M19.5854 29.2683H17.0732V31.7805H19.5854V29.2683Z" fill="#000"/><path d="M22.0244 29.2683H19.5122V31.7805H22.0244V29.2683Z" fill="#000"/><path d="M26.9025 29.2683H24.3903V31.7805H26.9025V29.2683Z" fill="#000"/><path d="M31.7805 29.2683H29.2683V31.7805H31.7805V29.2683Z" fill="#000"/><path d="M34.2195 29.2683H31.7073V31.7805H34.2195V29.2683Z" fill="#000"/><path d="M41.5366 29.2683H39.0244V31.7805H41.5366V29.2683Z" fill="#000"/><path d="M61.0488 29.2683H58.5366V31.7805H61.0488V29.2683Z" fill="#000"/><path d="M70.805 29.2683H68.2927V31.7805H70.805V29.2683Z" fill="#000"/><path d="M73.2439 29.2683H70.7317V31.7805H73.2439V29.2683Z" fill="#000"/><path d="M75.683 29.2683H73.1708V31.7805H75.683V29.2683Z" fill="#000"/><path d="M78.122 29.2683H75.6097V31.7805H78.122V29.2683Z" fill="#000"/><path d="M80.561 29.2683H78.0488V31.7805H80.561V29.2683Z" fill="#000"/><path d="M83 29.2683H80.4878V31.7805H83V29.2683Z" fill="#000"/><path d="M85.439 29.2683H82.9269V31.7805H85.439V29.2683Z" fill="#000"/><path d="M92.7561 29.2683H90.2439V31.7805H92.7561V29.2683Z" fill="#000"/><path d="M95.1952 29.2683H92.683V31.7805H95.1952V29.2683Z" fill="#000"/><path d="M7.39025 31.7073H4.87805V34.2195H7.39025V31.7073Z" fill="#000"/><path d="M9.82928 31.7073H7.31708V34.2195H9.82928V31.7073Z" fill="#000"/><path d="M12.2683 31.7073H9.7561V34.2195H12.2683V31.7073Z" fill="#000"/><path d="M14.7073 31.7073H12.1951V34.2195H14.7073V31.7073Z" fill="#000"/><path d="M19.5854 31.7073H17.0732V34.2195H19.5854V31.7073Z" fill="#000"/><path d="M26.9025 31.7073H24.3903V34.2195H26.9025V31.7073Z" fill="#000"/><path d="M29.3415 31.7073H26.8293V34.2195H29.3415V31.7073Z" fill="#000"/><path d="M34.2195 31.7073H31.7073V34.2195H34.2195V31.7073Z" fill="#000"/><path d="M39.0976 31.7073H36.5854V34.2195H39.0976V31.7073Z" fill="#000"/><path d="M46.4147 31.7073H43.9025V34.2195H46.4147V31.7073Z" fill="#000"/><path d="M53.7317 31.7073H51.2195V34.2195H53.7317V31.7073Z" fill="#000"/><path d="M56.1708 31.7073H53.6586V34.2195H56.1708V31.7073Z" fill="#000"/><path d="M58.6098 31.7073H56.0975V34.2195H58.6098V31.7073Z" fill="#000"/><path d="M61.0488 31.7073H58.5366V34.2195H61.0488V31.7073Z" fill="#000"/><path d="M73.2439 31.7073H70.7317V34.2195H73.2439V31.7073Z" fill="#000"/><path d="M75.683 31.7073H73.1708V34.2195H75.683V31.7073Z" fill="#000"/><path d="M80.561 31.7073H78.0488V34.2195H80.561V31.7073Z" fill="#000"/><path d="M83 31.7073H80.4878V34.2195H83V31.7073Z" fill="#000"/><path d="M85.439 31.7073H82.9269V34.2195H85.439V31.7073Z" fill="#000"/><path d="M95.1952 31.7073H92.683V34.2195H95.1952V31.7073Z" fill="#000"/><path d="M7.39025 34.1464H4.87805V36.6586H7.39025V34.1464Z" fill="#000"/><path d="M12.2683 34.1464H9.7561V36.6586H12.2683V34.1464Z" fill="#000"/><path d="M14.7073 34.1464H12.1951V36.6586H14.7073V34.1464Z" fill="#000"/><path d="M22.0244 34.1464H19.5122V36.6586H22.0244V34.1464Z" fill="#000"/><path d="M34.2195 34.1464H31.7073V36.6586H34.2195V34.1464Z" fill="#000"/><path d="M36.6586 34.1464H34.1464V36.6586H36.6586V34.1464Z" fill="#000"/><path d="M53.7317 34.1464H51.2195V36.6586H53.7317V34.1464Z" fill="#000"/><path d="M56.1708 34.1464H53.6586V36.6586H56.1708V34.1464Z" fill="#000"/><path d="M61.0488 34.1464H58.5366V36.6586H61.0488V34.1464Z" fill="#000"/><path d="M63.4878 34.1464H60.9756V36.6586H63.4878V34.1464Z" fill="#000"/><path d="M68.3658 34.1464H65.8536V36.6586H68.3658V34.1464Z" fill="#000"/><path d="M70.805 34.1464H68.2927V36.6586H70.805V34.1464Z" fill="#000"/><path d="M80.561 34.1464H78.0488V36.6586H80.561V34.1464Z" fill="#000"/><path d="M83 34.1464H80.4878V36.6586H83V34.1464Z" fill="#000"/><path d="M85.439 34.1464H82.9269V36.6586H85.439V34.1464Z" fill="#000"/><path d="M87.8781 34.1464H85.3658V36.6586H87.8781V34.1464Z" fill="#000"/><path d="M90.3172 34.1464H87.8049V36.6586H90.3172V34.1464Z" fill="#000"/><path d="M92.7561 34.1464H90.2439V36.6586H92.7561V34.1464Z" fill="#000"/><path d="M95.1952 34.1464H92.683V36.6586H95.1952V34.1464Z" fill="#000"/><path d="M7.39025 36.5854H4.87805V39.0976H7.39025V36.5854Z" fill="#000"/><path d="M17.1463 36.5854H14.6342V39.0976H17.1463V36.5854Z" fill="#000"/><path d="M26.9025 36.5854H24.3903V39.0976H26.9025V36.5854Z" fill="#000"/><path d="M39.0976 36.5854H36.5854V39.0976H39.0976V36.5854Z" fill="#000"/><path d="M46.4147 36.5854H43.9025V39.0976H46.4147V36.5854Z" fill="#000"/><path d="M48.8537 36.5854H46.3415V39.0976H48.8537V36.5854Z" fill="#000"/><path d="M53.7317 36.5854H51.2195V39.0976H53.7317V36.5854Z" fill="#000"/><path d="M56.1708 36.5854H53.6586V39.0976H56.1708V36.5854Z" fill="#000"/><path d="M58.6098 36.5854H56.0975V39.0976H58.6098V36.5854Z" fill="#000"/><path d="M75.683 36.5854H73.1708V39.0976H75.683V36.5854Z" fill="#000"/><path d="M83 36.5854H80.4878V39.0976H83V36.5854Z" fill="#000"/><path d="M14.7073 39.0244H12.1951V41.5366H14.7073V39.0244Z" fill="#000"/><path d="M17.1463 39.0244H14.6342V41.5366H17.1463V39.0244Z" fill="#000"/><path d="M19.5854 39.0244H17.0732V41.5366H19.5854V39.0244Z" fill="#000"/><path d="M22.0244 39.0244H19.5122V41.5366H22.0244V39.0244Z" fill="#000"/><path d="M29.3415 39.0244H26.8293V41.5366H29.3415V39.0244Z" fill="#000"/><path d="M31.7805 39.0244H29.2683V41.5366H31.7805V39.0244Z" fill="#000"/><path d="M36.6586 39.0244H34.1464V41.5366H36.6586V39.0244Z" fill="#000"/><path d="M43.9756 39.0244H41.4634V41.5366H43.9756V39.0244Z" fill="#000"/><path d="M46.4147 39.0244H43.9025V41.5366H46.4147V39.0244Z" fill="#000"/><path d="M48.8537 39.0244H46.3415V41.5366H48.8537V39.0244Z" fill="#000"/><path d="M56.1708 39.0244H53.6586V41.5366H56.1708V39.0244Z" fill="#000"/><path d="M58.6098 39.0244H56.0975V41.5366H58.6098V39.0244Z" fill="#000"/><path d="M65.9268 39.0244H63.4147V41.5366H65.9268V39.0244Z" fill="#000"/><path d="M70.805 39.0244H68.2927V41.5366H70.805V39.0244Z" fill="#000"/><path d="M73.2439 39.0244H70.7317V41.5366H73.2439V39.0244Z" fill="#000"/><path d="M75.683 39.0244H73.1708V41.5366H75.683V39.0244Z" fill="#000"/><path d="M78.122 39.0244H75.6097V41.5366H78.122V39.0244Z" fill="#000"/><path d="M83 39.0244H80.4878V41.5366H83V39.0244Z" fill="#000"/><path d="M85.439 39.0244H82.9269V41.5366H85.439V39.0244Z" fill="#000"/><path d="M87.8781 39.0244H85.3658V41.5366H87.8781V39.0244Z" fill="#000"/><path d="M92.7561 39.0244H90.2439V41.5366H92.7561V39.0244Z" fill="#000"/><path d="M95.1952 39.0244H92.683V41.5366H95.1952V39.0244Z" fill="#000"/><path d="M12.2683 41.4634H9.7561V43.9756H12.2683V41.4634Z" fill="#000"/><path d="M14.7073 41.4634H12.1951V43.9756H14.7073V41.4634Z" fill="#000"/><path d="M19.5854 41.4634H17.0732V43.9756H19.5854V41.4634Z" fill="#000"/><path d="M24.4634 41.4634H21.9512V43.9756H24.4634V41.4634Z" fill="#000"/><path d="M26.9025 41.4634H24.3903V43.9756H26.9025V41.4634Z" fill="#000"/><path d="M29.3415 41.4634H26.8293V43.9756H29.3415V41.4634Z" fill="#000"/><path d="M34.2195 41.4634H31.7073V43.9756H34.2195V41.4634Z" fill="#000"/><path d="M41.5366 41.4634H39.0244V43.9756H41.5366V41.4634Z" fill="#000"/><path d="M48.8537 41.4634H46.3415V43.9756H48.8537V41.4634Z" fill="#000"/><path d="M51.2927 41.4634H48.7805V43.9756H51.2927V41.4634Z" fill="#000"/><path d="M53.7317 41.4634H51.2195V43.9756H53.7317V41.4634Z" fill="#000"/><path d="M56.1708 41.4634H53.6586V43.9756H56.1708V41.4634Z" fill="#000"/><path d="M58.6098 41.4634H56.0975V43.9756H58.6098V41.4634Z" fill="#000"/><path d="M61.0488 41.4634H58.5366V43.9756H61.0488V41.4634Z" fill="#000"/><path d="M63.4878 41.4634H60.9756V43.9756H63.4878V41.4634Z" fill="#000"/><path d="M65.9268 41.4634H63.4147V43.9756H65.9268V41.4634Z" fill="#000"/><path d="M70.805 41.4634H68.2927V43.9756H70.805V41.4634Z" fill="#000"/><path d="M73.2439 41.4634H70.7317V43.9756H73.2439V41.4634Z" fill="#000"/><path d="M75.683 41.4634H73.1708V43.9756H75.683V41.4634Z" fill="#000"/><path d="M78.122 41.4634H75.6097V43.9756H78.122V41.4634Z" fill="#000"/><path d="M80.561 41.4634H78.0488V43.9756H80.561V41.4634Z" fill="#000"/><path d="M83 41.4634H80.4878V43.9756H83V41.4634Z" fill="#000"/><path d="M85.439 41.4634H82.9269V43.9756H85.439V41.4634Z" fill="#000"/><path d="M95.1952 41.4634H92.683V43.9756H95.1952V41.4634Z" fill="#000"/><path d="M7.39025 43.9024H4.87805V46.4146H7.39025V43.9024Z" fill="#000"/><path d="M14.7073 43.9024H12.1951V46.4146H14.7073V43.9024Z" fill="#000"/><path d="M17.1463 43.9024H14.6342V46.4146H17.1463V43.9024Z" fill="#000"/><path d="M19.5854 43.9024H17.0732V46.4146H19.5854V43.9024Z" fill="#000"/><path d="M22.0244 43.9024H19.5122V46.4146H22.0244V43.9024Z" fill="#000"/><path d="M29.3415 43.9024H26.8293V46.4146H29.3415V43.9024Z" fill="#000"/><path d="M31.7805 43.9024H29.2683V46.4146H31.7805V43.9024Z" fill="#000"/><path d="M39.0976 43.9024H36.5854V46.4146H39.0976V43.9024Z" fill="#000"/><path d="M43.9756 43.9024H41.4634V46.4146H43.9756V43.9024Z" fill="#000"/><path d="M46.4147 43.9024H43.9025V46.4146H46.4147V43.9024Z" fill="#000"/><path d="M53.7317 43.9024H51.2195V46.4146H53.7317V43.9024Z" fill="#000"/><path d="M61.0488 43.9024H58.5366V46.4146H61.0488V43.9024Z" fill="#000"/><path d="M65.9268 43.9024H63.4147V46.4146H65.9268V43.9024Z" fill="#000"/><path d="M68.3658 43.9024H65.8536V46.4146H68.3658V43.9024Z" fill="#000"/><path d="M70.805 43.9024H68.2927V46.4146H70.805V43.9024Z" fill="#000"/><path d="M78.122 43.9024H75.6097V46.4146H78.122V43.9024Z" fill="#000"/><path d="M80.561 43.9024H78.0488V46.4146H80.561V43.9024Z" fill="#000"/><path d="M83 43.9024H80.4878V46.4146H83V43.9024Z" fill="#000"/><path d="M90.3172 43.9024H87.8049V46.4146H90.3172V43.9024Z" fill="#000"/><path d="M92.7561 43.9024H90.2439V46.4146H92.7561V43.9024Z" fill="#000"/><path d="M95.1952 43.9024H92.683V46.4146H95.1952V43.9024Z" fill="#000"/><path d="M12.2683 46.3415H9.7561V48.8537H12.2683V46.3415Z" fill="#000"/><path d="M24.4634 46.3415H21.9512V48.8537H24.4634V46.3415Z" fill="#000"/><path d="M26.9025 46.3415H24.3903V48.8537H26.9025V46.3415Z" fill="#000"/><path d="M34.2195 46.3415H31.7073V48.8537H34.2195V46.3415Z" fill="#000"/><path d="M39.0976 46.3415H36.5854V48.8537H39.0976V46.3415Z" fill="#000"/><path d="M43.9756 46.3415H41.4634V48.8537H43.9756V46.3415Z" fill="#000"/><path d="M48.8537 46.3415H46.3415V48.8537H48.8537V46.3415Z" fill="#000"/><path d="M51.2927 46.3415H48.7805V48.8537H51.2927V46.3415Z" fill="#000"/><path d="M53.7317 46.3415H51.2195V48.8537H53.7317V46.3415Z" fill="#000"/><path d="M56.1708 46.3415H53.6586V48.8537H56.1708V46.3415Z" fill="#000"/><path d="M63.4878 46.3415H60.9756V48.8537H63.4878V46.3415Z" fill="#000"/><path d="M68.3658 46.3415H65.8536V48.8537H68.3658V46.3415Z" fill="#000"/><path d="M70.805 46.3415H68.2927V48.8537H70.805V46.3415Z" fill="#000"/><path d="M75.683 46.3415H73.1708V48.8537H75.683V46.3415Z" fill="#000"/><path d="M83 46.3415H80.4878V48.8537H83V46.3415Z" fill="#000"/><path d="M90.3172 46.3415H87.8049V48.8537H90.3172V46.3415Z" fill="#000"/><path d="M92.7561 46.3415H90.2439V48.8537H92.7561V46.3415Z" fill="#000"/><path d="M7.39025 48.7805H4.87805V51.2926H7.39025V48.7805Z" fill="#000"/><path d="M9.82928 48.7805H7.31708V51.2926H9.82928V48.7805Z" fill="#000"/><path d="M14.7073 48.7805H12.1951V51.2926H14.7073V48.7805Z" fill="#000"/><path d="M22.0244 48.7805H19.5122V51.2926H22.0244V48.7805Z" fill="#000"/><path d="M26.9025 48.7805H24.3903V51.2926H26.9025V48.7805Z" fill="#000"/><path d="M29.3415 48.7805H26.8293V51.2926H29.3415V48.7805Z" fill="#000"/><path d="M31.7805 48.7805H29.2683V51.2926H31.7805V48.7805Z" fill="#000"/><path d="M39.0976 48.7805H36.5854V51.2926H39.0976V48.7805Z" fill="#000"/><path d="M41.5366 48.7805H39.0244V51.2926H41.5366V48.7805Z" fill="#000"/><path d="M43.9756 48.7805H41.4634V51.2926H43.9756V48.7805Z" fill="#000"/><path d="M46.4147 48.7805H43.9025V51.2926H46.4147V48.7805Z" fill="#000"/><path d="M48.8537 48.7805H46.3415V51.2926H48.8537V48.7805Z" fill="#000"/><path d="M56.1708 48.7805H53.6586V51.2926H56.1708V48.7805Z" fill="#000"/><path d="M58.6098 48.7805H56.0975V51.2926H58.6098V48.7805Z" fill="#000"/><path d="M61.0488 48.7805H58.5366V51.2926H61.0488V48.7805Z" fill="#000"/><path d="M65.9268 48.7805H63.4147V51.2926H65.9268V48.7805Z" fill="#000"/><path d="M73.2439 48.7805H70.7317V51.2926H73.2439V48.7805Z" fill="#000"/><path d="M75.683 48.7805H73.1708V51.2926H75.683V48.7805Z" fill="#000"/><path d="M78.122 48.7805H75.6097V51.2926H78.122V48.7805Z" fill="#000"/><path d="M83 48.7805H80.4878V51.2926H83V48.7805Z" fill="#000"/><path d="M87.8781 48.7805H85.3658V51.2926H87.8781V48.7805Z" fill="#000"/><path d="M92.7561 48.7805H90.2439V51.2926H92.7561V48.7805Z" fill="#000"/><path d="M95.1952 48.7805H92.683V51.2926H95.1952V48.7805Z" fill="#000"/><path d="M12.2683 51.2195H9.7561V53.7316H12.2683V51.2195Z" fill="#000"/><path d="M19.5854 51.2195H17.0732V53.7316H19.5854V51.2195Z" fill="#000"/><path d="M24.4634 51.2195H21.9512V53.7316H24.4634V51.2195Z" fill="#000"/><path d="M26.9025 51.2195H24.3903V53.7316H26.9025V51.2195Z" fill="#000"/><path d="M29.3415 51.2195H26.8293V53.7316H29.3415V51.2195Z" fill="#000"/><path d="M34.2195 51.2195H31.7073V53.7316H34.2195V51.2195Z" fill="#000"/><path d="M39.0976 51.2195H36.5854V53.7316H39.0976V51.2195Z" fill="#000"/><path d="M43.9756 51.2195H41.4634V53.7316H43.9756V51.2195Z" fill="#000"/><path d="M53.7317 51.2195H51.2195V53.7316H53.7317V51.2195Z" fill="#000"/><path d="M56.1708 51.2195H53.6586V53.7316H56.1708V51.2195Z" fill="#000"/><path d="M58.6098 51.2195H56.0975V53.7316H58.6098V51.2195Z" fill="#000"/><path d="M61.0488 51.2195H58.5366V53.7316H61.0488V51.2195Z" fill="#000"/><path d="M70.805 51.2195H68.2927V53.7316H70.805V51.2195Z" fill="#000"/><path d="M73.2439 51.2195H70.7317V53.7316H73.2439V51.2195Z" fill="#000"/><path d="M75.683 51.2195H73.1708V53.7316H75.683V51.2195Z" fill="#000"/><path d="M83 51.2195H80.4878V53.7316H83V51.2195Z" fill="#000"/><path d="M85.439 51.2195H82.9269V53.7316H85.439V51.2195Z" fill="#000"/><path d="M87.8781 51.2195H85.3658V53.7316H87.8781V51.2195Z" fill="#000"/><path d="M95.1952 51.2195H92.683V53.7316H95.1952V51.2195Z" fill="#000"/><path d="M9.82928 53.6585H7.31708V56.1707H9.82928V53.6585Z" fill="#000"/><path d="M12.2683 53.6585H9.7561V56.1707H12.2683V53.6585Z" fill="#000"/><path d="M19.5854 53.6585H17.0732V56.1707H19.5854V53.6585Z" fill="#000"/><path d="M22.0244 53.6585H19.5122V56.1707H22.0244V53.6585Z" fill="#000"/><path d="M29.3415 53.6585H26.8293V56.1707H29.3415V53.6585Z" fill="#000"/><path d="M31.7805 53.6585H29.2683V56.1707H31.7805V53.6585Z" fill="#000"/><path d="M34.2195 53.6585H31.7073V56.1707H34.2195V53.6585Z" fill="#000"/><path d="M41.5366 53.6585H39.0244V56.1707H41.5366V53.6585Z" fill="#000"/><path d="M43.9756 53.6585H41.4634V56.1707H43.9756V53.6585Z" fill="#000"/><path d="M48.8537 53.6585H46.3415V56.1707H48.8537V53.6585Z" fill="#000"/><path d="M56.1708 53.6585H53.6586V56.1707H56.1708V53.6585Z" fill="#000"/><path d="M61.0488 53.6585H58.5366V56.1707H61.0488V53.6585Z" fill="#000"/><path d="M70.805 53.6585H68.2927V56.1707H70.805V53.6585Z" fill="#000"/><path d="M73.2439 53.6585H70.7317V56.1707H73.2439V53.6585Z" fill="#000"/><path d="M78.122 53.6585H75.6097V56.1707H78.122V53.6585Z" fill="#000"/><path d="M80.561 53.6585H78.0488V56.1707H80.561V53.6585Z" fill="#000"/><path d="M85.439 53.6585H82.9269V56.1707H85.439V53.6585Z" fill="#000"/><path d="M87.8781 53.6585H85.3658V56.1707H87.8781V53.6585Z" fill="#000"/><path d="M90.3172 53.6585H87.8049V56.1707H90.3172V53.6585Z" fill="#000"/><path d="M14.7073 56.0976H12.1951V58.6098H14.7073V56.0976Z" fill="#000"/><path d="M17.1463 56.0976H14.6342V58.6098H17.1463V56.0976Z" fill="#000"/><path d="M24.4634 56.0976H21.9512V58.6098H24.4634V56.0976Z" fill="#000"/><path d="M26.9025 56.0976H24.3903V58.6098H26.9025V56.0976Z" fill="#000"/><path d="M36.6586 56.0976H34.1464V58.6098H36.6586V56.0976Z" fill="#000"/><path d="M41.5366 56.0976H39.0244V58.6098H41.5366V56.0976Z" fill="#000"/><path d="M46.4147 56.0976H43.9025V58.6098H46.4147V56.0976Z" fill="#000"/><path d="M53.7317 56.0976H51.2195V58.6098H53.7317V56.0976Z" fill="#000"/><path d="M63.4878 56.0976H60.9756V58.6098H63.4878V56.0976Z" fill="#000"/><path d="M70.805 56.0976H68.2927V58.6098H70.805V56.0976Z" fill="#000"/><path d="M73.2439 56.0976H70.7317V58.6098H73.2439V56.0976Z" fill="#000"/><path d="M75.683 56.0976H73.1708V58.6098H75.683V56.0976Z" fill="#000"/><path d="M87.8781 56.0976H85.3658V58.6098H87.8781V56.0976Z" fill="#000"/><path d="M92.7561 56.0976H90.2439V58.6098H92.7561V56.0976Z" fill="#000"/><path d="M7.39025 58.5366H4.87805V61.0487H7.39025V58.5366Z" fill="#000"/><path d="M9.82928 58.5366H7.31708V61.0487H9.82928V58.5366Z" fill="#000"/><path d="M12.2683 58.5366H9.7561V61.0487H12.2683V58.5366Z" fill="#000"/><path d="M17.1463 58.5366H14.6342V61.0487H17.1463V58.5366Z" fill="#000"/><path d="M19.5854 58.5366H17.0732V61.0487H19.5854V58.5366Z" fill="#000"/><path d="M22.0244 58.5366H19.5122V61.0487H22.0244V58.5366Z" fill="#000"/><path d="M26.9025 58.5366H24.3903V61.0487H26.9025V58.5366Z" fill="#000"/><path d="M34.2195 58.5366H31.7073V61.0487H34.2195V58.5366Z" fill="#000"/><path d="M39.0976 58.5366H36.5854V61.0487H39.0976V58.5366Z" fill="#000"/><path d="M41.5366 58.5366H39.0244V61.0487H41.5366V58.5366Z" fill="#000"/><path d="M43.9756 58.5366H41.4634V61.0487H43.9756V58.5366Z" fill="#000"/><path d="M51.2927 58.5366H48.7805V61.0487H51.2927V58.5366Z" fill="#000"/><path d="M58.6098 58.5366H56.0975V61.0487H58.6098V58.5366Z" fill="#000"/><path d="M61.0488 58.5366H58.5366V61.0487H61.0488V58.5366Z" fill="#000"/><path d="M68.3658 58.5366H65.8536V61.0487H68.3658V58.5366Z" fill="#000"/><path d="M73.2439 58.5366H70.7317V61.0487H73.2439V58.5366Z" fill="#000"/><path d="M75.683 58.5366H73.1708V61.0487H75.683V58.5366Z" fill="#000"/><path d="M78.122 58.5366H75.6097V61.0487H78.122V58.5366Z" fill="#000"/><path d="M80.561 58.5366H78.0488V61.0487H80.561V58.5366Z" fill="#000"/><path d="M83 58.5366H80.4878V61.0487H83V58.5366Z" fill="#000"/><path d="M85.439 58.5366H82.9269V61.0487H85.439V58.5366Z" fill="#000"/><path d="M87.8781 58.5366H85.3658V61.0487H87.8781V58.5366Z" fill="#000"/><path d="M92.7561 58.5366H90.2439V61.0487H92.7561V58.5366Z" fill="#000"/><path d="M95.1952 58.5366H92.683V61.0487H95.1952V58.5366Z" fill="#000"/><path d="M9.82928 60.9756H7.31708V63.4879H9.82928V60.9756Z" fill="#000"/><path d="M26.9025 60.9756H24.3903V63.4879H26.9025V60.9756Z" fill="#000"/><path d="M31.7805 60.9756H29.2683V63.4879H31.7805V60.9756Z" fill="#000"/><path d="M36.6586 60.9756H34.1464V63.4879H36.6586V60.9756Z" fill="#000"/><path d="M39.0976 60.9756H36.5854V63.4879H39.0976V60.9756Z" fill="#000"/><path d="M41.5366 60.9756H39.0244V63.4879H41.5366V60.9756Z" fill="#000"/><path d="M56.1708 60.9756H53.6586V63.4879H56.1708V60.9756Z" fill="#000"/><path d="M58.6098 60.9756H56.0975V63.4879H58.6098V60.9756Z" fill="#000"/><path d="M61.0488 60.9756H58.5366V63.4879H61.0488V60.9756Z" fill="#000"/><path d="M70.805 60.9756H68.2927V63.4879H70.805V60.9756Z" fill="#000"/><path d="M75.683 60.9756H73.1708V63.4879H75.683V60.9756Z" fill="#000"/><path d="M78.122 60.9756H75.6097V63.4879H78.122V60.9756Z" fill="#000"/><path d="M80.561 60.9756H78.0488V63.4879H80.561V60.9756Z" fill="#000"/><path d="M83 60.9756H80.4878V63.4879H83V60.9756Z" fill="#000"/><path d="M85.439 60.9756H82.9269V63.4879H85.439V60.9756Z" fill="#000"/><path d="M92.7561 60.9756H90.2439V63.4879H92.7561V60.9756Z" fill="#000"/><path d="M95.1952 60.9756H92.683V63.4879H95.1952V60.9756Z" fill="#000"/><path d="M9.82928 63.4147H7.31708V65.9268H9.82928V63.4147Z" fill="#000"/><path d="M12.2683 63.4147H9.7561V65.9268H12.2683V63.4147Z" fill="#000"/><path d="M14.7073 63.4147H12.1951V65.9268H14.7073V63.4147Z" fill="#000"/><path d="M17.1463 63.4147H14.6342V65.9268H17.1463V63.4147Z" fill="#000"/><path d="M22.0244 63.4147H19.5122V65.9268H22.0244V63.4147Z" fill="#000"/><path d="M26.9025 63.4147H24.3903V65.9268H26.9025V63.4147Z" fill="#000"/><path d="M29.3415 63.4147H26.8293V65.9268H29.3415V63.4147Z" fill="#000"/><path d="M31.7805 63.4147H29.2683V65.9268H31.7805V63.4147Z" fill="#000"/><path d="M36.6586 63.4147H34.1464V65.9268H36.6586V63.4147Z" fill="#000"/><path d="M41.5366 63.4147H39.0244V65.9268H41.5366V63.4147Z" fill="#000"/><path d="M43.9756 63.4147H41.4634V65.9268H43.9756V63.4147Z" fill="#000"/><path d="M51.2927 63.4147H48.7805V65.9268H51.2927V63.4147Z" fill="#000"/><path d="M61.0488 63.4147H58.5366V65.9268H61.0488V63.4147Z" fill="#000"/><path d="M68.3658 63.4147H65.8536V65.9268H68.3658V63.4147Z" fill="#000"/><path d="M70.805 63.4147H68.2927V65.9268H70.805V63.4147Z" fill="#000"/><path d="M75.683 63.4147H73.1708V65.9268H75.683V63.4147Z" fill="#000"/><path d="M78.122 63.4147H75.6097V65.9268H78.122V63.4147Z" fill="#000"/><path d="M80.561 63.4147H78.0488V65.9268H80.561V63.4147Z" fill="#000"/><path d="M85.439 63.4147H82.9269V65.9268H85.439V63.4147Z" fill="#000"/><path d="M90.3172 63.4147H87.8049V65.9268H90.3172V63.4147Z" fill="#000"/><path d="M92.7561 63.4147H90.2439V65.9268H92.7561V63.4147Z" fill="#000"/><path d="M7.39025 65.8536H4.87805V68.3658H7.39025V65.8536Z" fill="#000"/><path d="M19.5854 65.8536H17.0732V68.3658H19.5854V65.8536Z" fill="#000"/><path d="M24.4634 65.8536H21.9512V68.3658H24.4634V65.8536Z" fill="#000"/><path d="M26.9025 65.8536H24.3903V68.3658H26.9025V65.8536Z" fill="#000"/><path d="M36.6586 65.8536H34.1464V68.3658H36.6586V65.8536Z" fill="#000"/><path d="M41.5366 65.8536H39.0244V68.3658H41.5366V65.8536Z" fill="#000"/><path d="M43.9756 65.8536H41.4634V68.3658H43.9756V65.8536Z" fill="#000"/><path d="M46.4147 65.8536H43.9025V68.3658H46.4147V65.8536Z" fill="#000"/><path d="M53.7317 65.8536H51.2195V68.3658H53.7317V65.8536Z" fill="#000"/><path d="M56.1708 65.8536H53.6586V68.3658H56.1708V65.8536Z" fill="#000"/><path d="M61.0488 65.8536H58.5366V68.3658H61.0488V65.8536Z" fill="#000"/><path d="M63.4878 65.8536H60.9756V68.3658H63.4878V65.8536Z" fill="#000"/><path d="M70.805 65.8536H68.2927V68.3658H70.805V65.8536Z" fill="#000"/><path d="M75.683 65.8536H73.1708V68.3658H75.683V65.8536Z" fill="#000"/><path d="M83 65.8536H80.4878V68.3658H83V65.8536Z" fill="#000"/><path d="M7.39025 68.2927H4.87805V70.8049H7.39025V68.2927Z" fill="#000"/><path d="M17.1463 68.2927H14.6342V70.8049H17.1463V68.2927Z" fill="#000"/><path d="M19.5854 68.2927H17.0732V70.8049H19.5854V68.2927Z" fill="#000"/><path d="M22.0244 68.2927H19.5122V70.8049H22.0244V68.2927Z" fill="#000"/><path d="M26.9025 68.2927H24.3903V70.8049H26.9025V68.2927Z" fill="#000"/><path d="M31.7805 68.2927H29.2683V70.8049H31.7805V68.2927Z" fill="#000"/><path d="M36.6586 68.2927H34.1464V70.8049H36.6586V68.2927Z" fill="#000"/><path d="M48.8537 68.2927H46.3415V70.8049H48.8537V68.2927Z" fill="#000"/><path d="M51.2927 68.2927H48.7805V70.8049H51.2927V68.2927Z" fill="#000"/><path d="M56.1708 68.2927H53.6586V70.8049H56.1708V68.2927Z" fill="#000"/><path d="M61.0488 68.2927H58.5366V70.8049H61.0488V68.2927Z" fill="#000"/><path d="M73.2439 68.2927H70.7317V70.8049H73.2439V68.2927Z" fill="#000"/><path d="M75.683 68.2927H73.1708V70.8049H75.683V68.2927Z" fill="#000"/><path d="M78.122 68.2927H75.6097V70.8049H78.122V68.2927Z" fill="#000"/><path d="M87.8781 68.2927H85.3658V70.8049H87.8781V68.2927Z" fill="#000"/><path d="M90.3172 68.2927H87.8049V70.8049H90.3172V68.2927Z" fill="#000"/><path d="M92.7561 68.2927H90.2439V70.8049H92.7561V68.2927Z" fill="#000"/><path d="M95.1952 68.2927H92.683V70.8049H95.1952V68.2927Z" fill="#000"/><path d="M7.39025 70.7317H4.87805V73.2439H7.39025V70.7317Z" fill="#000"/><path d="M12.2683 70.7317H9.7561V73.2439H12.2683V70.7317Z" fill="#000"/><path d="M14.7073 70.7317H12.1951V73.2439H14.7073V70.7317Z" fill="#000"/><path d="M17.1463 70.7317H14.6342V73.2439H17.1463V70.7317Z" fill="#000"/><path d="M34.2195 70.7317H31.7073V73.2439H34.2195V70.7317Z" fill="#000"/><path d="M46.4147 70.7317H43.9025V73.2439H46.4147V70.7317Z" fill="#000"/><path d="M58.6098 70.7317H56.0975V73.2439H58.6098V70.7317Z" fill="#000"/><path d="M61.0488 70.7317H58.5366V73.2439H61.0488V70.7317Z" fill="#000"/><path d="M73.2439 70.7317H70.7317V73.2439H73.2439V70.7317Z" fill="#000"/><path d="M78.122 70.7317H75.6097V73.2439H78.122V70.7317Z" fill="#000"/><path d="M80.561 70.7317H78.0488V73.2439H80.561V70.7317Z" fill="#000"/><path d="M83 70.7317H80.4878V73.2439H83V70.7317Z" fill="#000"/><path d="M92.7561 70.7317H90.2439V73.2439H92.7561V70.7317Z" fill="#000"/><path d="M95.1952 70.7317H92.683V73.2439H95.1952V70.7317Z" fill="#000"/><path d="M7.39025 73.1708H4.87805V75.683H7.39025V73.1708Z" fill="#000"/><path d="M14.7073 73.1708H12.1951V75.683H14.7073V73.1708Z" fill="#000"/><path d="M17.1463 73.1708H14.6342V75.683H17.1463V73.1708Z" fill="#000"/><path d="M22.0244 73.1708H19.5122V75.683H22.0244V73.1708Z" fill="#000"/><path d="M24.4634 73.1708H21.9512V75.683H24.4634V73.1708Z" fill="#000"/><path d="M29.3415 73.1708H26.8293V75.683H29.3415V73.1708Z" fill="#000"/><path d="M31.7805 73.1708H29.2683V75.683H31.7805V73.1708Z" fill="#000"/><path d="M34.2195 73.1708H31.7073V75.683H34.2195V73.1708Z" fill="#000"/><path d="M36.6586 73.1708H34.1464V75.683H36.6586V73.1708Z" fill="#000"/><path d="M41.5366 73.1708H39.0244V75.683H41.5366V73.1708Z" fill="#000"/><path d="M46.4147 73.1708H43.9025V75.683H46.4147V73.1708Z" fill="#000"/><path d="M48.8537 73.1708H46.3415V75.683H48.8537V73.1708Z" fill="#000"/><path d="M53.7317 73.1708H51.2195V75.683H53.7317V73.1708Z" fill="#000"/><path d="M56.1708 73.1708H53.6586V75.683H56.1708V73.1708Z" fill="#000"/><path d="M58.6098 73.1708H56.0975V75.683H58.6098V73.1708Z" fill="#000"/><path d="M61.0488 73.1708H58.5366V75.683H61.0488V73.1708Z" fill="#000"/><path d="M65.9268 73.1708H63.4147V75.683H65.9268V73.1708Z" fill="#000"/><path d="M68.3658 73.1708H65.8536V75.683H68.3658V73.1708Z" fill="#000"/><path d="M70.805 73.1708H68.2927V75.683H70.805V73.1708Z" fill="#000"/><path d="M75.683 73.1708H73.1708V75.683H75.683V73.1708Z" fill="#000"/><path d="M78.122 73.1708H75.6097V75.683H78.122V73.1708Z" fill="#000"/><path d="M80.561 73.1708H78.0488V75.683H80.561V73.1708Z" fill="#000"/><path d="M83 73.1708H80.4878V75.683H83V73.1708Z" fill="#000"/><path d="M85.439 73.1708H82.9269V75.683H85.439V73.1708Z" fill="#000"/><path d="M90.3172 73.1708H87.8049V75.683H90.3172V73.1708Z" fill="#000"/><path d="M92.7561 73.1708H90.2439V75.683H92.7561V73.1708Z" fill="#000"/><path d="M26.9025 75.6097H24.3903V78.122H26.9025V75.6097Z" fill="#000"/><path d="M29.3415 75.6097H26.8293V78.122H29.3415V75.6097Z" fill="#000"/><path d="M34.2195 75.6097H31.7073V78.122H34.2195V75.6097Z" fill="#000"/><path d="M41.5366 75.6097H39.0244V78.122H41.5366V75.6097Z" fill="#000"/><path d="M46.4147 75.6097H43.9025V78.122H46.4147V75.6097Z" fill="#000"/><path d="M48.8537 75.6097H46.3415V78.122H48.8537V75.6097Z" fill="#000"/><path d="M51.2927 75.6097H48.7805V78.122H51.2927V75.6097Z" fill="#000"/><path d="M53.7317 75.6097H51.2195V78.122H53.7317V75.6097Z" fill="#000"/><path d="M56.1708 75.6097H53.6586V78.122H56.1708V75.6097Z" fill="#000"/><path d="M58.6098 75.6097H56.0975V78.122H58.6098V75.6097Z" fill="#000"/><path d="M63.4878 75.6097H60.9756V78.122H63.4878V75.6097Z" fill="#000"/><path d="M73.2439 75.6097H70.7317V78.122H73.2439V75.6097Z" fill="#000"/><path d="M75.683 75.6097H73.1708V78.122H75.683V75.6097Z" fill="#000"/><path d="M85.439 75.6097H82.9269V78.122H85.439V75.6097Z" fill="#000"/><path d="M87.8781 75.6097H85.3658V78.122H87.8781V75.6097Z" fill="#000"/><path d="M92.7561 75.6097H90.2439V78.122H92.7561V75.6097Z" fill="#000"/><path d="M29.3415 78.0488H26.8293V80.5609H29.3415V78.0488Z" fill="#000"/><path d="M36.6586 78.0488H34.1464V80.5609H36.6586V78.0488Z" fill="#000"/><path d="M39.0976 78.0488H36.5854V80.5609H39.0976V78.0488Z" fill="#000"/><path d="M41.5366 78.0488H39.0244V80.5609H41.5366V78.0488Z" fill="#000"/><path d="M43.9756 78.0488H41.4634V80.5609H43.9756V78.0488Z" fill="#000"/><path d="M46.4147 78.0488H43.9025V80.5609H46.4147V78.0488Z" fill="#000"/><path d="M48.8537 78.0488H46.3415V80.5609H48.8537V78.0488Z" fill="#000"/><path d="M56.1708 78.0488H53.6586V80.5609H56.1708V78.0488Z" fill="#000"/><path d="M58.6098 78.0488H56.0975V80.5609H58.6098V78.0488Z" fill="#000"/><path d="M65.9268 78.0488H63.4147V80.5609H65.9268V78.0488Z" fill="#000"/><path d="M68.3658 78.0488H65.8536V80.5609H68.3658V78.0488Z" fill="#000"/><path d="M75.683 78.0488H73.1708V80.5609H75.683V78.0488Z" fill="#000"/><path d="M80.561 78.0488H78.0488V80.5609H80.561V78.0488Z" fill="#000"/><path d="M85.439 78.0488H82.9269V80.5609H85.439V78.0488Z" fill="#000"/><path d="M90.3172 78.0488H87.8049V80.5609H90.3172V78.0488Z" fill="#000"/><path d="M95.1952 78.0488H92.683V80.5609H95.1952V78.0488Z" fill="#000"/><path d="M26.9025 80.4878H24.3903V83H26.9025V80.4878Z" fill="#000"/><path d="M29.3415 80.4878H26.8293V83H29.3415V80.4878Z" fill="#000"/><path d="M31.7805 80.4878H29.2683V83H31.7805V80.4878Z" fill="#000"/><path d="M36.6586 80.4878H34.1464V83H36.6586V80.4878Z" fill="#000"/><path d="M39.0976 80.4878H36.5854V83H39.0976V80.4878Z" fill="#000"/><path d="M41.5366 80.4878H39.0244V83H41.5366V80.4878Z" fill="#000"/><path d="M43.9756 80.4878H41.4634V83H43.9756V80.4878Z" fill="#000"/><path d="M46.4147 80.4878H43.9025V83H46.4147V80.4878Z" fill="#000"/><path d="M48.8537 80.4878H46.3415V83H48.8537V80.4878Z" fill="#000"/><path d="M51.2927 80.4878H48.7805V83H51.2927V80.4878Z" fill="#000"/><path d="M53.7317 80.4878H51.2195V83H53.7317V80.4878Z" fill="#000"/><path d="M56.1708 80.4878H53.6586V83H56.1708V80.4878Z" fill="#000"/><path d="M58.6098 80.4878H56.0975V83H58.6098V80.4878Z" fill="#000"/><path d="M65.9268 80.4878H63.4147V83H65.9268V80.4878Z" fill="#000"/><path d="M70.805 80.4878H68.2927V83H70.805V80.4878Z" fill="#000"/><path d="M73.2439 80.4878H70.7317V83H73.2439V80.4878Z" fill="#000"/><path d="M75.683 80.4878H73.1708V83H75.683V80.4878Z" fill="#000"/><path d="M85.439 80.4878H82.9269V83H85.439V80.4878Z" fill="#000"/><path d="M87.8781 80.4878H85.3658V83H87.8781V80.4878Z" fill="#000"/><path d="M92.7561 80.4878H90.2439V83H92.7561V80.4878Z" fill="#000"/><path d="M95.1952 80.4878H92.683V83H95.1952V80.4878Z" fill="#000"/><path d="M26.9025 82.9268H24.3903V85.439H26.9025V82.9268Z" fill="#000"/><path d="M29.3415 82.9268H26.8293V85.439H29.3415V82.9268Z" fill="#000"/><path d="M31.7805 82.9268H29.2683V85.439H31.7805V82.9268Z" fill="#000"/><path d="M36.6586 82.9268H34.1464V85.439H36.6586V82.9268Z" fill="#000"/><path d="M41.5366 82.9268H39.0244V85.439H41.5366V82.9268Z" fill="#000"/><path d="M43.9756 82.9268H41.4634V85.439H43.9756V82.9268Z" fill="#000"/><path d="M46.4147 82.9268H43.9025V85.439H46.4147V82.9268Z" fill="#000"/><path d="M53.7317 82.9268H51.2195V85.439H53.7317V82.9268Z" fill="#000"/><path d="M61.0488 82.9268H58.5366V85.439H61.0488V82.9268Z" fill="#000"/><path d="M68.3658 82.9268H65.8536V85.439H68.3658V82.9268Z" fill="#000"/><path d="M73.2439 82.9268H70.7317V85.439H73.2439V82.9268Z" fill="#000"/><path d="M75.683 82.9268H73.1708V85.439H75.683V82.9268Z" fill="#000"/><path d="M78.122 82.9268H75.6097V85.439H78.122V82.9268Z" fill="#000"/><path d="M80.561 82.9268H78.0488V85.439H80.561V82.9268Z" fill="#000"/><path d="M83 82.9268H80.4878V85.439H83V82.9268Z" fill="#000"/><path d="M85.439 82.9268H82.9269V85.439H85.439V82.9268Z" fill="#000"/><path d="M90.3172 82.9268H87.8049V85.439H90.3172V82.9268Z" fill="#000"/><path d="M92.7561 82.9268H90.2439V85.439H92.7561V82.9268Z" fill="#000"/><path d="M95.1952 82.9268H92.683V85.439H95.1952V82.9268Z" fill="#000"/><path d="M26.9025 85.3658H24.3903V87.8781H26.9025V85.3658Z" fill="#000"/><path d="M29.3415 85.3658H26.8293V87.8781H29.3415V85.3658Z" fill="#000"/><path d="M31.7805 85.3658H29.2683V87.8781H31.7805V85.3658Z" fill="#000"/><path d="M34.2195 85.3658H31.7073V87.8781H34.2195V85.3658Z" fill="#000"/><path d="M39.0976 85.3658H36.5854V87.8781H39.0976V85.3658Z" fill="#000"/><path d="M41.5366 85.3658H39.0244V87.8781H41.5366V85.3658Z" fill="#000"/><path d="M43.9756 85.3658H41.4634V87.8781H43.9756V85.3658Z" fill="#000"/><path d="M48.8537 85.3658H46.3415V87.8781H48.8537V85.3658Z" fill="#000"/><path d="M51.2927 85.3658H48.7805V87.8781H51.2927V85.3658Z" fill="#000"/><path d="M53.7317 85.3658H51.2195V87.8781H53.7317V85.3658Z" fill="#000"/><path d="M56.1708 85.3658H53.6586V87.8781H56.1708V85.3658Z" fill="#000"/><path d="M58.6098 85.3658H56.0975V87.8781H58.6098V85.3658Z" fill="#000"/><path d="M63.4878 85.3658H60.9756V87.8781H63.4878V85.3658Z" fill="#000"/><path d="M78.122 85.3658H75.6097V87.8781H78.122V85.3658Z" fill="#000"/><path d="M80.561 85.3658H78.0488V87.8781H80.561V85.3658Z" fill="#000"/><path d="M85.439 85.3658H82.9269V87.8781H85.439V85.3658Z" fill="#000"/><path d="M95.1952 85.3658H92.683V87.8781H95.1952V85.3658Z" fill="#000"/><path d="M26.9025 87.8049H24.3903V90.3171H26.9025V87.8049Z" fill="#000"/><path d="M36.6586 87.8049H34.1464V90.3171H36.6586V87.8049Z" fill="#000"/><path d="M43.9756 87.8049H41.4634V90.3171H43.9756V87.8049Z" fill="#000"/><path d="M46.4147 87.8049H43.9025V90.3171H46.4147V87.8049Z" fill="#000"/><path d="M48.8537 87.8049H46.3415V90.3171H48.8537V87.8049Z" fill="#000"/><path d="M56.1708 87.8049H53.6586V90.3171H56.1708V87.8049Z" fill="#000"/><path d="M65.9268 87.8049H63.4147V90.3171H65.9268V87.8049Z" fill="#000"/><path d="M92.7561 87.8049H90.2439V90.3171H92.7561V87.8049Z" fill="#000"/><path d="M95.1952 87.8049H92.683V90.3171H95.1952V87.8049Z" fill="#000"/><path d="M39.0976 90.2439H36.5854V92.7561H39.0976V90.2439Z" fill="#000"/><path d="M41.5366 90.2439H39.0244V92.7561H41.5366V90.2439Z" fill="#000"/><path d="M43.9756 90.2439H41.4634V92.7561H43.9756V90.2439Z" fill="#000"/><path d="M58.6098 90.2439H56.0975V92.7561H58.6098V90.2439Z" fill="#000"/><path d="M63.4878 90.2439H60.9756V92.7561H63.4878V90.2439Z" fill="#000"/><path d="M70.805 90.2439H68.2927V92.7561H70.805V90.2439Z" fill="#000"/><path d="M73.2439 90.2439H70.7317V92.7561H73.2439V90.2439Z" fill="#000"/><path d="M75.683 90.2439H73.1708V92.7561H75.683V90.2439Z" fill="#000"/><path d="M78.122 90.2439H75.6097V92.7561H78.122V90.2439Z" fill="#000"/><path d="M80.561 90.2439H78.0488V92.7561H80.561V90.2439Z" fill="#000"/><path d="M85.439 90.2439H82.9269V92.7561H85.439V90.2439Z" fill="#000"/><path d="M95.1952 90.2439H92.683V92.7561H95.1952V90.2439Z" fill="#000"/><path d="M26.9025 92.6829H24.3903V95.1951H26.9025V92.6829Z" fill="#000"/><path d="M31.7805 92.6829H29.2683V95.1951H31.7805V92.6829Z" fill="#000"/><path d="M34.2195 92.6829H31.7073V95.1951H34.2195V92.6829Z" fill="#000"/><path d="M39.0976 92.6829H36.5854V95.1951H39.0976V92.6829Z" fill="#000"/><path d="M41.5366 92.6829H39.0244V95.1951H41.5366V92.6829Z" fill="#000"/><path d="M43.9756 92.6829H41.4634V95.1951H43.9756V92.6829Z" fill="#000"/><path d="M46.4147 92.6829H43.9025V95.1951H46.4147V92.6829Z" fill="#000"/><path d="M48.8537 92.6829H46.3415V95.1951H48.8537V92.6829Z" fill="#000"/><path d="M61.0488 92.6829H58.5366V95.1951H61.0488V92.6829Z" fill="#000"/><path d="M68.3658 92.6829H65.8536V95.1951H68.3658V92.6829Z" fill="#000"/><path d="M70.805 92.6829H68.2927V95.1951H70.805V92.6829Z" fill="#000"/><path d="M80.561 92.6829H78.0488V95.1951H80.561V92.6829Z" fill="#000"/><path d="M85.439 92.6829H82.9269V95.1951H85.439V92.6829Z" fill="#000"/><path d="M90.3172 92.6829H87.8049V95.1951H90.3172V92.6829Z" fill="#000"/><path d="M92.7561 92.6829H90.2439V95.1951H92.7561V92.6829Z" fill="#000"/><path d="M95.1952 92.6829H92.683V95.1951H95.1952V92.6829Z" fill="#000"/><path d="M4.87805 4.87805V21.9512H21.9512V4.87805H4.87805ZM19.5122 19.5122H7.31708V7.31708H19.5122V19.5122Z" fill="#000"/><path d="M78.0488 4.87805V21.9512H95.122V4.87805H78.0488ZM92.683 19.5122H80.4879V7.31708H92.683V19.5122Z" fill="#000"/><path d="M4.87805 78.0488V95.1219H21.9512V78.0488H4.87805ZM19.5122 92.6829H7.31708V80.4878H19.5122V92.6829Z" fill="#000"/><path d="M17.0732 9.7561H9.7561V17.0732H17.0732V9.7561Z" fill="#000"/><path d="M90.244 9.7561H82.9269V17.0732H90.244V9.7561Z" fill="#000"/><path d="M17.0732 82.9268H9.7561V90.2439H17.0732V82.9268Z" fill="#000"/></svg>