<svg width="61" height="60" viewBox="0 0 61 60" fill="none" xmlns="http://www.w3.org/2000/svg"><g clip-path="url(#clip0)"><path d="M0 41.4694V27.8295H6.04122C10.3953 27.8295 12.5723 29.9788 12.5723 34.2774C12.5723 39.072 10.3953 41.4694 6.04122 41.4694H0ZM5.65117 39.2816C8.54177 39.2816 9.98706 37.6153 9.98706 34.2827C9.98706 31.4414 8.54177 30.0238 5.65117 30.0297H2.58158V39.2816H5.65117Z" fill="#A71680"/><path d="M14.7311 41.4694V27.8295H17.3145L25.0611 37.5786V27.8295H27.5447V41.4694H24.9631L17.2166 31.5125V41.4694H14.7311Z" fill="#A71680"/><path d="M30.353 40.8974V38.6084C31.8723 39.1368 33.4759 39.3948 35.088 39.3702C37.2252 39.3702 38.2937 38.6712 38.2937 37.273C38.2937 36.2549 37.6376 35.7458 36.3253 35.7458H33.9469C31.095 35.7458 29.6697 34.4744 29.6709 31.9314C29.6709 29.1328 31.7004 27.734 35.7593 27.7352C37.264 27.7266 38.7606 27.952 40.1931 28.4029V30.6919C38.7741 30.1786 37.2721 29.9199 35.7593 29.9283C33.4214 29.9283 32.2525 30.596 32.2525 31.9314C32.2525 32.9484 32.8173 33.4568 33.9469 33.4568H36.3253C39.3586 33.4568 40.8753 34.7289 40.8753 37.273C40.8753 40.1344 38.9462 41.5651 35.088 41.5651C33.4837 41.5872 31.8858 41.3619 30.353 40.8974Z" fill="#A71680"/><path d="M10.5422 49.0484C10.2682 49.2909 9.90799 49.4184 9.53895 49.4036C9.33286 49.4173 9.12642 49.3823 8.937 49.3017C8.74758 49.221 8.58071 49.097 8.45044 48.9401V51.0018H7.61774V45.3192H8.43412V45.7508C8.56152 45.5896 8.72743 45.4616 8.91724 45.378C9.10705 45.2944 9.31494 45.2578 9.52263 45.2713C9.89443 45.2562 10.2576 45.3836 10.5349 45.6265C10.9522 46.0349 11.0012 46.7221 11.0012 47.3365C11.0012 47.951 10.9595 48.6417 10.5422 49.0484ZM9.31762 45.9869C8.56655 45.9869 8.45226 46.6102 8.45226 47.3294C8.45226 48.0486 8.56655 48.6808 9.31762 48.6808C10.0687 48.6808 10.1757 48.0486 10.1757 47.3294C10.1757 46.6102 10.0687 45.9887 9.31762 45.9887V45.9869Z" fill="#A71680"/><path d="M14.4935 46.2604C14.4184 46.1715 14.3233 46.1008 14.2157 46.0537C14.1081 46.0066 13.9909 45.9843 13.8731 45.9887C13.425 45.9887 13.0494 46.3439 13.0494 46.8997V49.361H12.2167V45.3193H13.0331V45.7579C13.1666 45.6 13.3353 45.474 13.5261 45.3897C13.717 45.3054 13.925 45.2649 14.1343 45.2713C14.3176 45.2621 14.5007 45.2915 14.6713 45.3577C14.842 45.4239 14.996 45.5253 15.1231 45.6549L14.4935 46.2604Z" fill="#A71680"/><path d="M16.2315 47.571C16.2315 48.2671 16.607 48.7057 17.2837 48.7057C17.4725 48.7163 17.6613 48.6843 17.8355 48.6122C18.0098 48.5402 18.1648 48.43 18.2887 48.2902L18.8185 48.7785C18.6247 48.9906 18.3847 49.1573 18.1162 49.2664C17.8477 49.3756 17.5576 49.4243 17.2674 49.4089C16.2315 49.4089 15.406 48.8762 15.406 47.3313C15.406 46.0207 16.1008 45.2625 17.1621 45.2625C18.2724 45.2625 18.9165 46.0616 18.9165 47.2158V47.571H16.2315ZM17.9785 46.4522C17.9116 46.2959 17.7976 46.1633 17.6518 46.0719C17.506 45.9806 17.3352 45.9348 17.1621 45.9408C16.9879 45.9348 16.8159 45.9803 16.6686 46.0716C16.5213 46.1629 16.4056 46.2955 16.3367 46.4522C16.26 46.6264 16.2241 46.815 16.2315 47.0045H18.0928C18.0943 46.8139 18.0528 46.6253 17.9713 46.4522H17.9785Z" fill="#A71680"/><path d="M25.1446 49.361V46.8926C25.1446 46.2605 24.7817 45.9888 24.3137 45.9888C24.1974 45.9831 24.0813 46.0018 23.973 46.0435C23.8647 46.0852 23.7667 46.149 23.6855 46.2306C23.6044 46.3123 23.5419 46.4099 23.5022 46.517C23.4626 46.6241 23.4467 46.7382 23.4556 46.8518V49.361H22.6229V46.8926C22.6229 46.2605 22.26 45.9888 21.7901 45.9888C21.3203 45.9888 20.9338 46.2693 20.9338 46.8926V49.361H20.1011V45.3193H20.9175V45.726C21.0595 45.5804 21.2304 45.4649 21.4199 45.3867C21.6093 45.3085 21.8131 45.2692 22.0187 45.2713C22.2505 45.2601 22.4812 45.3089 22.6875 45.4127C22.8939 45.5165 23.0687 45.6717 23.1943 45.8627C23.3476 45.6706 23.5453 45.5169 23.7711 45.4141C23.9969 45.3113 24.2444 45.2624 24.4933 45.2713C24.8769 45.2582 25.251 45.3898 25.5382 45.6389C25.6888 45.7887 25.8056 45.9677 25.8812 46.1644C25.9568 46.361 25.9895 46.571 25.9773 46.7808V49.3699L25.1446 49.361Z" fill="#A71680"/><path d="M27.3179 44.5112V43.6482H28.1996V44.5112H27.3179ZM27.3415 49.3609V45.3192H28.1742V49.3698L27.3415 49.3609Z" fill="#A71680"/><path d="M32.0766 49.3609V48.9543C31.9355 49.101 31.7647 49.2172 31.575 49.2955C31.3854 49.3738 31.1811 49.4124 30.9753 49.4089C30.5987 49.4226 30.2318 49.2905 29.954 49.0413C29.6365 48.7376 29.5385 48.3541 29.5385 47.8994V45.3192H30.3712V47.7876C30.3712 48.4198 30.7341 48.6915 31.2039 48.6915C31.6738 48.6915 32.0602 48.4109 32.0602 47.7876V45.3192H32.8929V49.3698L32.0766 49.3609Z" fill="#A71680"/><path d="M39.3423 49.361V46.8926C39.3423 46.2605 38.9795 45.9888 38.5096 45.9888C38.3934 45.9831 38.2772 46.0018 38.1689 46.0435C38.0606 46.0852 37.9626 46.149 37.8815 46.2306C37.8003 46.3123 37.7378 46.4099 37.6982 46.517C37.6585 46.6241 37.6426 46.7382 37.6515 46.8518V49.361H36.8188V46.8926C36.8188 46.2605 36.4559 45.9888 35.9861 45.9888C35.5162 45.9888 35.1298 46.2693 35.1298 46.8926V49.361H34.2989V45.3193H35.1153V45.726C35.2575 45.5802 35.4288 45.4647 35.6185 45.3865C35.8083 45.3083 36.0124 45.2691 36.2183 45.2713C36.4472 45.2607 36.6751 45.3087 36.8793 45.4105C37.0835 45.5124 37.2571 45.6645 37.383 45.852C37.5363 45.6599 37.734 45.5062 37.9598 45.4034C38.1856 45.3006 38.4331 45.2517 38.682 45.2607C39.0656 45.2472 39.4398 45.3788 39.7269 45.6283C39.8777 45.778 39.9948 45.9569 40.0707 46.1536C40.1466 46.3502 40.1797 46.5602 40.1678 46.7701V49.3592L39.3423 49.361Z" fill="#A71680"/><path d="M45.0026 21.7012L55.5248 13.5716L53.8612 4.00537C53.8612 4.00537 41.9421 14.1807 41.6826 14.3991C40.8227 15.1272 39.2915 16.9012 40.879 19.414C41.4958 20.3587 42.8945 21.1294 45.0026 21.7012Z" fill="#EC6608"/><path d="M59.2221 27.7761C59.0881 27.324 58.8889 26.8929 58.6307 26.4957C57.3735 24.5086 55.4432 23.6385 52.0162 23.31C51.2307 23.2336 49.5126 23.1004 49.3965 23.088C44.4746 22.5552 41.4341 21.4329 40.3583 19.7371C40.7556 21.7703 41.4341 25.1053 41.9783 26.9788C42.1108 27.4314 42.3101 27.8627 42.5698 28.2591C43.827 30.2444 45.7591 31.0791 49.1824 31.4467C49.9988 31.5355 52.448 31.7414 52.448 31.7414C56.8746 32.1712 59.8063 33.3983 60.8368 35.0178C60.4431 32.9845 59.7646 29.6496 59.2221 27.7761Z" fill="#A71680"/><path d="M56.1888 33.0663L45.6666 41.1959L47.3302 50.7621C47.3302 50.7621 59.2493 40.5868 59.5088 40.3684C60.3669 39.6403 61.898 37.8663 60.3088 35.3535C59.7065 34.3964 58.306 33.6257 56.1888 33.0663Z" fill="#A71680"/></g><defs><clipPath id="clip0"><path fill="#fff" d="M0 0H61V60H0z"/></clipPath></defs></svg>