<svg width="61" height="60" viewBox="0 0 61 60" fill="none" xmlns="http://www.w3.org/2000/svg"><g clip-path="url(#clip0)"><path d="M1.83353 24.7939V29.9113C1.8341 29.945 1.82795 29.9785 1.81545 30.0098C1.80294 30.0411 1.78433 30.0696 1.76069 30.0937C1.73705 30.1177 1.70886 30.1368 1.67777 30.1498C1.64668 30.1628 1.6133 30.1696 1.57959 30.1696H0.256123C0.22223 30.1698 0.188621 30.1633 0.157278 30.1504C0.125935 30.1375 0.0974964 30.1185 0.07363 30.0944C0.0497637 30.0704 0.030952 30.0418 0.0183135 30.0103C0.00567493 29.9789 -0.000539095 29.9452 3.66426e-05 29.9113V21.3723C-0.000539095 21.3384 0.00567493 21.3047 0.0183135 21.2733C0.030952 21.2418 0.0497637 21.2132 0.07363 21.1891C0.0974964 21.1651 0.125935 21.146 0.157278 21.1331C0.188621 21.1202 0.22223 21.1137 0.256123 21.114H1.54731C1.62137 21.1296 1.69131 21.1606 1.75251 21.2051C1.81371 21.2496 1.86479 21.3066 1.90239 21.3723L5.1734 26.6059V21.3723C5.17282 21.3384 5.17903 21.3047 5.19167 21.2733C5.20431 21.2418 5.22312 21.2132 5.24698 21.1891C5.27085 21.1651 5.29929 21.146 5.33064 21.1331C5.36198 21.1202 5.39559 21.1137 5.42948 21.114H6.75079C6.78469 21.1137 6.8183 21.1202 6.84964 21.1331C6.88098 21.146 6.90943 21.1651 6.93329 21.1891C6.95716 21.2132 6.97597 21.2418 6.9886 21.2733C7.00124 21.3047 7.00746 21.3384 7.00688 21.3723V29.9113C7.00746 29.9452 7.00124 29.9789 6.9886 30.0103C6.97597 30.0418 6.95716 30.0704 6.93329 30.0944C6.90943 30.1185 6.88098 30.1375 6.84964 30.1504C6.8183 30.1633 6.78469 30.1698 6.75079 30.1696H5.45961C5.38465 30.1564 5.3137 30.1263 5.25216 30.0816C5.19062 30.0368 5.14012 29.9786 5.10453 29.9113L1.83353 24.7939Z" fill="#007D4E"/><path d="M13.0367 21.1141C13.0896 21.1159 13.1408 21.1332 13.1841 21.1638C13.2273 21.1944 13.2606 21.237 13.2799 21.2863L15.8945 29.9114C15.8951 29.9453 15.8889 29.9789 15.8763 30.0104C15.8636 30.0418 15.8448 30.0704 15.8209 30.0945C15.7971 30.1186 15.7686 30.1376 15.7373 30.1505C15.7059 30.1634 15.6723 30.1699 15.6384 30.1696H14.3473C14.2784 30.163 14.2135 30.1343 14.1623 30.0877C14.1111 30.0412 14.0763 29.9793 14.0632 29.9114L13.7275 28.7881H10.435L10.1079 29.9092C10.0947 29.9772 10.0599 30.039 10.0087 30.0856C9.95754 30.1321 9.89266 30.1608 9.82379 30.1675H8.53261C8.49871 30.1678 8.46511 30.1613 8.43377 30.1484C8.40242 30.1355 8.37398 30.1164 8.35011 30.0924C8.32625 30.0683 8.30744 30.0397 8.2948 30.0082C8.28216 29.9768 8.27595 29.9431 8.27653 29.9092L10.8933 21.2841C10.9122 21.235 10.9452 21.1925 10.988 21.1619C11.0309 21.1313 11.0817 21.1139 11.1344 21.1119L13.0367 21.1141ZM10.9471 27.0944H13.2089L12.0855 23.3565L10.9471 27.0944Z" fill="#007D4E"/><path d="M16.8048 27.0083V21.3723C16.8043 21.3384 16.8105 21.3047 16.8231 21.2733C16.8358 21.2418 16.8546 21.2132 16.8784 21.1891C16.9023 21.1651 16.9307 21.146 16.9621 21.1331C16.9934 21.1202 17.027 21.1137 17.0609 21.114H18.3823C18.4161 21.1137 18.4498 21.1202 18.4811 21.1331C18.5124 21.146 18.5409 21.1651 18.5647 21.1891C18.5886 21.2132 18.6074 21.2418 18.6201 21.2733C18.6327 21.3047 18.6389 21.3384 18.6383 21.3723V27.0212C18.6383 28.4437 19.7488 28.5878 20.2028 28.5878C20.6569 28.5878 21.7673 28.4437 21.7673 27.0212V21.3723C21.7667 21.3386 21.7729 21.3051 21.7854 21.2738C21.7979 21.2425 21.8165 21.214 21.8401 21.1899C21.8638 21.1659 21.892 21.1468 21.9231 21.1338C21.9542 21.1207 21.9875 21.114 22.0212 21.114H23.3447C23.3786 21.1137 23.4122 21.1202 23.4436 21.1331C23.4749 21.146 23.5033 21.1651 23.5272 21.1891C23.5511 21.2132 23.5699 21.2418 23.5825 21.2733C23.5952 21.3047 23.6014 21.3384 23.6008 21.3723V27.0083C23.6008 28.5448 22.9552 30.2836 20.2028 30.2836C17.4504 30.2836 16.8048 28.5448 16.8048 27.0083Z" fill="#007D4E"/><path d="M31.0079 21.114C31.0417 21.114 31.0752 21.1207 31.1064 21.1337C31.1376 21.1467 31.1659 21.1658 31.1898 21.1898C31.2136 21.2138 31.2324 21.2423 31.2451 21.2736C31.2579 21.3049 31.2643 21.3385 31.264 21.3723V22.5473C31.2646 22.5812 31.2583 22.6148 31.2457 22.6463C31.2331 22.6777 31.2143 22.7063 31.1904 22.7304C31.1665 22.7544 31.1381 22.7735 31.1067 22.7864C31.0754 22.7993 31.0418 22.8058 31.0079 22.8055H29.0173V29.907C29.0179 29.9409 29.0117 29.9746 28.999 30.006C28.9864 30.0375 28.9676 30.0661 28.9437 30.0902C28.9199 30.1142 28.8914 30.1333 28.8601 30.1462C28.8287 30.1591 28.7951 30.1656 28.7612 30.1653H27.4399C27.406 30.1656 27.3724 30.1591 27.3411 30.1462C27.3097 30.1333 27.2813 30.1142 27.2574 30.0902C27.2336 30.0661 27.2148 30.0375 27.2021 30.006C27.1895 29.9746 27.1833 29.9409 27.1838 29.907V22.8055H25.1933C25.1594 22.8058 25.1258 22.7993 25.0944 22.7864C25.0631 22.7735 25.0346 22.7544 25.0108 22.7304C24.9869 22.7063 24.9681 22.6777 24.9554 22.6463C24.9428 22.6148 24.9366 22.5812 24.9372 22.5473V21.368C24.9369 21.3342 24.9433 21.3006 24.956 21.2693C24.9688 21.238 24.9876 21.2095 25.0114 21.1855C25.0352 21.1615 25.0635 21.1424 25.0948 21.1294C25.126 21.1164 25.1594 21.1097 25.1933 21.1097L31.0079 21.114Z" fill="#007D4E"/><path d="M34.5866 29.9113C34.5872 29.9452 34.581 29.9789 34.5683 30.0103C34.5557 30.0418 34.5369 30.0704 34.513 30.0944C34.4892 30.1185 34.4607 30.1375 34.4294 30.1504C34.398 30.1633 34.3644 30.1698 34.3305 30.1696H33.0071C32.9733 30.1696 32.9398 30.1629 32.9086 30.1499C32.8774 30.1368 32.849 30.1178 32.8252 30.0938C32.8014 30.0698 32.7826 30.0413 32.7699 30.01C32.7571 29.9787 32.7507 29.9451 32.751 29.9113V21.3723C32.7507 21.3385 32.7571 21.3049 32.7699 21.2736C32.7826 21.2423 32.8014 21.2138 32.8252 21.1898C32.849 21.1658 32.8774 21.1467 32.9086 21.1337C32.9398 21.1207 32.9733 21.114 33.0071 21.114H34.3305C34.3644 21.1137 34.398 21.1202 34.4294 21.1331C34.4607 21.146 34.4892 21.1651 34.513 21.1891C34.5369 21.2132 34.5557 21.2418 34.5683 21.2733C34.581 21.3047 34.5872 21.3384 34.5866 21.3723V29.9113Z" fill="#007D4E"/><path d="M36.9086 30.1696C36.8747 30.1698 36.8411 30.1633 36.8097 30.1504C36.7784 30.1375 36.75 30.1185 36.7261 30.0944C36.7022 30.0704 36.6834 30.0418 36.6708 30.0103C36.6581 29.9789 36.6519 29.9452 36.6525 29.9113V21.3723C36.6519 21.3384 36.6581 21.3047 36.6708 21.2733C36.6834 21.2418 36.7022 21.2132 36.7261 21.1891C36.75 21.1651 36.7784 21.146 36.8097 21.1331C36.8411 21.1202 36.8747 21.1137 36.9086 21.114H38.2321C38.2659 21.1137 38.2996 21.1202 38.3309 21.1331C38.3622 21.146 38.3907 21.1651 38.4146 21.1891C38.4384 21.2132 38.4572 21.2418 38.4699 21.2733C38.4825 21.3047 38.4887 21.3384 38.4881 21.3723V28.4738H41.9313C41.9652 28.4735 41.9988 28.48 42.0302 28.4929C42.0615 28.5058 42.0899 28.5248 42.1138 28.5489C42.1377 28.573 42.1565 28.6016 42.1691 28.633C42.1818 28.6645 42.188 28.6981 42.1874 28.732V29.9113C42.188 29.9452 42.1818 29.9789 42.1691 30.0103C42.1565 30.0418 42.1377 30.0704 42.1138 30.0944C42.0899 30.1185 42.0615 30.1375 42.0302 30.1504C41.9988 30.1633 41.9652 30.1698 41.9313 30.1696H36.9086Z" fill="#007D4E"/><path d="M43.2204 27.0083V21.3723C43.2198 21.3384 43.226 21.3047 43.2387 21.2733C43.2513 21.2418 43.2701 21.2132 43.294 21.1891C43.3178 21.1651 43.3463 21.146 43.3776 21.1331C43.409 21.1202 43.4426 21.1137 43.4765 21.114H44.7978C44.8317 21.1137 44.8653 21.1202 44.8966 21.1331C44.928 21.146 44.9564 21.1651 44.9803 21.1891C45.0041 21.2132 45.0229 21.2418 45.0356 21.2733C45.0482 21.3047 45.0544 21.3384 45.0539 21.3723V27.0212C45.0539 28.4437 46.1621 28.5878 46.6184 28.5878C47.0746 28.5878 48.1807 28.4437 48.1807 27.0212V21.3723C48.1801 21.3384 48.1863 21.3047 48.199 21.2733C48.2116 21.2418 48.2304 21.2132 48.2543 21.1891C48.2781 21.1651 48.3066 21.146 48.3379 21.1331C48.3693 21.1202 48.4029 21.1137 48.4368 21.114H49.7581C49.792 21.1137 49.8256 21.1202 49.8569 21.1331C49.8883 21.146 49.9167 21.1651 49.9406 21.1891C49.9645 21.2132 49.9833 21.2418 49.9959 21.2733C50.0085 21.3047 50.0147 21.3384 50.0142 21.3723V27.0083C50.0142 28.5448 49.3686 30.2836 46.6184 30.2836C43.8681 30.2836 43.2204 28.5448 43.2204 27.0083Z" fill="#007D4E"/><path d="M54.8497 22.6678C53.9545 22.6678 53.3842 22.84 53.3842 23.5716C53.3842 25.1103 58.0626 24.4066 58.0626 27.6604C58.0626 28.179 57.8194 30.2901 54.6926 30.2901C54.6926 30.2901 52.9022 30.2621 51.7358 29.4422C51.6991 29.4201 51.6691 29.3883 51.649 29.3504C51.6289 29.3125 51.6195 29.2699 51.6217 29.227C51.6208 29.1757 51.6358 29.1253 51.6648 29.0828L52.2049 28.0908C52.2208 28.0542 52.2465 28.0228 52.2792 28C52.3119 27.9772 52.3502 27.9639 52.39 27.9617C52.4401 27.9647 52.4887 27.9794 52.532 28.0047C53.2136 28.3918 53.9801 28.6047 54.7636 28.6245C56.128 28.6245 56.242 28.1058 56.242 27.6755C56.242 25.9646 51.5658 26.6683 51.5658 23.6362C51.5658 21.7812 52.9581 21.0065 54.6775 21.0065C55.5161 20.9657 56.3516 21.1336 57.1093 21.495C57.1464 21.5091 57.1778 21.5351 57.1984 21.569C57.2191 21.6029 57.2278 21.6427 57.2233 21.6822C57.2177 21.7414 57.2032 21.7994 57.1803 21.8543L56.7822 22.8034C56.7665 22.8389 56.7405 22.8688 56.7074 22.8892C56.6744 22.9096 56.6359 22.9194 56.5971 22.9174C56.5063 22.904 56.4164 22.8845 56.3281 22.8593C55.8438 22.7417 55.348 22.6774 54.8497 22.6678Z" fill="#007D4E"/><path d="M61.0022 22.274C60.9967 22.5191 60.9189 22.7572 60.7787 22.9584C60.6385 23.1596 60.442 23.315 60.2139 23.405C59.9858 23.495 59.7362 23.5157 59.4964 23.4645C59.2566 23.4134 59.0372 23.2925 58.8657 23.1172C58.6943 22.9419 58.5783 22.7199 58.5325 22.479C58.4866 22.2381 58.5129 21.989 58.608 21.7629C58.703 21.5369 58.8627 21.3439 59.0669 21.2082C59.2712 21.0725 59.511 21.0001 59.7562 21C59.9217 21.0017 60.0852 21.036 60.2375 21.101C60.3897 21.1659 60.5276 21.2603 60.6434 21.3786C60.7591 21.4969 60.8504 21.6369 60.9119 21.7906C60.9735 21.9442 61.0042 22.1085 61.0022 22.274ZM60.7074 22.274C60.7035 22.0872 60.6447 21.9058 60.5382 21.7523C60.4318 21.5989 60.2824 21.4803 60.1088 21.4113C59.9352 21.3424 59.7451 21.3262 59.5624 21.3648C59.3796 21.4034 59.2124 21.4951 59.0815 21.6283C58.9506 21.7616 58.862 21.9305 58.8266 22.1139C58.7913 22.2973 58.8109 22.487 58.8829 22.6594C58.955 22.8317 59.0763 22.9789 59.2316 23.0826C59.3869 23.1863 59.5694 23.2419 59.7562 23.2424C60.0071 23.2291 60.2439 23.1223 60.42 22.943C60.596 22.7638 60.6986 22.5251 60.7074 22.274ZM60.2511 22.8485C60.25 22.8636 60.2431 22.8776 60.2319 22.8876C60.2206 22.8977 60.2059 22.9029 60.1909 22.9023H59.9757C59.9587 22.9007 59.9424 22.8949 59.9282 22.8855C59.9139 22.8761 59.9022 22.8635 59.8939 22.8485L59.7799 22.6334C59.7541 22.6363 59.7281 22.6363 59.7024 22.6334H59.6572V22.8485C59.6575 22.8557 59.6563 22.8628 59.6537 22.8695C59.6511 22.8762 59.6472 22.8822 59.6421 22.8873C59.6371 22.8923 59.631 22.8963 59.6243 22.8989C59.6177 22.9015 59.6105 22.9027 59.6034 22.9023H59.3495C59.3422 22.9026 59.335 22.9015 59.3282 22.8989C59.3214 22.8963 59.3152 22.8924 59.31 22.8874C59.3048 22.8824 59.3006 22.8763 59.2978 22.8697C59.295 22.863 59.2935 22.8558 59.2935 22.8485V21.6693C59.2932 21.6618 59.2944 21.6544 59.2971 21.6475C59.2998 21.6406 59.304 21.6343 59.3092 21.629C59.3145 21.6238 59.3208 21.6197 59.3277 21.617C59.3346 21.6142 59.342 21.613 59.3495 21.6133H59.7799C59.8413 21.6061 59.9036 21.6118 59.9627 21.63C60.0218 21.6482 60.0765 21.6785 60.1232 21.719C60.17 21.7595 60.2078 21.8092 60.2343 21.8652C60.2608 21.9211 60.2753 21.9819 60.277 22.0437V22.2094C60.2718 22.274 60.254 22.3369 60.2244 22.3945C60.1949 22.4521 60.1542 22.5033 60.1048 22.5451L60.2511 22.8485ZM59.6464 21.9167V22.3321H59.7067C59.7328 22.3343 59.7591 22.3309 59.7837 22.322C59.8083 22.3131 59.8307 22.2989 59.8494 22.2805C59.868 22.2621 59.8824 22.2398 59.8916 22.2153C59.9008 22.1908 59.9045 22.1645 59.9025 22.1384V22.1169C59.9048 22.0906 59.9013 22.0641 59.8923 22.0393C59.8833 22.0145 59.8689 21.992 59.8503 21.9733C59.8316 21.9546 59.8091 21.9403 59.7843 21.9313C59.7595 21.9222 59.733 21.9187 59.7067 21.921L59.6464 21.9167Z" fill="#007D4E"/><path d="M11.4345 37.3065H10.995V33.6573H11.4345V37.3065ZM12.6177 37.3065H12.1782V33.6573H12.6177V37.3065ZM14.7464 37.3065V35.0756H14.3401V34.7359H14.7464V34.4722C14.7464 34.1966 14.82 33.9836 14.9673 33.8331C15.1146 33.6826 15.3229 33.6074 15.5922 33.6074C15.6935 33.6074 15.7941 33.6209 15.8939 33.6478L15.8701 34.0042C15.7957 33.9899 15.7165 33.9828 15.6326 33.9828C15.49 33.9828 15.3799 34.0248 15.3023 34.1087C15.2247 34.1911 15.1859 34.3099 15.1859 34.4651V34.7359H15.7347V35.0756H15.1859V37.3065H14.7464ZM16.1053 35.9975C16.1053 35.7456 16.1544 35.5191 16.2526 35.318C16.3524 35.1168 16.4902 34.9616 16.666 34.8523C16.8434 34.743 17.0454 34.6884 17.2719 34.6884C17.6219 34.6884 17.9046 34.8096 18.12 35.0519C18.337 35.2942 18.4455 35.6165 18.4455 36.0188V36.0497C18.4455 36.3 18.3972 36.5249 18.3006 36.7244C18.2055 36.9224 18.0685 37.0769 17.8896 37.1877C17.7122 37.2986 17.5079 37.354 17.2766 37.354C16.9282 37.354 16.6454 37.2329 16.4285 36.9905C16.213 36.7482 16.1053 36.4275 16.1053 36.0283V35.9975ZM16.5472 36.0497C16.5472 36.3348 16.613 36.5637 16.7444 36.7363C16.8775 36.909 17.0549 36.9953 17.2766 36.9953C17.4999 36.9953 17.6773 36.9082 17.8088 36.734C17.9403 36.5581 18.006 36.3126 18.006 35.9975C18.006 35.7155 17.9387 35.4875 17.804 35.3132C17.671 35.1374 17.4936 35.0495 17.2719 35.0495C17.0549 35.0495 16.8799 35.1358 16.7468 35.3085C16.6138 35.4811 16.5472 35.7282 16.5472 36.0497ZM20.2392 35.1303C20.1727 35.1192 20.1006 35.1137 20.023 35.1137C19.7348 35.1137 19.5392 35.2364 19.4362 35.4819V37.3065H18.9967V34.7359H19.4243L19.4315 35.0329C19.5756 34.8032 19.7799 34.6884 20.0444 34.6884C20.1299 34.6884 20.1949 34.6995 20.2392 34.7217V35.1303ZM22.4487 34.1135V34.7359H22.9286V35.0756H22.4487V36.6698C22.4487 36.7728 22.4701 36.8504 22.5129 36.9026C22.5556 36.9533 22.6285 36.9787 22.7314 36.9787C22.7821 36.9787 22.8518 36.9692 22.9405 36.9501V37.3065C22.8249 37.3382 22.7124 37.354 22.6031 37.354C22.4067 37.354 22.2587 37.2946 22.1589 37.1758C22.0591 37.0571 22.0092 36.8884 22.0092 36.6698V35.0756H21.5412V34.7359H22.0092V34.1135H22.4487ZM23.8837 35.0471C24.0785 34.808 24.3319 34.6884 24.6439 34.6884C25.1872 34.6884 25.4612 34.9949 25.466 35.6078V37.3065H25.0265V35.6055C25.0249 35.4201 24.9821 35.2831 24.8982 35.1944C24.8158 35.1057 24.6867 35.0614 24.5109 35.0614C24.3684 35.0614 24.2432 35.0994 24.1355 35.1754C24.0278 35.2515 23.9439 35.3512 23.8837 35.4748V37.3065H23.4442V33.6573H23.8837V35.0471ZM27.1908 37.354C26.8423 37.354 26.5588 37.24 26.3403 37.0119C26.1217 36.7823 26.0124 36.4758 26.0124 36.0925V36.0117C26.0124 35.7567 26.0607 35.5294 26.1573 35.3299C26.2555 35.1287 26.3917 34.9719 26.566 34.8595C26.7418 34.7454 26.9318 34.6884 27.1362 34.6884C27.4704 34.6884 27.7301 34.7985 27.9154 35.0186C28.1007 35.2388 28.1934 35.554 28.1934 35.9642V36.1471H26.4519C26.4583 36.4005 26.5319 36.6057 26.6729 36.7625C26.8154 36.9177 26.996 36.9953 27.2146 36.9953C27.3698 36.9953 27.5012 36.9636 27.6089 36.9003C27.7166 36.8369 27.8109 36.753 27.8917 36.6484L28.1601 36.8575C27.9447 37.1885 27.6216 37.354 27.1908 37.354ZM27.1362 35.0495C26.9588 35.0495 26.8099 35.1145 26.6895 35.2443C26.5691 35.3726 26.4947 35.5532 26.4662 35.786H27.7539V35.7527C27.7412 35.5294 27.681 35.3568 27.5733 35.2348C27.4656 35.1113 27.3199 35.0495 27.1362 35.0495ZM30.3886 37.3065H29.9491V33.6573H30.3886V37.3065ZM30.9778 35.9975C30.9778 35.7456 31.0269 35.5191 31.1251 35.318C31.2249 35.1168 31.3627 34.9616 31.5385 34.8523C31.7159 34.743 31.9178 34.6884 32.1443 34.6884C32.4944 34.6884 32.7771 34.8096 32.9925 35.0519C33.2095 35.2942 33.318 35.6165 33.318 36.0188V36.0497C33.318 36.3 33.2697 36.5249 33.173 36.7244C33.078 36.9224 32.941 37.0769 32.762 37.1877C32.5846 37.2986 32.3803 37.354 32.1491 37.354C31.8006 37.354 31.5179 37.2329 31.3009 36.9905C31.0855 36.7482 30.9778 36.4275 30.9778 36.0283V35.9975ZM31.4197 36.0497C31.4197 36.3348 31.4854 36.5637 31.6169 36.7363C31.7499 36.909 31.9273 36.9953 32.1491 36.9953C32.3724 36.9953 32.5498 36.9082 32.6813 36.734C32.8127 36.5581 32.8784 36.3126 32.8784 35.9975C32.8784 35.7155 32.8111 35.4875 32.6765 35.3132C32.5435 35.1374 32.3661 35.0495 32.1443 35.0495C31.9273 35.0495 31.7523 35.1358 31.6193 35.3085C31.4862 35.4811 31.4197 35.7282 31.4197 36.0497ZM34.6793 36.7102L35.316 34.7359H35.765L34.8432 37.3065H34.5082L33.5769 34.7359H34.026L34.6793 36.7102ZM37.2214 37.354C36.873 37.354 36.5894 37.24 36.3709 37.0119C36.1523 36.7823 36.043 36.4758 36.043 36.0925V36.0117C36.043 35.7567 36.0913 35.5294 36.1879 35.3299C36.2861 35.1287 36.4223 34.9719 36.5966 34.8595C36.7724 34.7454 36.9624 34.6884 37.1668 34.6884C37.501 34.6884 37.7607 34.7985 37.946 35.0186C38.1313 35.2388 38.224 35.554 38.224 35.9642V36.1471H36.4825C36.4889 36.4005 36.5625 36.6057 36.7035 36.7625C36.846 36.9177 37.0266 36.9953 37.2452 36.9953C37.4004 36.9953 37.5318 36.9636 37.6395 36.9003C37.7472 36.8369 37.8415 36.753 37.9223 36.6484L38.1907 36.8575C37.9753 37.1885 37.6522 37.354 37.2214 37.354ZM37.1668 35.0495C36.9894 35.0495 36.8405 35.1145 36.7201 35.2443C36.5997 35.3726 36.5253 35.5532 36.4968 35.786H37.7845V35.7527C37.7718 35.5294 37.7116 35.3568 37.6039 35.2348C37.4962 35.1113 37.3505 35.0495 37.1668 35.0495ZM39.8253 35.9975C39.8253 35.7456 39.8744 35.5191 39.9726 35.318C40.0724 35.1168 40.2101 34.9616 40.386 34.8523C40.5633 34.743 40.7653 34.6884 40.9918 34.6884C41.3418 34.6884 41.6245 34.8096 41.8399 35.0519C42.0569 35.2942 42.1654 35.6165 42.1654 36.0188V36.0497C42.1654 36.3 42.1171 36.5249 42.0205 36.7244C41.9255 36.9224 41.7885 37.0769 41.6095 37.1877C41.4321 37.2986 41.2278 37.354 40.9965 37.354C40.6481 37.354 40.3654 37.2329 40.1484 36.9905C39.933 36.7482 39.8253 36.4275 39.8253 36.0283V35.9975ZM40.2672 36.0497C40.2672 36.3348 40.3329 36.5637 40.4644 36.7363C40.5974 36.909 40.7748 36.9953 40.9965 36.9953C41.2199 36.9953 41.3973 36.9082 41.5287 36.734C41.6602 36.5581 41.7259 36.3126 41.7259 35.9975C41.7259 35.7155 41.6586 35.4875 41.524 35.3132C41.3909 35.1374 41.2135 35.0495 40.9918 35.0495C40.7748 35.0495 40.5998 35.1358 40.4667 35.3085C40.3337 35.4811 40.2672 35.7282 40.2672 36.0497ZM42.9328 37.3065V35.0756H42.5265V34.7359H42.9328V34.4722C42.9328 34.1966 43.0065 33.9836 43.1538 33.8331C43.3011 33.6826 43.5093 33.6074 43.7786 33.6074C43.88 33.6074 43.9805 33.6209 44.0803 33.6478L44.0566 34.0042C43.9821 33.9899 43.9029 33.9828 43.819 33.9828C43.6764 33.9828 43.5664 34.0248 43.4887 34.1087C43.4111 34.1911 43.3723 34.3099 43.3723 34.4651V34.7359H43.9211V35.0756H43.3723V37.3065H42.9328ZM46.0308 34.7359L46.0451 35.059C46.2415 34.8119 46.4981 34.6884 46.8149 34.6884C47.3581 34.6884 47.6321 34.9949 47.6369 35.6078V37.3065H47.1974V35.6055C47.1958 35.4201 47.153 35.2831 47.0691 35.1944C46.9867 35.1057 46.8576 35.0614 46.6818 35.0614C46.5393 35.0614 46.4141 35.0994 46.3064 35.1754C46.1987 35.2515 46.1148 35.3512 46.0546 35.4748V37.3065H45.6151V34.7359H46.0308ZM49.8868 37.3065C49.8614 37.2558 49.8408 37.1656 49.825 37.0357C49.6207 37.2479 49.3768 37.354 49.0932 37.354C48.8398 37.354 48.6315 37.2828 48.4684 37.1402C48.3069 36.9961 48.2261 36.8139 48.2261 36.5938C48.2261 36.3261 48.3274 36.1186 48.5302 35.9713C48.7345 35.8224 49.0212 35.748 49.3902 35.748H49.8179V35.5461C49.8179 35.3924 49.7719 35.2705 49.6801 35.1802C49.5882 35.0883 49.4528 35.0424 49.2738 35.0424C49.117 35.0424 48.9855 35.082 48.8794 35.1612C48.7733 35.2404 48.7202 35.3362 48.7202 35.4486H48.2783C48.2783 35.3204 48.3235 35.1968 48.4138 35.078C48.5056 34.9577 48.6292 34.8626 48.7844 34.7929C48.9412 34.7232 49.113 34.6884 49.2999 34.6884C49.5961 34.6884 49.8282 34.7628 49.996 34.9117C50.1639 35.059 50.251 35.2625 50.2574 35.5223V36.7054C50.2574 36.9414 50.2875 37.1291 50.3477 37.2685V37.3065H49.8868ZM49.1574 36.9715C49.2952 36.9715 49.4259 36.9359 49.5494 36.8646C49.6729 36.7933 49.7624 36.7007 49.8179 36.5867V36.0592H49.4734C48.9349 36.0592 48.6656 36.2168 48.6656 36.532C48.6656 36.6698 48.7115 36.7775 48.8034 36.8551C48.8953 36.9327 49.0133 36.9715 49.1574 36.9715ZM51.5427 34.1135V34.7359H52.0226V35.0756H51.5427V36.6698C51.5427 36.7728 51.5641 36.8504 51.6068 36.9026C51.6496 36.9533 51.7225 36.9787 51.8254 36.9787C51.8761 36.9787 51.9458 36.9692 52.0345 36.9501V37.3065C51.9188 37.3382 51.8064 37.354 51.6971 37.354C51.5007 37.354 51.3526 37.2946 51.2528 37.1758C51.1531 37.0571 51.1032 36.8884 51.1032 36.6698V35.0756H50.6351V34.7359H51.1032V34.1135H51.5427ZM54.1252 37.0523C53.9541 37.2535 53.7031 37.354 53.372 37.354C53.098 37.354 52.889 37.2748 52.7448 37.1165C52.6023 36.9565 52.5302 36.7205 52.5286 36.4085V34.7359H52.9682V36.3966C52.9682 36.7862 53.1265 36.981 53.4433 36.981C53.7791 36.981 54.0024 36.8559 54.1133 36.6057V34.7359H54.5528V37.3065H54.1347L54.1252 37.0523ZM56.4653 35.1303C56.3988 35.1192 56.3267 35.1137 56.2491 35.1137C55.9609 35.1137 55.7653 35.2364 55.6623 35.4819V37.3065H55.2228V34.7359H55.6504L55.6576 35.0329C55.8017 34.8032 56.006 34.6884 56.2705 34.6884C56.356 34.6884 56.421 34.6995 56.4653 34.7217V35.1303ZM57.8908 37.354C57.5424 37.354 57.2588 37.24 57.0403 37.0119C56.8217 36.7823 56.7124 36.4758 56.7124 36.0925V36.0117C56.7124 35.7567 56.7607 35.5294 56.8573 35.3299C56.9555 35.1287 57.0917 34.9719 57.266 34.8595C57.4418 34.7454 57.6318 34.6884 57.8362 34.6884C58.1704 34.6884 58.4301 34.7985 58.6154 35.0186C58.8007 35.2388 58.8934 35.554 58.8934 35.9642V36.1471H57.1519C57.1583 36.4005 57.2319 36.6057 57.3729 36.7625C57.5154 36.9177 57.696 36.9953 57.9146 36.9953C58.0698 36.9953 58.2012 36.9636 58.3089 36.9003C58.4166 36.8369 58.5109 36.753 58.5917 36.6484L58.8601 36.8575C58.6447 37.1885 58.3216 37.354 57.8908 37.354ZM57.8362 35.0495C57.6588 35.0495 57.5099 35.1145 57.3895 35.2443C57.2691 35.3726 57.1947 35.5532 57.1662 35.786H58.4539V35.7527C58.4412 35.5294 58.381 35.3568 58.2733 35.2348C58.1656 35.1113 58.0199 35.0495 57.8362 35.0495ZM59.4137 37.0761C59.4137 37 59.4359 36.9367 59.4802 36.886C59.5261 36.8353 59.5942 36.81 59.6845 36.81C59.7748 36.81 59.8429 36.8353 59.8888 36.886C59.9364 36.9367 59.9601 37 59.9601 37.0761C59.9601 37.1489 59.9364 37.2099 59.8888 37.259C59.8429 37.3081 59.7748 37.3327 59.6845 37.3327C59.5942 37.3327 59.5261 37.3081 59.4802 37.259C59.4359 37.2099 59.4137 37.1489 59.4137 37.0761Z" fill="#1D1D1B"/></g><defs><clipPath id="clip0"><path fill="#fff" d="M0 0H61V60H0z"/></clipPath></defs></svg>