<svg width="120" height="60" viewBox="0 0 120 60" fill="none" xmlns="http://www.w3.org/2000/svg"><path d="M34.8094 30.4535C35.6142 30.1338 37.1148 29.1668 37.1148 28.4628C37.1148 25.4913 35.7247 23.7864 33.3023 23.7864C29.6931 23.7864 27.2675 27.3129 27.2675 30.6073C27.2675 32.3905 27.7552 33.8678 28.677 34.8824C29.5549 35.8462 30.7775 36.3551 32.2131 36.3551C34.5656 36.3551 35.9312 34.9715 36.7538 33.94L36.7815 33.9047L36.497 33.5819L36.4498 33.6141C35.5815 34.201 34.5404 34.5155 33.473 34.5134C31.4278 34.5134 30.0085 32.9239 29.8427 30.4612H34.7818L34.8094 30.4535ZM32.2082 25.0547C33.7705 25.0547 34.7086 26.6304 34.7216 29.2714H29.8443C29.9256 27.6188 30.2995 26.2076 30.8994 25.2883C31.317 25.1321 31.7623 25.0527 32.2114 25.0547" fill="#1C256A"/><path d="M108.972 23.9062H106.591L103.092 29.0484C102.793 29.4511 102.682 29.6018 102.18 29.6018H101.934V28.9162C101.934 27.1991 101.934 25.5773 102.066 23.9708V23.9109H99.1396V23.9708C99.2713 25.5773 99.2713 27.1991 99.2713 28.9162V31.2221C99.2713 32.9392 99.2713 34.561 99.1396 36.1674V36.2289H102.066V36.1674C101.934 34.561 101.934 32.9392 101.934 31.2221V30.6702H102.18C102.555 30.6702 102.726 30.9146 103.011 31.3189C103.063 31.3927 103.118 31.4726 103.173 31.5526L106.506 36.232H109.797L104.393 29.2867L108.972 23.9062Z" fill="#1C256A"/><path d="M25.5133 23.9062H22.7267V29.3497H17.8282V23.9062H15.0417L15.0498 23.9677C15.1702 25.248 15.2142 26.5336 15.1815 27.8186C15.1815 28.0845 15.1815 28.3535 15.1815 28.6226V31.2205C15.1815 32.9376 15.1815 34.5595 15.0498 36.1659V36.2274H17.8347V30.6702H22.7332V36.2381H25.5181V36.1767C25.3865 34.5702 25.3865 32.9484 25.3865 31.2313V28.6333C25.3865 28.3643 25.3865 28.0953 25.3865 27.8293C25.3535 26.5444 25.398 25.2587 25.5198 23.9785L25.5133 23.9062Z" fill="#1C256A"/><path d="M12.8918 32.9956C11.8188 33.7642 10.0939 34.5928 8.47947 34.5928C5.04421 34.5928 2.73724 31.7642 2.73724 27.5537C2.73724 25.9196 3.03313 20.5438 6.83093 19.9796C7.18401 19.93 7.5405 19.9054 7.89744 19.9058C9.37303 19.9062 10.8185 20.3005 12.0676 21.0434L12.1293 21.0803L13.0934 18.7744L13.0365 18.7544C11.9519 18.3992 10.814 18.2108 9.66628 18.1964C9.4907 18.1964 9.32487 18.1964 9.17855 18.2149C7.88052 18.2837 6.61189 18.6075 5.45358 19.1657C4.29527 19.7239 3.27271 20.5042 2.4511 21.4569C0.851406 23.3336 -0.0104499 25.6768 0.0124378 28.0871C0.0124378 30.6559 0.711521 32.7819 2.03327 34.2362C3.27049 35.6243 5.02632 36.3576 7.08293 36.3576C9.48582 36.3576 11.6351 35.3384 13.2804 33.4091L13.3113 33.3722L12.9373 32.9664L12.8918 32.9956Z" fill="#1C256A"/><path d="M39.2153 23.9724C39.3357 25.2526 39.3797 26.5383 39.347 27.8232C39.347 28.0891 39.347 28.3582 39.347 28.6272V31.2251C39.347 32.9423 39.347 34.5641 39.2169 36.1705V36.232H42.1433V36.1705C42.0116 34.5641 42.0116 32.9423 42.0116 31.2251V25.2191H47.1165V23.9062H39.2072L39.2153 23.9724Z" fill="#1C256A"/><path d="M96.3515 23.9062H93.5649V29.8139L93.4788 29.8524C92.6659 30.209 91.9066 30.5457 91.0499 30.5457C89.4241 30.5457 89.0989 29.6233 89.0989 28.1276V23.9062H86.3172V23.9677C86.4382 25.248 86.4827 26.5336 86.4505 27.8186C86.4505 28.0845 86.4505 28.3535 86.4505 28.6226C86.4505 31.013 87.6731 32.2259 90.0858 32.2259C91.136 32.2259 92.2724 31.8293 93.5601 31.013V31.2205C93.5601 32.9377 93.5601 34.5595 93.43 36.1659V36.2274H96.3564V36.1659C96.2263 34.5595 96.2263 32.9377 96.2263 31.2205V28.6226C96.2263 28.3535 96.2263 28.0845 96.2263 27.8186C96.1941 26.5336 96.2386 25.248 96.3596 23.9677L96.3515 23.9062Z" fill="#1C256A"/><path d="M79.6224 23.7864C77.9284 23.7864 76.3709 24.5551 75.2572 25.9693C74.235 27.2768 73.6803 28.8584 73.6737 30.4843C73.6737 33.9954 75.7319 36.3551 78.7933 36.3551C82.6854 36.3551 84.7859 32.8409 84.7859 29.5342C84.7859 26.7672 83.1699 23.7864 79.6224 23.7864ZM77.0488 25.6219C77.4869 25.4932 77.9427 25.4269 78.4015 25.4252C80.5459 25.4252 82.1001 27.3867 82.1798 30.1907C82.2188 31.7202 81.9473 33.3328 81.453 34.515C81.0148 34.6402 80.5599 34.706 80.102 34.7102C77.9576 34.7102 76.4034 32.7487 76.3237 29.9447C76.2294 28.0739 76.6342 26.4905 77.0488 25.6219" fill="#1C256A"/><path d="M67.6272 23.7863C66.4046 23.7863 65.2211 24.3612 64.0148 25.5434L63.662 23.9062H61.0981L61.1128 23.9738C61.3762 25.1483 61.5046 26.6686 61.5046 28.6225V36.7884C61.5046 38.5055 61.5046 40.1274 61.3729 41.7338V41.7953H64.2993V41.7338C64.1676 40.1274 64.1676 38.5055 64.1676 36.7884V36.0874C64.6222 36.2539 65.1043 36.343 65.5918 36.3503C67.2614 36.3503 68.8433 35.5709 70.0269 34.1536C71.1828 32.7793 71.8445 30.913 71.8445 29.0345C71.8445 25.6971 70.313 23.7817 67.6419 23.7817L67.6272 23.7863ZM67.9751 34.7285C67.4853 34.8971 66.9663 34.9769 66.4453 34.9637C65.6489 34.9601 64.8639 34.785 64.1497 34.4518V26.6902C64.7675 26.2413 65.6568 25.714 66.4453 25.714C68.3165 25.714 69.2644 27.2359 69.2644 30.2351C69.2889 31.8176 68.8421 33.3747 67.9751 34.7285Z" fill="#1C256A"/><path d="M57.8418 23.9554C57.1768 26.8486 56.3363 29.2928 54.9154 33.0637L54.8666 33.1959C54.5879 32.1534 54.2337 31.1303 53.8066 30.1337L51.2672 23.9062H48.1977L48.253 23.9908C48.7797 24.8225 49.1748 25.7848 49.7747 27.2406L53.6001 36.5548C52.9013 38.3374 52.0163 40.0497 50.9583 41.6662L50.8981 41.7538H53.1449L53.1579 41.7139C53.7334 39.9476 54.3187 38.2766 54.9463 36.6025L56.4729 32.5595C57.3475 30.2229 58.4092 27.6034 59.4334 25.07L59.9049 23.9062H57.8515L57.8418 23.9554Z" fill="#1C256A"/><path d="M119.986 36.1643C119.639 34.4733 119.639 32.9714 119.639 31.2251V28.3043C119.639 25.5219 117.978 23.7925 115.303 23.7925C112.951 23.7925 111.585 25.176 110.763 26.2075L110.735 26.2429L111.019 26.5672L111.065 26.5334C111.933 25.9494 112.973 25.6361 114.038 25.6372C116.106 25.6372 116.989 26.5703 116.989 28.7578V29.0484C116.024 29.0902 115.063 29.1929 114.112 29.3558C111.314 29.9953 110.01 31.2436 110.01 33.2881C110.01 35.182 111.489 36.3626 112.861 36.3626C114.162 36.3626 115.492 35.8415 117.058 34.7224L117.392 36.2397H119.994L119.986 36.1643ZM116.989 30.292V33.5448C116.261 34.0537 115.363 34.6747 114.388 34.6747C113.224 34.6747 112.66 33.9783 112.66 32.5456C112.661 31.8551 112.804 31.1713 113.079 30.5318C113.98 30.3258 115.63 30.2951 116.989 30.292" fill="#1C256A"/></svg>