<svg width="120" height="60" viewBox="0 0 120 60" fill="none" xmlns="http://www.w3.org/2000/svg"><path d="M65.0183 29.5744H65.1765C65.1765 30.8838 64.7881 32.1637 64.0604 33.2525C63.3327 34.3412 62.2985 35.1897 61.0884 35.6908C59.8784 36.1919 58.5469 36.323 57.2623 36.0676C55.9777 35.8121 54.7977 35.1816 53.8716 34.2557C52.9454 33.3298 52.3147 32.1502 52.0592 30.8659C51.8037 29.5817 51.9348 28.2506 52.4361 27.0408C52.9373 25.8311 53.7861 24.7972 54.8751 24.0697C55.9641 23.3422 57.2445 22.954 58.5542 22.954C60.3102 22.9551 61.9939 23.653 63.2356 24.8943C64.4772 26.1356 65.1753 27.8189 65.1765 29.5744H64.8601C64.8599 28.1147 64.3534 26.7003 63.4269 25.5722C62.5005 24.4441 61.2114 23.672 59.7794 23.3876C58.3473 23.1032 56.8609 23.3241 55.5735 24.0125C54.2861 24.701 53.2773 25.8144 52.7191 27.1631C52.1608 28.5119 52.0877 30.0124 52.5121 31.409C52.9365 32.8056 53.8322 34.0118 55.0465 34.8222C56.2609 35.6325 57.7187 35.9968 59.1717 35.853C60.6246 35.7091 61.9827 35.0661 63.0144 34.0334C63.6015 33.4489 64.0668 32.7539 64.3836 31.9885C64.7004 31.2232 64.8623 30.4026 64.8601 29.5744H65.0183V29.5744ZM62.6058 34.3497L62.742 34.4331C60.7701 37.7564 58.3163 40.7692 55.4606 43.3731C52.9866 45.5389 50.6269 46.7953 48.6934 46.7997C48.0758 46.8084 47.4678 46.6473 46.9356 46.334C45.6437 45.5433 45.0549 43.8739 45.0549 41.6949C45.0549 37.851 46.8873 32.3288 50.2402 26.8155C52.2098 23.4906 54.6639 20.4776 57.5216 17.8755C59.9999 15.7098 62.3553 14.4489 64.2888 14.4445C64.9064 14.4352 65.5146 14.5963 66.0465 14.9102C67.3648 15.701 67.9317 17.3703 67.9317 19.5493C67.9317 23.3977 66.0949 28.9198 62.742 34.4331L62.6058 34.3497L62.4739 34.2662C65.8048 28.7968 67.6153 23.2835 67.6153 19.5493C67.6153 17.4187 67.0352 15.8767 65.8839 15.1826C65.3982 14.8878 64.8394 14.7355 64.2712 14.7433C62.5135 14.7433 60.1537 15.9514 57.7149 18.0952C54.88 20.6755 52.4453 23.6633 50.4906 26.9605C47.1598 32.4343 45.3493 37.9432 45.3493 41.6773C45.3493 43.808 45.9293 45.35 47.107 46.0704C47.5919 46.3634 48.1488 46.5155 48.7153 46.5098C50.4731 46.5098 52.8328 45.3017 55.2717 43.1622C58.1055 40.5793 60.5401 37.5902 62.4959 34.2926L62.6277 34.376L62.6058 34.3497ZM70.3749 31.7402H70.5331C70.534 34.6346 69.6763 37.4642 68.0684 39.8712C66.4605 42.2783 64.1748 44.1546 61.5002 45.2628C58.8256 46.371 55.8824 46.6615 53.0427 46.0973C50.203 45.5332 47.5945 44.1398 45.547 42.0935C43.4994 40.0471 42.1049 37.4397 41.5398 34.601C40.9746 31.7623 41.2642 28.8198 42.372 26.1456C43.4797 23.4714 45.3558 21.1858 47.7631 19.5776C50.1703 17.9695 53.0005 17.1111 55.8957 17.1111C59.7641 17.1169 63.4729 18.6534 66.2116 21.3847C68.9503 24.116 70.4961 27.8201 70.5112 31.6874H70.1948C70.1979 28.3766 69.0524 25.1671 66.9536 22.606C64.8548 20.0449 61.9324 18.2907 58.6847 17.6425C55.437 16.9942 52.065 17.492 49.1433 19.051C46.2216 20.61 43.9312 23.1336 42.6623 26.1919C41.3935 29.2501 41.2247 32.6536 42.1849 35.8223C43.1451 38.9909 45.1748 41.7286 47.928 43.5688C50.6812 45.4089 53.9875 46.2375 57.2834 45.9135C60.5793 45.5894 63.6607 44.1327 66.0026 41.7916C67.3312 40.4654 68.3853 38.8904 69.1047 37.1567C69.824 35.4229 70.1944 33.5644 70.1948 31.6874H70.353L70.3749 31.7402ZM70.2607 31.09H70.4189C70.4197 32.96 69.8659 34.7882 68.8273 36.3435C67.7887 37.8988 66.3121 39.1112 64.5842 39.8274C62.8563 40.5436 60.9548 40.7315 59.1201 40.3672C57.2854 40.0029 55.6 39.1029 54.2771 37.7809C52.9541 36.4589 52.053 34.7744 51.6878 32.9404C51.3225 31.1064 51.5095 29.2053 52.2252 27.4775C52.9408 25.7498 54.1528 24.273 55.7081 23.234C57.2633 22.195 59.0918 21.6404 60.9623 21.6404C63.4692 21.6416 65.8732 22.6374 67.6463 24.4092C69.4193 26.1809 70.4165 28.5838 70.4189 31.09H70.1025C70.1016 28.9771 69.368 26.9299 68.0267 25.2972C66.6854 23.6644 64.8193 22.547 62.7464 22.1354C60.6734 21.7239 58.5219 22.0435 56.6582 23.0399C54.7946 24.0364 53.3341 25.6479 52.5257 27.6001C51.7173 29.5522 51.6109 31.7242 52.2246 33.746C52.8384 35.7678 54.1343 37.5143 55.8916 38.6881C57.6489 39.8618 59.759 40.3901 61.8622 40.183C63.9655 39.9759 65.9318 39.0462 67.4263 37.5522C68.2764 36.7045 68.9504 35.6972 69.4097 34.5882C69.869 33.4792 70.1044 32.2903 70.1025 31.09H70.2607" fill="#B3B2B2"/><path d="M0 23.1251H1.74894L4.08671 29.851H4.12187L6.44207 23.1251H8.20858V35.83H6.38934V28.1025H6.35418L4.55251 33.5631H3.63849L1.8544 28.1025H1.81925V35.83H0V23.1251Z" fill="#1E1E1C"/><path d="M13.8114 23.1251H15.3274L18.1662 35.83H16.3469L15.8108 33.0974H13.328L12.7963 35.83H10.9727L13.8114 23.1251V23.1251ZM14.5804 26.7846H14.5452L13.64 31.3885H15.4593L14.5804 26.7846Z" fill="#1E1E1C"/><path d="M20.9302 23.1251H26.3572V24.8384H22.7495V28.5682H25.8914V30.2815H22.7495V34.0068H26.3572V35.83H20.9302V23.1251Z" fill="#1E1E1C"/><path d="M35.2951 26.7845H33.4759V26.3716C33.4759 25.5369 33.1199 24.8384 32.1927 24.8384C31.1908 24.8384 30.9579 25.6423 30.9579 26.4814C30.9579 27.4611 31.0502 27.7993 31.995 28.1771L33.388 28.7263C34.9919 29.3369 35.2951 30.3517 35.2951 32.2056C35.2951 34.345 34.5129 35.9353 32.1576 35.9353C31.7534 35.9502 31.3504 35.883 30.9728 35.738C30.5952 35.593 30.251 35.3731 29.9607 35.0915C29.6704 34.8099 29.4401 34.4725 29.2838 34.0996C29.1274 33.7267 29.0481 33.326 29.0508 32.9217V32.2407H30.87V32.8118C30.8529 32.9865 30.8742 33.1628 30.9324 33.3284C30.9906 33.494 31.0843 33.6449 31.2069 33.7704C31.3296 33.896 31.4783 33.9932 31.6425 34.0553C31.8067 34.1174 31.9825 34.1428 32.1576 34.1298C33.388 34.1298 33.4759 33.3961 33.4759 32.2363C33.4759 30.8833 33.3177 30.668 32.4256 30.3122L31.1073 29.7762C29.5386 29.1348 29.1255 28.098 29.1255 26.5121C29.1255 24.5836 30.1625 23.0328 32.2498 23.0328C33.0315 23.0174 33.7878 23.3101 34.3552 23.8478C34.9226 24.3854 35.2555 25.1248 35.2819 25.9059V26.7845" fill="#1E1E1C"/><path d="M39.7204 24.8384H37.6155V23.1251H43.6489V24.8384H41.544V35.83H39.7204V24.8384Z" fill="#1E1E1C"/><path d="M46.3248 23.1251H49.2339C51.3915 23.1251 52.4461 24.3947 52.4461 26.8549C52.4461 28.3178 52.033 29.3897 50.8729 30.0311L52.8372 35.83H50.9081L49.2339 30.4045H48.1441V35.83H46.3248V23.1251ZM48.1441 28.801H49.1767C50.4467 28.801 50.64 28.0849 50.64 26.8197C50.64 25.5545 50.4291 24.8384 49.0889 24.8384H48.1441V28.801Z" fill="#1E1E1C"/><path d="M55.6936 26.126C55.6936 25.3174 56.0149 24.5419 56.5868 23.9701C57.1588 23.3984 57.9344 23.0771 58.7433 23.0771C59.5521 23.0771 60.3278 23.3984 60.8997 23.9701C61.4716 24.5419 61.7929 25.3174 61.7929 26.126V32.8298C61.7929 33.6384 61.4716 34.4139 60.8997 34.9857C60.3278 35.5574 59.5521 35.8786 58.7433 35.8786C57.9344 35.8786 57.1588 35.5574 56.5868 34.9857C56.0149 34.4139 55.6936 33.6384 55.6936 32.8298V26.126ZM57.5128 32.8298C57.5128 33.1561 57.6425 33.4689 57.8732 33.6996C58.104 33.9303 58.4169 34.0599 58.7433 34.0599C59.0696 34.0599 59.3825 33.9303 59.6133 33.6996C59.844 33.4689 59.9737 33.1561 59.9737 32.8298V26.126C59.9737 25.7997 59.844 25.4868 59.6133 25.2562C59.3825 25.0255 59.0696 24.8959 58.7433 24.8959C58.4169 24.8959 58.104 25.0255 57.8732 25.2562C57.6425 25.4868 57.5128 25.7997 57.5128 26.126V32.8298Z" fill="#1E1E1C"/><path d="M78.5352 30.4705C78.5382 30.3695 78.5205 30.2689 78.4831 30.175C78.4457 30.0811 78.3895 29.9959 78.3178 29.9247C78.2461 29.8534 78.1605 29.7977 78.0664 29.7608C77.9723 29.724 77.8716 29.7068 77.7705 29.7105C77.6724 29.708 77.5747 29.7257 77.4837 29.7625C77.3926 29.7993 77.3101 29.8545 77.2413 29.9245C77.1725 29.9946 77.1188 30.078 77.0836 30.1697C77.0484 30.2613 77.0324 30.3592 77.0367 30.4573C77.0367 30.7341 77.1114 31.0021 77.6695 31.2217L78.5483 31.5732C78.9933 31.7076 79.3801 31.9878 79.6463 32.3687C79.9126 32.7497 80.0428 33.2091 80.016 33.6731C80.0225 33.9674 79.9698 34.2601 79.8609 34.5336C79.752 34.8072 79.5892 35.0561 79.3822 35.2655C79.1752 35.4749 78.9282 35.6406 78.6558 35.7527C78.3835 35.8648 78.0914 35.921 77.7969 35.9179C77.5001 35.9272 77.2046 35.8753 76.9287 35.7656C76.6529 35.6559 76.4025 35.4906 76.1931 35.2801C75.9838 35.0696 75.82 34.8183 75.7119 34.5419C75.6037 34.2654 75.5536 33.9697 75.5646 33.6731H76.9752C77.0323 34.086 77.2257 34.5122 77.7793 34.5122C77.8879 34.5157 77.9961 34.4974 78.0975 34.4584C78.1989 34.4194 78.2915 34.3605 78.3697 34.2852C78.448 34.2098 78.5103 34.1195 78.5531 34.0197C78.5958 33.9198 78.6181 33.8124 78.6186 33.7038C78.6186 33.2909 78.4429 33.0141 77.8716 32.7901L77.1509 32.5265C76.7093 32.3953 76.3226 32.1235 76.0497 31.7523C75.7768 31.3812 75.6327 30.9311 75.6393 30.4705C75.6369 30.1826 75.6923 29.8972 75.8022 29.631C75.9121 29.3649 76.0742 29.1235 76.2791 28.9212C76.484 28.7188 76.7273 28.5596 76.9948 28.453C77.2623 28.3463 77.5485 28.2944 77.8365 28.3003C78.1194 28.2984 78.3999 28.3536 78.6609 28.4627C78.922 28.5718 79.1584 28.7326 79.3558 28.9352C79.5532 29.1379 79.7076 29.3784 79.8097 29.6422C79.9118 29.906 79.9596 30.1878 79.9501 30.4705H78.5352Z" fill="#B3B2B2"/><path d="M81.7253 26.1258H83.2238V28.3882H84.151V29.5612H83.2238V33.6907C83.2238 34.376 83.4874 34.4244 84.151 34.4244V35.8301H83.5314C83.2931 35.8507 83.0533 35.8198 82.8281 35.7395C82.6029 35.6591 82.3976 35.5313 82.2263 35.3645C82.0549 35.1978 81.9215 34.9962 81.835 34.7733C81.7486 34.5504 81.7112 34.3115 81.7253 34.0729V29.5612H80.9783V28.3882H81.7253V26.1258Z" fill="#B3B2B2"/><path d="M88.2906 35.0703H88.2643C87.8688 35.6106 87.5436 35.9181 86.8229 35.9181C86.1023 35.9181 85.2102 35.5843 85.2102 33.9368C85.2102 32.2894 85.6936 31.4108 87.5743 31.4108C87.7765 31.4108 87.983 31.4416 88.2906 31.4547V30.6772C88.2906 30.1807 88.1017 29.7985 87.5436 29.7985C87.3362 29.8024 87.1368 29.8795 86.9808 30.0162C86.8248 30.1529 86.7222 30.3403 86.6911 30.5454H85.2366C85.2584 29.9422 85.4989 29.3676 85.9133 28.9287C86.1293 28.7204 86.3848 28.5575 86.6648 28.4496C86.9448 28.3417 87.2436 28.291 87.5436 28.3005C88.7916 28.3005 89.7935 29.0913 89.7935 30.6508V35.8303H88.2906V35.0703ZM88.2906 32.6321C88.1562 32.6036 88.0193 32.5889 87.8819 32.5882C87.236 32.5882 86.7043 32.8518 86.7043 33.6425C86.7043 34.218 86.9987 34.6002 87.4865 34.6002C87.9742 34.6002 88.2906 34.2444 88.2906 33.6425V32.6321Z" fill="#B3B2B2"/><path d="M91.6303 28.3882H93.1288V29.1087H93.1771C93.3174 28.8593 93.5226 28.6524 93.7709 28.5101C94.0193 28.3678 94.3015 28.2953 94.5877 28.3004C95.3391 28.3004 96.1301 28.7836 96.1301 30.1191V35.8301H94.6316V30.677C94.6316 30.1323 94.368 29.7984 93.8978 29.7984C93.3397 29.7984 93.1507 30.163 93.1507 30.8264V35.8301H91.6523L91.6303 28.3882Z" fill="#B3B2B2"/><path d="M101.06 35.1579C100.906 35.3937 100.694 35.5869 100.446 35.7197C100.197 35.8525 99.9186 35.9207 99.6366 35.9179C99.3724 35.9408 99.1072 35.8865 98.8732 35.7618C98.6393 35.637 98.4465 35.4471 98.3183 35.2151C98.1079 34.7098 98.0235 34.1611 98.0722 33.616V30.7824C98.0722 29.7105 98.1161 29.2844 98.3051 28.9769C98.4401 28.7526 98.635 28.5704 98.8679 28.4509C99.1008 28.3314 99.3624 28.2792 99.6234 28.3003C99.903 28.2917 100.18 28.3565 100.427 28.4883C100.674 28.6201 100.881 28.8143 101.03 29.0515H101.06V25.3789H102.559V35.8301H101.06V35.1579ZM99.5751 33.4007C99.5751 34.0026 99.7992 34.4155 100.313 34.4155C100.827 34.4155 101.06 34.0333 101.06 33.4886V30.6023C101.068 30.4997 101.054 30.3967 101.019 30.2996C100.985 30.2026 100.931 30.1137 100.861 30.0383C100.791 29.9629 100.706 29.9027 100.612 29.8615C100.518 29.8202 100.416 29.7987 100.313 29.7984C99.7376 29.7984 99.5751 30.2069 99.5751 30.677V33.4007Z" fill="#B3B2B2"/><path d="M107.366 35.0703H107.336C106.94 35.6106 106.615 35.9181 105.894 35.9181C105.174 35.9181 104.281 35.5843 104.281 33.9368C104.281 32.2894 104.765 31.4108 106.646 31.4108C106.848 31.4108 107.054 31.4416 107.366 31.4547V30.6772C107.366 30.1807 107.173 29.7985 106.615 29.7985C106.407 29.8024 106.208 29.8795 106.052 30.0162C105.896 30.1529 105.793 30.3403 105.762 30.5454H104.308C104.33 29.9422 104.57 29.3676 104.985 28.9287C105.201 28.7204 105.456 28.5575 105.736 28.4496C106.016 28.3417 106.315 28.291 106.615 28.3005C107.863 28.3005 108.865 29.0913 108.865 30.6508V35.8303H107.366V35.0703ZM107.366 32.6321C107.23 32.6038 107.092 32.5891 106.953 32.5882C106.307 32.5882 105.776 32.8518 105.776 33.6425C105.776 34.218 106.07 34.6002 106.558 34.6002C107.046 34.6002 107.366 34.2444 107.366 33.6425V32.6321Z" fill="#B3B2B2"/><path d="M110.702 28.3882H112.2V29.179C112.453 28.9055 112.76 28.6866 113.1 28.5355C113.441 28.3845 113.809 28.3044 114.182 28.3004V29.8863C114.043 29.8283 113.893 29.7984 113.742 29.7984C113.533 29.7934 113.325 29.8324 113.132 29.9129C112.939 29.9933 112.765 30.1135 112.621 30.2654C112.478 30.4174 112.367 30.5979 112.298 30.7952C112.228 30.9925 112.201 31.2022 112.218 31.4107V35.8301H110.719L110.702 28.3882Z" fill="#B3B2B2"/><path d="M118.502 35.1579C118.347 35.3937 118.136 35.5869 117.887 35.7197C117.638 35.8525 117.36 35.9207 117.078 35.9179C116.814 35.9408 116.549 35.8865 116.315 35.7618C116.081 35.637 115.888 35.4471 115.76 35.2151C115.549 34.7098 115.465 34.1611 115.513 33.616V30.7824C115.513 29.7105 115.557 29.2844 115.746 28.9769C115.881 28.7526 116.076 28.5704 116.309 28.4509C116.542 28.3314 116.804 28.2792 117.065 28.3003C117.344 28.2917 117.621 28.3565 117.868 28.4883C118.115 28.6201 118.323 28.8143 118.471 29.0515H118.502V25.3789H119.983V35.8301H118.484L118.502 35.1579ZM117.016 33.4007C117.016 34.0026 117.24 34.4155 117.755 34.4155C118.269 34.4155 118.502 34.0333 118.502 33.4886V30.6023C118.509 30.4997 118.495 30.3967 118.461 30.2996C118.426 30.2026 118.373 30.1137 118.303 30.0383C118.233 29.9629 118.148 29.9027 118.054 29.8615C117.959 29.8202 117.857 29.7987 117.755 29.7984C117.179 29.7984 117.016 30.2069 117.016 30.677V33.4007Z" fill="#B3B2B2"/><path d="M71.2494 25.8533C70.9675 25.8594 70.6901 25.7814 70.4527 25.6292C70.2153 25.4771 70.0286 25.2577 69.9164 24.999C69.8042 24.7403 69.7717 24.4541 69.8229 24.1768C69.8742 23.8996 70.0069 23.6439 70.2041 23.4423C70.4013 23.2408 70.6541 23.1026 70.9303 23.0453C71.2064 22.988 71.4934 23.0142 71.7545 23.1207C72.0157 23.2271 72.2392 23.4089 72.3965 23.6429C72.5539 23.8769 72.638 24.1524 72.638 24.4343C72.6452 24.62 72.6145 24.8052 72.5476 24.9786C72.4808 25.1519 72.3793 25.3099 72.2493 25.4427C72.1193 25.5755 71.9636 25.6804 71.7917 25.751C71.6198 25.8216 71.4353 25.8564 71.2494 25.8533V25.8533ZM71.2494 23.2658C71.0143 23.2481 70.7792 23.3017 70.575 23.4196C70.3707 23.5375 70.2067 23.7142 70.1044 23.9266C70.0021 24.139 69.9662 24.3774 70.0014 24.6105C70.0366 24.8437 70.1413 25.0608 70.3018 25.2336C70.4623 25.4063 70.6711 25.5268 70.9011 25.5791C71.131 25.6315 71.3714 25.6133 71.5909 25.527C71.8104 25.4407 71.9988 25.2903 72.1315 25.0954C72.2642 24.9005 72.3351 24.6701 72.3348 24.4343C72.3438 24.2855 72.3224 24.1365 72.2721 23.9962C72.2218 23.8559 72.1435 23.7272 72.0421 23.618C71.9406 23.5088 71.8181 23.4213 71.6819 23.3607C71.5456 23.3002 71.3985 23.2679 71.2494 23.2658V23.2658ZM70.9682 25.247H70.7133V23.6787H71.3066C71.6889 23.6787 71.8778 23.8105 71.8778 24.118C71.8835 24.1745 71.877 24.2315 71.8589 24.2853C71.8408 24.3391 71.8114 24.3884 71.7727 24.43C71.7341 24.4715 71.687 24.5044 71.6347 24.5263C71.5823 24.5483 71.5259 24.5589 71.4692 24.5573L71.9086 25.247H71.6186L71.2055 24.5749H70.9594L70.9682 25.247ZM71.2582 24.3684C71.4516 24.3684 71.623 24.3684 71.623 24.1268C71.623 23.8852 71.4384 23.9115 71.2802 23.9115H70.9682V24.3509L71.2582 24.3684Z" fill="#1E1E1C"/></svg>