<svg width="61" height="60" viewBox="0 0 61 60" fill="none" xmlns="http://www.w3.org/2000/svg"><g clip-path="url(#clip0)"><path fill-rule="evenodd" clip-rule="evenodd" d="M14.7097 26.1746L14.688 26.1311C14.6664 26.1127 14.648 26.0926 14.623 26.0725C14.6588 26.1 14.6883 26.1348 14.7097 26.1746Z" fill="#000"/><path fill-rule="evenodd" clip-rule="evenodd" d="M19.5355 20.7983C19.5475 20.6517 19.567 20.5059 19.5938 20.3613C19.6305 20.214 19.8121 20.0264 19.8771 19.9042C19.9538 19.7712 20.0174 19.631 20.0671 19.4856C20.132 19.2897 20.0671 18.9498 20.1837 18.7774C20.2867 18.5944 20.406 18.4212 20.5403 18.26C20.9885 17.8062 20.8736 18.0457 21.1152 17.7041C21.4318 17.2587 21.8417 16.8251 22.135 16.4869C22.3766 16.2089 22.3833 15.9845 22.8765 15.9276C23.1048 15.8494 23.2956 15.6881 23.4114 15.4755C23.4114 15.4454 23.8763 14.9314 24.2446 14.8594C24.5408 14.7876 24.8406 14.7317 25.1427 14.6919C25.3494 14.6735 25.7426 14.6266 25.9342 14.5865C26.2549 14.5236 26.5806 14.4899 26.9074 14.486H27.304C27.8355 14.4441 27.9705 14.3855 28.4704 14.4458C28.8468 14.4882 29.218 14.5684 29.5785 14.6852C29.7851 14.7572 30.1967 14.8996 30.3834 14.9933C31.1315 15.3684 31.1732 15.3667 31.5015 15.432C31.9464 15.5207 32.5446 15.6078 33.0428 15.8992C33.1445 15.9578 33.3944 16.0984 33.5577 16.1972C33.8677 16.383 34.0926 16.6844 34.3576 16.9892C34.7758 17.473 34.7992 17.54 35.1808 18.2449L35.6557 19.5174C35.744 19.6849 35.7556 19.9862 35.8223 20.2943C35.8889 20.6024 35.9806 20.5522 36.0006 21.0696C36.0338 21.3071 36.0533 21.5464 36.0589 21.7862C36.0472 22.0357 36.1839 22.245 36.0989 22.5011C36.0139 22.7573 36.0789 22.9398 36.0589 23.1391C36.0439 23.2914 35.9306 23.6012 35.9406 23.7937C35.9416 24.1739 35.8537 24.549 35.684 24.8887C35.604 25.0763 35.4924 26.3019 34.3776 27.5342C34.0293 27.9177 34.016 28.0365 33.4261 28.4283C33.3094 28.5206 33.1838 28.6008 33.0512 28.6678C32.9261 28.7055 32.8063 28.759 32.6946 28.8268C32.5363 28.9139 32.3613 29.0328 32.2197 29.1249C32.0092 29.2392 31.7853 29.3264 31.5531 29.3844C31.1369 29.5128 30.7014 29.5661 30.2667 29.5418C30.0451 29.5418 29.7851 29.5518 29.6002 29.5619C28.9137 29.6021 28.5637 29.6154 28.0172 29.4832C27.7789 29.4262 27.4139 29.3693 27.184 29.3241C26.5658 29.2036 26.0542 29.2103 25.5743 28.9022C24.9278 28.4903 23.818 27.8524 23.2831 27.4539C22.9282 27.1893 22.9998 27.0587 22.7282 26.7255C22.6265 26.6016 22.3133 26.4744 22.195 26.3404C21.8299 25.9257 21.5895 25.4153 21.5018 24.8687L21.3985 24.6845C21.3785 24.4802 21.3418 24.1185 21.3051 23.8741C21.2485 23.5024 21.1702 23.3333 21.2252 22.9599C21.2402 22.8527 21.2735 22.615 21.2851 22.5011C21.2968 22.3873 21.3551 22.2048 21.3635 22.0641C21.4035 21.4262 21.6267 21.247 21.6967 21.0294C21.8472 20.5231 22.0815 20.0459 22.3899 19.6179C22.5749 19.36 22.6665 19.5744 23.0831 19.0218C23.319 18.7362 23.5698 18.4634 23.8346 18.2047L24.1563 17.9954C24.3679 17.7721 24.6217 17.5934 24.9028 17.4697C25.3105 17.2819 25.7524 17.1804 26.2008 17.1717C26.6058 17.1382 27.6872 17.1717 27.9022 17.1851C28.0599 17.2023 28.2187 17.2068 28.3771 17.1985C28.6318 17.1923 28.8811 17.1239 29.1036 16.9992C29.2677 16.9148 29.4478 16.8663 29.6319 16.8571C29.8161 16.8478 30.0001 16.878 30.1717 16.9456C30.4542 17.1644 30.7241 17.3992 30.9799 17.6489C31.3282 17.9837 31.4398 18.1696 31.8514 18.3186C32.7979 18.6769 32.8345 19.0285 32.9179 19.1173C33.0051 19.2517 33.0719 19.3984 33.1162 19.5526C33.1739 19.7434 33.2563 19.9258 33.3611 20.0951C33.6261 20.4752 33.8943 21.175 34.0276 21.4814C34.151 21.7594 34.1226 22.0022 34.126 22.3186C34.1103 22.4508 34.1037 22.584 34.106 22.7171C34.1025 23.0003 34.0353 23.2791 33.9093 23.5325C33.7877 23.8875 33.6744 23.8992 33.5911 24.2023C33.5577 24.3312 33.3511 24.7364 33.3344 24.8184C33.2828 25.0679 33.2245 25.1633 32.8345 25.5551C32.6946 25.6958 32.6996 25.9352 32.5379 26.1512C32.3763 26.3672 32.0764 26.9884 30.9149 27.2245C30.6766 27.273 30.3784 27.2429 30.1817 27.2847C29.6502 27.4003 28.562 27.1491 28.4604 27.1257C28.0866 27.0688 27.7166 26.9894 27.3523 26.8879C27.044 26.7958 26.7641 26.6736 26.4875 26.5631C25.9583 26.3855 25.4663 26.1113 25.0361 25.7544C24.7345 25.5217 24.0679 24.4149 24.2029 23.1474C24.2429 22.769 24.2962 21.2772 24.8494 20.723C25.1123 20.4775 25.3906 20.2494 25.6826 20.0398C25.927 19.8796 26.1987 19.7661 26.4841 19.705C26.6508 19.6748 27.0873 19.4789 27.274 19.4588C27.4606 19.4387 28.2138 19.5928 28.3954 19.6045C29.0353 19.6464 29.4635 19.6782 29.8835 19.8305C30.2401 19.9595 30.4034 20.3328 30.615 20.5455C30.8816 20.8167 30.9166 21.2772 30.9716 21.7175L30.9916 21.9955C31.0319 22.3125 31.0386 22.633 31.0116 22.9515C31.0116 22.9515 30.9532 23.5677 30.7783 23.859C30.5633 24.2157 30.5417 24.3111 30.2601 24.5823C30.1283 24.7405 29.9455 24.8471 29.7435 24.8837C29.6635 24.8837 29.2852 25.1181 28.1605 24.9239C27.9822 24.8921 27.5173 24.7916 27.2956 24.6058C27.154 24.4886 26.2392 23.9863 26.3358 23.191C26.4791 22.0189 27.0207 21.8515 27.3673 21.8012C28.0088 21.7192 28.1221 21.9034 28.2321 22.0256C28.2841 22.0877 28.3304 22.1544 28.3704 22.2249C28.5671 22.5061 28.4887 22.5061 28.5154 22.6167C28.5219 22.6407 28.5229 22.666 28.5185 22.6905C28.514 22.715 28.5042 22.7383 28.4896 22.7585C28.4751 22.7787 28.4563 22.7954 28.4345 22.8074C28.4127 22.8193 28.3885 22.8262 28.3638 22.8276C28.1005 22.8745 27.7189 23.0252 27.6656 23.0336C27.5648 23.0553 27.4706 23.1006 27.3906 23.1658C27.3575 23.2194 27.3418 23.282 27.3456 23.345C27.4639 23.6564 27.9455 23.8473 27.9455 23.8473C28.0838 23.8875 28.5737 23.993 28.9453 23.6799C29.1703 23.4923 29.2652 23.1926 29.3169 22.8276C29.3302 22.7422 29.4069 22.6602 29.1919 22.1294C28.977 21.5987 28.9203 21.5518 28.8303 21.4932C28.7953 21.4697 28.762 21.4463 28.727 21.4195C28.5504 21.2922 28.3588 21.0478 27.9055 21.0578C27.7736 21.0476 27.6408 21.0543 27.5106 21.0779C27.4606 21.0913 27.259 21.1583 27.1773 21.1767C26.8541 21.2521 25.7509 21.8331 25.4543 22.7489C25.4433 22.8944 25.4433 23.0405 25.4543 23.1859C25.475 23.5837 25.6086 23.9671 25.8393 24.291C26.1192 24.6033 26.4265 24.8896 26.7574 25.1466C26.8557 25.2086 27.064 25.314 27.7955 25.5551C28.4271 25.7628 28.9736 25.8465 29.4069 25.7678C29.4852 25.7544 29.5585 25.741 29.6218 25.7326C29.6922 25.7181 29.7613 25.6979 29.8285 25.6723C30.1717 25.5602 30.465 25.4764 30.76 25.1952C31.0919 24.9102 31.3382 24.538 31.4715 24.1202C31.5698 23.8319 31.6259 23.5307 31.6381 23.2261C31.6636 22.8286 31.6636 22.4298 31.6381 22.0323L31.5998 21.5953C31.5248 20.9992 31.5115 20.4233 31.1332 20.0365C30.8516 19.7502 30.6866 19.5174 30.2351 19.355C29.7518 19.1792 29.3169 18.8762 28.6104 18.8309C28.4837 18.8226 28.1655 18.779 28.0355 18.7506C27.7614 18.6947 27.4805 18.6811 27.2023 18.7104C27.0257 18.7305 26.6374 18.8125 26.4291 18.851C26.1481 18.885 25.8814 18.9949 25.6576 19.1692L25.361 19.3483C25.0927 19.5409 24.9444 19.705 24.5495 20.0181C24.0804 20.4312 23.7658 20.993 23.658 21.6104C23.5572 22.1747 23.5042 22.7466 23.4997 23.3199C23.4997 24.3144 23.7297 25.0478 24.1063 25.5903C24.2479 25.7946 25.5226 26.9298 26.7991 27.4204C27.3573 27.638 28.0555 27.9227 28.3621 27.9578C30.4667 28.1805 31.8981 27.993 32.5063 27.2781C32.7133 27.0295 32.9396 26.7977 33.1828 26.5849C33.3994 26.4174 34.2359 25.1734 34.3276 24.8519C34.4076 24.5656 34.4642 24.2726 34.5842 23.9176L34.6642 23.4589C34.7417 23.2746 34.795 23.081 34.8225 22.8829C34.8058 22.7272 34.7242 22.4342 34.7242 22.2868C34.7341 21.8263 34.6601 21.3678 34.5059 20.9339C34.3209 20.517 34.4309 19.8054 34.031 19.5208C33.9543 19.4672 33.8393 19.4471 33.7877 19.3031C33.7189 19.0544 33.601 18.8221 33.4411 18.62C33.3811 18.5547 33.3294 18.4877 33.2745 18.4157C33.1436 18.2921 32.9903 18.1949 32.8229 18.1294C32.5346 17.9787 31.9214 17.2822 31.4665 17.103C31.3143 17.0613 31.1725 16.9884 31.0499 16.8887C31.1315 16.9841 30.535 16.4517 30.5867 16.4986C30.407 16.3449 30.1776 16.2627 29.9418 16.2675C29.6326 16.2619 29.3234 16.272 29.0153 16.2976C28.8771 16.3193 28.7402 16.3489 28.6054 16.3864C28.3607 16.4912 28.1007 16.5557 27.8355 16.5773C27.3856 16.5471 26.6224 16.44 26.3358 16.4383C25.6926 16.4412 25.0576 16.584 24.4745 16.8569C24.0216 17.1561 23.5895 17.4862 23.1814 17.8447C22.9182 18.116 22.5932 18.3203 22.3366 18.5664C22.1411 18.7664 21.9865 19.0031 21.8817 19.2629C21.5599 19.9106 21.2756 20.5764 21.0302 21.2571C20.9136 21.6003 20.7969 21.7092 20.7736 22.0943C20.7652 22.2265 20.6653 22.5262 20.6536 22.6317C20.6419 22.7372 20.6536 23.1039 20.6353 23.2077C20.605 23.5127 20.6179 23.8205 20.6736 24.1219C20.7086 24.3513 20.8302 24.5539 20.8502 24.7498V24.795C20.9119 25.3994 21.4168 26.2902 21.87 26.8042C21.9783 26.9298 22.08 27.052 22.1783 27.1726C22.4655 27.5593 22.8113 27.8983 23.2031 28.1772C23.9646 28.6979 24.7211 28.9357 25.2427 29.3492C26.3125 30.2031 26.3891 29.798 27.0457 29.9252C27.2673 29.9687 27.5556 30.0709 27.7772 30.1245C28.4253 30.2778 29.0927 30.3314 29.7568 30.2835C29.9234 30.2735 30.2417 30.2617 30.45 30.2634C30.9577 30.2635 31.4611 30.1693 31.9347 29.9855C32.3463 29.8398 32.6229 29.7862 32.8445 29.6506C32.9812 29.5635 32.9828 29.5083 33.1212 29.4313C33.2771 29.3826 33.4356 29.3429 33.5961 29.3124C33.701 29.2889 33.7344 29.1717 33.9143 29.0529C34.5975 28.6025 34.8708 28.4166 35.2124 27.983C35.3191 27.8507 35.419 27.7251 35.5273 27.5978C35.9456 27.1173 36.1789 25.2705 36.3489 25.016C36.6371 24.5807 36.8488 23.268 36.8621 23.1273C37.0287 20.8921 36.7504 20.2407 36.7055 19.9913C36.6569 19.6338 36.557 19.2852 36.4088 18.9565C36.4088 18.9565 35.9889 17.8849 34.8158 16.6627C34.3636 16.2247 33.8796 15.8212 33.3678 15.4554C32.3146 14.7757 32.5113 14.9749 32.1297 14.8611C31.4716 14.7968 30.8286 14.6237 30.2267 14.3487C30.0601 14.275 29.8018 14.203 29.6102 14.1361C29.2594 14.0152 28.896 13.9354 28.5271 13.8983C28.0405 13.838 26.3692 13.4278 23.8613 14.3219C23.5514 14.4324 22.8298 14.8075 22.8182 14.8125C22.2766 15.0904 21.85 15.5961 21.6151 15.8673C21.2918 16.2374 20.9785 16.3295 20.6836 16.8418C20.5789 17.0048 20.4595 17.1578 20.327 17.2989C20.1051 17.5061 19.9183 17.7481 19.7738 18.0155C19.7171 18.1428 19.7388 18.2432 19.6555 18.3722C19.4517 18.6509 19.279 18.9513 19.1406 19.2679C19.1174 19.3286 19.0895 19.3874 19.0573 19.4438C19.3022 19.9276 19.0589 20.512 19.5355 20.7983Z" fill="#003A78"/><path fill-rule="evenodd" clip-rule="evenodd" d="M48.0349 21.0245C47.9849 20.7063 48.0349 20.3095 48.0149 19.8708C47.9932 19.392 48.0315 18.6988 47.8766 18.1412C47.7966 17.8582 47.8332 17.5569 47.7666 17.304C47.5804 16.67 47.339 16.0537 47.0451 15.4622C46.7613 14.7691 46.3778 14.1214 45.9069 13.5401C45.537 13.1148 44.4072 10.8427 44.2689 10.5263C44.0173 9.9553 43.7274 9.40611 43.4491 9.12649C42.9891 8.65418 42.4597 8.25552 41.8794 7.9444C41.5812 7.79622 41.2983 7.61901 41.0346 7.41531C40.6347 7.1022 40.3114 6.70371 39.9265 6.38056C39.6384 6.09813 39.2843 5.89313 38.8967 5.78449C38.5534 5.67398 38.0318 5.53333 37.9302 5.32069C37.8142 5.12386 37.6856 4.93481 37.5453 4.75476C37.4354 4.65659 37.3062 4.58264 37.1662 4.53765C37.0261 4.49267 36.8783 4.47765 36.7321 4.49356C36.6188 4.49356 36.4571 4.48519 36.3655 4.48519C36.1289 4.48519 36.0722 4.37133 35.9106 4.30603C35.7123 4.22734 35.5623 3.91926 35.294 3.85563C35.0257 3.79201 34.7225 3.89917 34.4692 3.89582C34.2921 3.87113 34.1176 3.83079 33.9476 3.77526C33.6674 3.7144 33.395 3.62113 33.1361 3.49732C32.7645 3.32989 32.3363 3.10217 31.9097 3.07873C31.5759 3.07511 31.2431 3.11564 30.9199 3.19929C30.7249 3.2378 30.5733 3.31984 30.405 3.33826C29.4052 3.44877 28.8653 3.29975 28.4254 3.13901C28.1021 3.0218 27.7188 3.14906 27.3739 3.02515C27.1656 2.94981 26.5241 3.02515 26.2291 3.0938C26.0549 3.17876 25.8723 3.24498 25.6842 3.29138C25.1943 3.40021 24.5495 3.5442 24.0879 3.38179C23.5013 3.17417 22.5299 3.26459 22.2916 3.68987C22.2242 3.81531 22.129 3.92355 22.0135 4.00627C21.8979 4.089 21.765 4.144 21.625 4.16706C21.3834 4.28594 21.0302 4.20892 20.7185 4.31273C20.4919 4.38808 20.332 4.69951 20.1253 4.74974C19.7936 4.82001 19.4759 4.94566 19.1855 5.12144C19.0372 5.21521 18.8523 5.20014 18.6606 5.36757C18.519 5.48813 18.3723 5.78449 18.284 5.84476C18.1186 5.92368 17.9469 5.98865 17.7708 6.03899C17.4742 6.13443 17.2059 6.17796 17.0376 6.30186C16.7329 6.54717 16.4424 6.80992 16.1678 7.08881C16.0211 7.2261 15.8695 7.36842 15.7162 7.50237C15.527 7.64408 15.327 7.7706 15.118 7.88078C14.823 8.03222 14.5463 8.21703 14.2931 8.43164C14.0042 8.73312 13.7369 9.05485 13.4933 9.39439C13.3383 9.59866 13.1934 9.79289 13.0451 9.96702C12.8219 10.2329 12.626 10.5207 12.4602 10.826C12.3602 10.9934 12.2569 11.1793 12.1119 11.3885C11.9669 11.5978 11.822 11.772 11.662 11.9662C11.4187 12.2609 11.0721 12.4869 10.8705 12.8519C10.7804 13.0222 10.7046 13.1998 10.6439 13.3827C10.5772 13.5903 10.1606 14.6267 10.079 14.9064C10.0406 15.0386 9.96732 15.2948 9.934 15.3718C9.80569 15.6632 9.44909 15.9763 9.36578 16.1136C9.08083 16.5874 8.70924 17.0412 8.5476 18.0106C8.49095 18.3555 8.52927 22.8512 8.52927 23.1224C8.52927 23.4573 8.61926 23.8524 8.58426 24.2225C8.55925 24.6161 8.55925 25.0109 8.58426 25.4046C8.60259 26.1145 8.82255 26.3355 9.03917 26.9868C9.10416 27.1777 9.13915 27.7152 9.20581 27.9278C9.2701 28.1236 9.35093 28.3135 9.44743 28.4954C9.51525 28.6234 9.57535 28.7553 9.62739 28.8906C9.67072 29.0078 9.70904 29.1652 9.7507 29.3326C9.7978 29.5498 9.8613 29.763 9.94066 29.9705C10.1939 30.575 10.5272 30.8311 10.7438 31.1643C10.9105 31.4222 10.9621 31.752 11.1471 32.1271C11.2315 32.3399 11.2978 32.5594 11.3454 32.7834C11.3952 33.0116 11.4626 33.2355 11.547 33.4532C11.6942 33.7677 11.9054 34.0478 12.1669 34.2753C12.24 34.3419 12.3085 34.4135 12.3719 34.4896C12.5143 34.6468 12.6836 34.7773 12.8718 34.8747C13.0082 34.9487 13.1342 35.0404 13.2467 35.1476C13.4717 35.4671 13.734 35.7583 14.0282 36.0149C14.1996 36.1494 14.3565 36.3014 14.4964 36.4687C16.0411 38.488 17.4958 38.9986 18.9472 39.7153C19.2805 39.8827 19.6771 40.1707 20.3553 40.385C20.9032 40.5513 21.4594 40.6888 22.0216 40.7969C22.3741 40.8293 22.7202 40.9116 23.0498 41.0413C23.9662 41.4549 24.6894 41.4884 25.1077 41.4382C25.9975 41.331 26.7907 41.7161 27.8588 41.6776H28.692C29.1586 41.6776 29.6918 41.5939 30.1384 41.6173C30.8916 41.6558 31.2215 41.7395 31.8047 41.6776C32.1959 41.6053 32.58 41.4988 32.9528 41.3595C33.2206 41.2977 33.4915 41.2507 33.7643 41.2188C34.6508 41.0648 35.4973 40.7416 36.2388 40.5491C36.3505 40.5189 36.4805 40.4955 36.6154 40.4486C37.0703 40.2812 37.3086 40.2812 37.8819 40.0518C38.7733 39.6935 39.8098 39.0003 40.3814 38.5951C40.8217 38.2879 41.2323 37.9398 41.6078 37.5553C42.221 36.9509 42.5943 36.5507 42.6243 36.5139L42.6459 36.3716L42.4793 36.2293L42.0794 36.2862C42.0694 36.2945 41.5611 36.6947 40.5147 37.5336C40.0798 37.8818 39.7715 38.1012 39.1716 38.5382C38.7512 38.8299 38.3049 39.0821 37.8385 39.2916C37.3386 39.5478 36.5305 39.5813 35.9856 39.8693C34.7775 40.5055 34.6608 40.3716 33.3327 40.5056C33.0611 40.5307 32.9495 40.6428 32.6795 40.7232C32.4349 40.8092 32.1809 40.8654 31.923 40.8906C31.4231 40.9442 31.5498 41.0815 31.0332 40.976C30.5544 40.8934 30.0666 40.8777 29.5835 40.9292C29.4452 40.9526 28.9503 40.8856 28.812 40.8839L28.0421 40.8387C26.999 40.8187 25.6326 40.6948 24.8227 40.7935C24.5511 40.8254 23.8596 40.5173 23.283 40.3833C22.7065 40.2494 22.3432 40.0384 22.1016 40.0183C21.3034 39.9547 20.8919 39.6918 20.6236 39.6047C17.2909 38.5315 17.5358 38.7492 14.923 35.9848C14.6397 35.6851 14.4631 35.5344 14.3598 35.4406C14.1198 35.2196 14.0882 35.1058 13.8166 34.7324C13.6522 34.5394 13.4518 34.3807 13.2267 34.2652C13.1176 34.2063 13.0148 34.1362 12.9201 34.0559C12.8346 33.95 12.741 33.8509 12.6401 33.7596C12.4466 33.5958 12.2898 33.3927 12.1802 33.1635C12.112 32.9852 12.0563 32.8022 12.0136 32.616C11.9547 32.343 11.8704 32.0762 11.762 31.819C11.5989 31.4885 11.4135 31.1696 11.2071 30.8646C10.9988 30.5465 10.7905 30.4243 10.5622 29.8784C10.5039 29.7411 10.4672 29.3627 10.4189 29.1685C10.3795 28.9935 10.3306 28.8207 10.2723 28.6511C10.2108 28.4911 10.1407 28.3346 10.0623 28.1823C9.98303 28.0361 9.91667 27.8831 9.86401 27.7252C9.79569 27.5042 9.72737 27.3016 9.66238 27.1074C9.4574 26.555 9.34043 25.9735 9.31579 25.3845C9.30186 24.9975 9.31132 24.61 9.34411 24.2241C9.37911 23.8575 9.47409 23.459 9.47409 23.1375C9.47409 22.8545 9.47409 22.5699 9.47409 22.2819C9.45243 21.5887 9.42243 20.9257 9.39743 20.3262C9.37744 19.8156 9.34745 20.4317 9.35744 18.9734C9.36578 17.7796 10.0606 16.8118 10.3239 16.3748C10.4504 16.1383 10.5618 15.8939 10.6572 15.6431C10.7105 15.5242 10.8388 15.4221 10.8855 15.2597C10.9588 15.0068 11.0521 14.7239 11.0988 14.4392C11.1443 14.1271 11.2145 13.8192 11.3087 13.5183C11.532 12.9658 11.742 12.9809 12.1952 12.4317C12.3619 12.2341 12.5285 12.0298 12.6818 11.8055C12.8351 11.5811 12.9601 11.3701 13.0617 11.1943C13.205 10.9259 13.3759 10.6734 13.5716 10.4409C13.7383 10.2517 13.8932 10.039 14.0465 9.83475C14.2686 9.52352 14.5125 9.22864 14.7764 8.95236C14.9876 8.78374 15.2148 8.63625 15.4546 8.51201C15.705 8.38081 15.9431 8.22727 16.1661 8.05324C16.3327 7.91092 16.4877 7.76357 16.6393 7.62125C16.9026 7.37512 17.1976 7.27131 17.4725 7.06537C17.6475 6.96032 17.8329 6.87391 18.0257 6.80752C18.2549 6.72184 18.4692 6.60035 18.6606 6.44753C18.7839 6.36381 18.7956 6.12438 19.0855 5.91174C19.2522 5.78951 20.7519 5.21186 21.0352 5.11642C21.3684 5.00256 22.045 4.75811 22.045 4.75811C22.2631 4.63234 22.4917 4.5259 22.7282 4.43998C23.0651 4.17409 23.4829 4.03279 23.9113 4.03981C23.9113 4.03981 24.4895 4.17711 25.7259 4.02307C26.1775 3.96614 26.1758 3.67313 27.4872 3.76187C27.6805 3.77526 27.7988 3.83722 28.0938 3.87238C27.9655 3.85731 30.0001 4.20725 30.3983 4.16037C30.5966 4.13692 30.8049 4.09674 31.0049 4.05655C31.2989 3.98377 31.6003 3.94556 31.903 3.9427C32.2291 3.98705 32.5449 4.08849 32.8362 4.24241C33.3246 4.50911 33.8753 4.63921 34.4309 4.61914C34.6369 4.61734 34.8427 4.63415 35.0457 4.66937C35.4331 4.75351 35.814 4.86542 36.1855 5.00424C36.3605 5.05949 37.2153 5.50654 37.2703 5.54003C38.0901 6.06243 37.6752 6.15284 39.1699 6.87951C39.8198 7.19429 40.648 7.91761 41.4228 8.56559C41.9627 9.01599 42.2377 8.9172 42.9109 9.73764C42.9675 9.80628 43.5041 10.6384 43.5924 10.8394C43.8324 11.3835 43.894 11.7284 44.0923 11.9712C44.2189 12.1253 44.7205 12.8 44.8438 12.9859C45.0371 13.2789 45.2038 13.6121 45.4187 13.9018C45.842 14.471 46.3119 15.0738 46.4785 15.6983C46.6451 16.3229 46.7485 16.9139 46.9234 17.5803C46.9901 17.8382 47.0401 18.1278 47.12 18.4175C47.2788 18.8799 47.3621 19.365 47.3667 19.8541C47.3416 20.269 47.3534 20.6853 47.4017 21.0981C47.5061 21.7636 47.574 22.4344 47.6049 23.1073C47.6166 23.397 47.2533 23.7135 47.12 24.0667C46.9867 24.42 46.7868 25.0881 46.8868 25.3527C47.15 26.081 46.3569 28.4502 45.887 29.4364C45.6867 29.9165 45.4412 30.3763 45.1538 30.8094C44.8955 31.156 44.5772 31.3502 44.3423 31.6248C44.1073 31.8994 44.009 31.9596 43.749 32.261C42.2643 33.9923 40.8396 35.5227 38.835 36.6277C38.4567 36.8354 38.0635 37.0346 37.6986 37.259C37.319 37.4864 36.919 37.6776 36.5038 37.8299C36.2688 37.9237 35.9506 37.9572 35.7339 38.0526C35.3157 38.2351 34.8508 38.3691 34.5775 38.4796C34.4109 38.5482 34.1193 38.5817 33.2861 38.565C31.4065 38.9651 29.6718 39.223 28.1321 39.2029C27.6672 39.2029 27.2439 39.0154 26.8257 38.9836C26.2208 38.9384 25.8892 38.8647 25.281 38.8647C24.7261 38.8647 23.483 38.6035 23.483 38.6035C23.2747 38.5549 23.2581 38.436 23.1114 38.3557C22.91 38.2702 22.7022 38.2008 22.4899 38.1481C22.2466 38.0292 21.4901 37.8366 21.1568 37.6458C20.9785 37.5403 20.8402 37.4783 20.7152 37.413C20.5662 37.3449 20.422 37.2666 20.2836 37.1786C19.942 36.9559 19.4505 36.7466 19.1022 36.544C18.5174 36.2121 17.9641 35.8271 17.4492 35.3937L17.3225 35.2883C16.9962 35.024 16.7118 34.7112 16.4794 34.3607C16.4081 34.2419 16.3452 34.1182 16.2911 33.9906C16.203 33.7658 16.0823 33.5553 15.9328 33.3661C15.6133 32.9855 15.334 32.5725 15.0997 32.1338C14.933 31.8542 14.7664 31.5645 14.5814 31.2966C14.3193 30.8897 14.1209 30.4447 13.9932 29.9772C13.8847 29.6237 13.7539 29.2776 13.6016 28.9408C13.5411 28.7496 13.5097 28.5504 13.5083 28.3497C13.5048 28.0763 13.4587 27.8051 13.3717 27.5461C13.2334 27.2112 13.0634 26.8663 12.9001 26.5414C12.6301 25.9939 12.2452 25.3845 12.0919 24.8252C11.9499 24.2492 11.8563 23.6623 11.812 23.0705C11.812 23.0705 11.812 22.2903 11.862 21.7042C11.8953 21.2773 11.822 20.8821 11.9269 20.338C12.1786 19.0219 12.4168 17.8449 12.7851 16.7666C13.1575 15.7346 13.6134 14.735 14.1482 13.7779C14.3363 13.4998 14.5681 13.2544 14.8347 13.0512C15.0961 12.843 15.3307 12.6028 15.5329 12.3362C15.6565 12.1866 15.809 12.0635 15.9811 11.9746C16.201 11.8532 16.3983 11.6946 16.5644 11.5058C16.7321 11.2802 16.8606 11.0277 16.9443 10.759C17.0029 10.555 17.1015 10.3649 17.2342 10.1998C17.4009 10.0323 17.5675 9.83642 17.7341 9.65392C18.0174 9.33077 18.3573 9.09803 18.5823 8.80167C19.0389 8.19723 19.5221 7.72841 20.5036 7.54088C20.8152 7.48228 21.4734 6.94481 22.075 6.985L22.3049 6.90463L22.4349 6.85775C22.6841 6.75056 22.9519 6.69367 23.2231 6.69031C23.6146 6.68194 24.5745 6.61162 24.9777 6.63004C25.5993 6.6585 25.5076 6.77236 25.9442 6.72715C26.1558 6.70538 26.3708 6.68696 26.5857 6.67357C27.0756 6.64008 27.6305 6.70873 28.1838 6.50613C29.0447 6.23231 29.9561 6.15733 30.8499 6.28679C31.2272 6.33743 31.5966 6.43531 31.9497 6.57813C32.2528 6.7095 32.5639 6.82135 32.8812 6.913C33.1678 6.985 33.4994 7.03523 33.821 7.08044C34.2357 7.12772 34.6451 7.21348 35.0441 7.33661C35.4966 7.51322 35.9341 7.72656 36.3522 7.97454C36.5888 8.10849 36.8221 8.26085 37.042 8.37304C38.1268 8.92725 39.0266 9.74768 39.8965 10.5413L40.4114 11.0068C40.9716 11.5341 41.48 12.1144 41.9294 12.7397C42.0794 12.934 42.2327 13.1349 42.3893 13.3308C42.7776 13.813 42.9559 14.5531 43.1225 15.1341C43.1963 15.3814 43.2492 15.6346 43.2808 15.8909C43.2808 16.0935 43.4774 16.204 43.6141 16.4953C43.7507 16.7728 43.9136 17.0363 44.1006 17.2823C44.2356 17.4715 44.2806 17.741 44.3739 17.9185C44.6655 18.4711 44.7072 19.2714 44.7505 19.9679L44.7905 20.2057C44.8055 20.4635 44.8338 20.7632 44.8688 21.0429C44.9322 21.5247 44.9322 22.0127 44.8688 22.4945L44.8105 23.0923C44.6965 24.0056 44.4842 24.9039 44.1773 25.7712C44.1106 25.9655 43.5307 26.441 43.3141 27.3435C43.2675 27.5377 43.0342 28.4904 42.9059 28.7332C42.7776 28.976 42.6293 29.4716 42.396 29.6708C42.0227 29.9856 41.7428 30.1882 41.5628 30.5247C40.9562 31.675 39.9848 31.9446 39.7815 32.2359C39.4599 32.6964 39.5499 32.7382 38.7567 33.2891L38.2568 33.6876C38.0102 33.9036 37.7186 34.3707 36.3555 34.7022C36.1214 34.775 35.9056 34.8972 35.7223 35.0606C35.5756 35.2123 35.413 35.3476 35.2374 35.4641C34.9791 35.6081 34.9141 35.7202 34.1193 35.8358C33.7656 35.8656 33.416 35.9324 33.0761 36.035C32.5762 36.2426 32.3046 36.1941 31.6514 36.4134C31.3581 36.5105 31.0082 36.5122 30.6233 36.5926C30.0551 36.7098 29.7818 36.6914 29.6135 36.7902C29.4718 36.8739 29.4235 36.8856 28.9986 36.9492C28.742 36.9894 28.3987 37.1367 28.0688 37.0899C27.8771 37.0614 27.5455 36.9794 27.3756 36.9693C26.5774 36.9224 26.2275 36.683 25.1393 36.6914C24.9094 36.6914 24.6161 36.5859 24.3478 36.5524C23.0314 36.385 21.5517 35.1208 21.4117 35.0103C21.2615 34.878 21.1017 34.7571 20.9335 34.6487C20.8102 34.5817 20.287 34.2652 20.092 34.1464C19.5321 33.8031 18.9556 33.1987 18.5473 32.8688C18.403 32.6848 18.2348 32.521 18.0474 32.3816C17.8601 32.2557 17.6918 32.1035 17.5475 31.9295C17.3597 31.6359 17.2054 31.3219 17.0876 30.9935C16.9843 30.739 16.7793 30.5046 16.6443 30.2485C16.3759 29.714 16.0362 29.2189 15.6345 28.7767C15.1346 28.2376 15.1596 27.2698 15.1063 27.0856C15.093 27.0421 15.083 26.9851 15.0713 26.9182C15.0352 26.6173 14.9017 26.3367 14.6914 26.1195L14.7131 26.163C14.6917 26.1232 14.6622 26.0884 14.6264 26.0609C14.6514 26.081 14.6697 26.1011 14.6914 26.1195C14.5748 25.9002 14.1715 25.1919 14.1498 25.0513V24.7331C14.1689 24.5103 14.1689 24.2862 14.1498 24.0634C14.0848 23.7023 14.0652 23.3344 14.0915 22.9684C14.1512 22.3135 14.2711 21.6655 14.4498 21.0328C14.5464 20.6795 14.7481 20.497 14.9697 19.9981C15.0452 19.7724 15.0976 19.5396 15.1263 19.3032C15.2186 18.7584 15.3706 18.2255 15.5796 17.7143C15.7095 17.4413 15.8295 17.1383 15.9545 16.8168C16.1545 16.2504 16.4119 15.7062 16.7227 15.1927C16.9706 14.8511 17.2538 14.5368 17.5675 14.255C17.7558 14.0759 17.9491 13.8884 18.1357 13.6824C18.3033 13.4907 18.4369 13.2715 18.5306 13.0344C18.6684 12.7513 18.8782 12.5099 19.1389 12.3346C19.3372 12.1956 19.6788 12.132 19.8504 11.9495C20.1675 11.6159 20.5077 11.3054 20.8685 11.0202C21.4134 10.6485 21.8483 10.0541 22.4215 9.7728C22.625 9.66059 22.8416 9.57453 23.0664 9.51662C23.2431 9.5049 24.3745 9.31235 24.8361 9.21858C24.8361 9.21858 26.979 9.05115 27.2189 9.07459C27.5022 9.09636 28.517 8.75981 28.7786 8.70791C29.0833 8.6365 29.3956 8.60332 29.7085 8.60912C31.5164 8.77656 32.7629 9.6941 32.9778 9.76275C33.1328 9.81131 34.0776 10.2651 34.2809 10.3588C34.4475 10.4325 34.6908 10.553 34.8758 10.6183C35.0991 10.712 35.312 10.8294 35.5107 10.9683C35.7362 11.0934 35.9707 11.2014 36.2122 11.2914C36.4893 11.3861 36.751 11.5216 36.9887 11.6933C37.1679 11.8595 37.3202 12.0527 37.4403 12.2659C37.5896 12.5188 37.768 12.7531 37.9718 12.9641L38.3968 13.366C38.94 13.8683 39.5332 14.4694 39.8031 14.9332C39.9081 15.114 39.8715 15.3685 39.8831 15.4706C39.9031 15.6381 40.0581 15.8239 40.2164 16.1069C40.3193 16.2846 40.4111 16.4686 40.4913 16.6577C40.6705 16.9955 40.8809 17.3155 41.1196 17.6138C41.4345 18.019 41.5061 18.3756 41.6311 18.8963C41.7011 19.186 41.6528 19.6264 41.7411 19.8859C41.8294 20.1454 41.8177 20.6494 41.8594 20.8805C42.0394 21.8851 42.0094 22.1245 41.9977 22.4912C41.9977 22.6452 41.9894 22.9851 41.9977 23.1475C41.9977 23.1475 41.9794 23.9546 41.4628 25.3158C41.406 25.6383 41.3015 25.9503 41.1529 26.2417C41.0379 26.441 40.423 27.027 40.2164 27.9161C40.1804 28.0627 40.1243 28.2036 40.0498 28.3347C39.9098 28.5725 39.7979 28.8259 39.7165 29.0898C39.5994 29.4137 39.4306 29.7163 39.2166 29.9856L39.1183 30.1647C38.9593 30.3975 38.7874 30.6211 38.6034 30.8345C38.3875 31.0986 38.1255 31.321 37.8302 31.4908C37.5219 31.6717 37.317 31.9396 37.0787 32.1606C36.9637 32.2694 36.1605 32.8872 35.8706 33.0965C35.6173 33.279 35.329 33.5034 35.0374 33.6725C34.9074 33.7495 34.6608 33.6842 34.4442 33.6926C34.2276 33.701 33.0311 34.133 32.8012 34.1949C32.5712 34.2569 32.243 34.5281 31.9097 34.57L31.7114 34.6101C31.4909 34.6325 31.2725 34.6723 31.0582 34.729C30.7966 34.796 30.355 34.95 30.1084 34.9484C29.3402 34.9484 28.9269 35.0003 28.0704 34.7977C27.6522 34.6989 27.3939 34.5365 27.079 34.5097C26.7405 34.4698 26.412 34.3688 26.1092 34.2117C25.9875 34.1597 25.6376 34.2636 25.4726 34.1447C25.3114 34.021 25.1415 33.9091 24.9644 33.8098C24.7228 33.6859 23.6313 33.0748 23.2781 32.9944C22.8815 32.9073 22.6482 32.621 22.3132 32.3766L21.795 32.0166L21.2135 31.3351C20.5469 30.8479 20.342 30.8964 19.8087 30.374L19.6421 30.2166C19.2238 29.8081 18.8939 29.4866 18.6423 29.0446C18.5627 28.8858 18.4964 28.7205 18.444 28.5507C18.3766 28.3349 18.2896 28.1259 18.184 27.9261C17.8924 27.4238 17.7958 26.9617 17.6591 26.5063C17.5658 26.1949 17.3942 25.8918 17.3592 25.5636C17.3543 25.4209 17.3615 25.2781 17.3809 25.1367C17.4009 24.9341 17.3809 24.7264 17.3992 24.5423C17.4809 23.9311 17.1759 23.983 17.1443 23.7905C17.0977 23.343 17.1219 22.8909 17.2159 22.451C17.2518 22.3045 17.2963 22.1602 17.3492 22.019C17.4325 21.7762 17.3942 21.4481 17.4409 21.145C17.4614 20.9599 17.4681 20.7735 17.4609 20.5874C17.4616 20.3114 17.5014 20.0368 17.5792 19.772C17.8075 19.3334 17.8341 18.8913 17.8958 18.379C17.9537 17.8532 18.1773 17.3599 18.534 16.9708C18.8672 16.6075 19.4888 15.9311 19.9554 15.6967C20.2053 15.5711 21.1218 14.8595 21.3318 14.5564C22.3916 12.9926 22.6932 13.0964 22.9215 13.0026C23.2092 12.8909 23.5065 12.8057 23.8096 12.7481C24.0262 12.7029 24.1845 12.5422 24.3695 12.4719C25.9475 11.8808 26.1775 11.9076 26.4708 11.8289C26.8169 11.7548 27.1686 11.71 27.5222 11.695C27.7638 11.6782 28.9669 11.6364 29.3169 11.6364C29.5502 11.6364 29.8168 11.6899 30.0101 11.6765C30.335 11.6548 30.54 11.782 30.9349 11.8339C31.1734 11.8971 31.3991 12.0019 31.6014 12.1437C31.8455 12.3042 32.1101 12.431 32.3879 12.5204C32.813 12.6297 33.2104 12.8276 33.5544 13.1014C33.706 13.2119 33.9593 13.1902 34.1276 13.2688C34.7391 13.5552 35.1391 14.1228 35.6273 14.5229C36.0439 14.8578 36.6138 15.2814 37.052 15.8624C37.6747 16.7024 38.1157 17.664 38.3468 18.6854L38.4767 19.2379C38.6017 19.757 38.5801 20.3396 38.6167 20.8152C38.645 21.2103 38.645 21.6858 38.695 22.0676C38.7906 22.757 38.7573 23.4583 38.5967 24.1354C38.4101 25.0362 38.2884 25.8834 38.0968 26.3439C38.0585 26.4376 37.9952 26.6235 37.9568 26.7022C37.8703 26.9198 37.7713 27.1323 37.6602 27.3384C37.4719 27.6733 37.302 28.1589 36.9687 28.4921C36.8204 28.6377 36.6704 28.9944 36.5521 29.1283C36.4105 29.2958 36.3472 29.2807 36.2188 29.4464C35.9121 29.7998 35.5516 30.1022 35.1507 30.3422L34.8341 30.6604C34.5592 30.8802 34.2734 31.0859 33.9776 31.2765C33.8593 31.3368 32.7562 31.8123 32.5762 31.8927C32.028 32.1388 32.0997 32.0601 31.7847 32.1321L31.5281 32.2108C31.1832 32.3249 30.823 32.3853 30.46 32.39C30.2475 32.3774 30.0343 32.3909 29.8251 32.4301C28.787 32.7282 28.9069 32.4871 28.3671 32.5407C27.7388 32.6043 26.5891 32.2694 26.4391 32.2543C26.0542 32.2158 25.7492 32.2543 24.9494 31.7637C24.6395 31.5745 24.3595 31.2799 24.1245 31.1777C23.8561 31.1026 23.6105 30.9617 23.4097 30.7675C23.4097 30.7675 22.8415 30.297 22.7232 30.22C22.5331 30.0767 22.3573 29.9152 22.1983 29.7378C21.9519 29.5024 21.6777 29.2983 21.3818 29.13C21.2884 29.0798 21.2451 28.7951 21.1751 28.6511C21.1051 28.5071 20.9902 28.4502 20.8985 28.2928C20.8294 28.1906 20.7507 28.0953 20.6636 28.0082C20.4819 27.7972 20.4569 27.8793 20.0903 27.3719C20.0903 27.3719 19.9804 27.392 20.0403 26.6653C20.0687 26.3305 19.4471 26.2769 19.5788 25.5352C19.6054 25.3828 19.5121 24.9257 19.3738 24.7917C19.2932 24.7291 19.2293 24.6474 19.1877 24.5539C19.1462 24.4604 19.1282 24.3581 19.1355 24.2559C19.1239 24.0299 19.3022 23.9328 19.3671 23.6917C19.447 23.4933 19.4564 23.2734 19.3938 23.0688C19.3571 22.8565 19.3504 22.6401 19.3738 22.4259C19.4027 22.1949 19.416 21.9622 19.4138 21.7294C19.4048 21.5355 19.4244 21.3414 19.4721 21.1534C19.4888 21.0697 19.5021 20.9391 19.5171 20.8068C19.0405 20.5205 19.2838 19.9361 19.0339 19.4589C18.9922 19.5326 18.9489 19.6063 18.9189 19.6615C18.8572 19.786 18.8172 19.9203 18.8006 20.0583C18.7456 20.2727 18.8173 20.2827 18.8006 20.5154C18.7873 20.6996 18.7489 21.063 18.7206 21.212C18.6863 21.4967 18.693 21.7848 18.7406 22.0676C18.759 22.1928 18.7657 22.3195 18.7606 22.446C18.7736 22.6224 18.7686 22.7997 18.7456 22.9751C18.6926 23.1499 18.6596 23.3302 18.6473 23.5125C18.608 23.7233 18.5482 23.9296 18.469 24.1287C18.3996 24.4289 18.3861 24.7394 18.429 25.0446C18.4557 25.3141 18.6623 25.5737 18.7856 25.7612C18.8958 25.9318 19.0159 26.0956 19.1455 26.2518C19.2838 26.6386 19.1205 27.0304 19.2205 27.2916C19.3871 27.7101 19.4388 27.6448 19.4388 27.6499L19.4955 27.7185L19.6288 27.8273C19.769 27.9733 19.8819 28.1435 19.962 28.3297C20.1037 28.6042 20.2086 29.0798 20.4736 29.2572C20.649 29.4542 20.8529 29.6236 21.0785 29.7595C21.324 29.9027 21.5516 30.0747 21.7567 30.2719C21.9516 30.4393 22.5149 30.9316 22.5149 30.9316C22.5615 30.9668 23.3347 31.6549 23.4164 31.7068C23.5697 31.8023 23.583 31.9329 23.9363 32.0886C24.1445 32.179 25.7692 32.8035 26.0342 32.8789C26.3741 32.9536 26.7179 33.0095 27.064 33.0463C27.0406 33.058 28.4104 33.3644 28.4104 33.3644C28.6553 33.3242 29.7768 33.3644 29.7768 33.3644C31.0632 33.3058 32.5079 32.7684 33.1444 32.6562C33.357 32.5882 33.5602 32.4937 33.7493 32.3749L33.931 32.2845C34.1045 32.2148 34.2718 32.1302 34.4309 32.0316C34.692 31.8352 34.9756 31.6711 35.2757 31.5427C35.987 31.1578 36.6151 30.6347 37.1237 30.004C37.252 29.8366 37.382 29.5921 37.5186 29.4264C37.6101 29.2714 37.7109 29.1221 37.8202 28.9793C37.6619 29.1384 38.765 27.6181 38.7833 27.459C38.8076 27.2858 38.8641 27.1188 38.95 26.9667C38.99 26.883 39.0333 26.7892 39.08 26.6787C39.3382 26.0475 39.4549 25.2857 39.5998 24.5741L39.6932 24.3279C39.5815 23.4991 39.7448 22.6938 39.6282 21.8013C39.5799 21.4296 39.5282 21.0445 39.4999 20.6695C39.4454 20.1287 39.3467 19.5933 39.2049 19.0688L39.0783 18.528C38.615 16.4468 37.2953 14.7959 36.1822 13.8934C35.6193 13.4403 35.0038 13.0575 34.3492 12.7531C34.2285 12.6891 34.1137 12.6146 34.0059 12.5305C33.5919 12.2055 33.1162 11.969 32.6079 11.8356C32.4246 11.787 32.1396 11.4471 31.903 11.2881C31.6607 11.1081 31.3709 11.0038 31.0699 10.9884C30.6066 10.9298 29.5951 10.9298 29.3868 10.9298C29.083 10.938 28.779 10.9246 28.477 10.8896C26.699 10.6116 24.6894 11.2948 23.743 11.6447C23.4547 11.7519 22.9481 11.9495 22.5765 12.1035C22.2049 12.2575 21.895 12.3111 21.6267 12.6393C21.4701 12.8302 20.8752 13.6908 20.6952 13.8532C20.3707 14.1439 20.0198 14.4034 19.6471 14.6284C19.0639 14.9214 18.354 15.695 17.9641 16.1203C17.4908 16.636 17.2976 17.2772 17.2126 17.9704C17.1617 18.2909 17.0064 18.5854 16.771 18.8076C16.5644 19.0253 16.731 19.7653 16.651 20.0483C16.6016 20.2998 16.5771 20.5555 16.5777 20.8118C16.5377 21.0501 16.5116 21.2905 16.4994 21.5318C16.5088 21.7926 16.5021 22.0537 16.4794 22.3137C16.4294 22.5481 16.2111 22.9165 16.2711 23.1726C16.3711 23.5963 16.4011 23.2781 16.6044 23.9881C16.6577 24.1689 16.496 24.5707 16.516 24.7298C16.5232 24.8758 16.5165 25.0221 16.496 25.1668C16.476 25.361 16.6627 25.4632 16.676 25.6423C16.7547 26.5846 17.0453 27.4966 17.5258 28.3096C17.5975 28.4335 17.6008 28.6628 17.6641 28.847C17.7275 29.0312 17.9441 29.2171 18.0457 29.3996C18.3407 29.927 19.3072 31.0337 19.3072 31.0337C19.8654 31.5829 20.4853 31.8592 21.1868 32.3732L21.9 32.971C22.2466 33.2238 22.6232 33.3778 22.9881 33.6072C23.3055 33.8314 23.643 34.0254 23.9962 34.1865C24.2183 34.2664 24.4359 34.3587 24.6478 34.4628C24.8593 34.5566 25.0652 34.6628 25.2643 34.7809C25.4626 34.9233 26.5024 35.2615 26.9307 35.2983C27.2645 35.3447 27.5947 35.4146 27.9188 35.5076C28.732 35.6985 29.2802 35.5277 30.2167 35.5361C30.5038 35.5448 30.7906 35.5115 31.0682 35.4373C31.233 35.3999 31.3999 35.3731 31.5681 35.3569L31.9247 35.2581C32.283 35.2129 32.8295 35.2096 33.1111 35.1376C33.455 35.0327 33.7922 34.9069 34.1209 34.7608C34.2986 34.6921 34.4858 34.6514 34.6758 34.6403C34.9691 34.6332 35.2558 34.5514 35.509 34.4025C35.8123 34.225 36.9037 33.4883 37.1753 33.2104C37.5713 32.9104 37.9823 32.631 38.4067 32.3732C38.8067 32.1371 39.2183 31.8944 39.4815 31.5628C39.7448 31.2313 39.8698 31.0471 40.1014 30.7005L40.1131 30.6838C40.3454 30.3002 40.5206 29.8844 40.633 29.4498C40.7102 29.1655 40.814 28.8891 40.9429 28.6243C41.0328 28.4505 41.1086 28.2696 41.1695 28.0835C41.2182 27.8741 41.3244 27.6826 41.4762 27.531C41.6278 27.3987 41.7894 27.104 42.021 26.6687C42.0827 26.5515 42.141 26.441 42.1877 26.369C42.2871 26.1891 42.3542 25.993 42.386 25.7897C42.406 25.6959 42.4343 25.6222 42.451 25.5402C42.7842 23.9412 42.9892 22.7591 42.9892 22.7474C42.9809 22.6168 42.9892 22.4929 42.9892 22.3489C43.0025 21.9487 42.9242 21.5335 42.7326 20.4602C42.703 20.1376 42.6507 19.8176 42.5759 19.5025C42.4926 19.258 42.4093 19.0002 42.346 18.744C42.2127 18.1931 41.7894 17.4832 41.3862 16.9591C41.2597 16.7611 41.16 16.5472 41.0896 16.3229C41.0162 16.1471 40.7563 15.6314 40.7563 15.5292C40.7363 15.3618 40.7563 14.9767 40.5897 14.692C40.2681 14.1362 39.4315 13.6004 38.9067 12.8603C38.7816 12.7157 38.6426 12.5839 38.4917 12.4668C38.3271 12.2947 38.1834 12.1036 38.0635 11.8975C37.9039 11.6161 37.6983 11.3637 37.4553 11.1508C37.1636 10.9367 36.8418 10.7674 36.5005 10.6485C36.2896 10.5704 36.0846 10.4769 35.8872 10.3689C35.6047 10.2205 35.3097 10.0972 35.0057 10.0005C34.8241 9.93688 34.6542 9.87661 34.5058 9.81298C34.3521 9.73195 34.207 9.63546 34.0726 9.52499C33.8504 9.33507 33.5981 9.18395 33.3261 9.07794C33.0995 9.00762 32.8662 8.94064 32.6329 8.88037C32.448 8.81915 32.2746 8.72749 32.1197 8.60912C31.863 8.44169 31.7464 8.27425 31.2865 8.10681C30.9532 7.98124 30.7333 7.87575 30.385 7.88413C30.21 7.88413 29.8851 7.92264 29.6368 7.91761C29.3035 7.91761 27.4889 8.61917 26.1375 8.22235C25.7326 8.10347 24.3962 8.50196 23.5947 8.65433C23.5947 8.65433 23.463 8.68614 22.8681 8.8067C22.478 8.89381 22.1043 9.04364 21.7617 9.2504C21.1901 9.63382 21.0685 9.81968 20.5053 10.2048L20.172 10.5045C19.9119 10.7625 19.6376 11.0056 19.3505 11.2328C19.2538 11.3082 18.8622 11.6313 18.6839 11.6564C18.2407 11.7201 17.7908 12.2508 17.6941 12.4719C17.4776 12.8597 17.2255 13.2263 16.941 13.5669C16.6077 13.8833 16.4411 14.163 15.8528 14.7607C15.4079 15.2077 15.3079 15.7519 15.0813 16.3312C14.9597 16.6393 14.863 16.9558 14.7481 17.2069C14.4906 17.7981 14.2978 18.4157 14.1732 19.0487C14.1232 19.2898 14.2048 19.6163 14.1532 19.8055C14.0599 20.1571 13.9265 20.4585 13.8199 20.8001C13.5916 21.515 13.5483 22.2668 13.4866 22.955C13.4416 23.4489 13.3117 23.7536 13.3667 24.1605C13.4116 24.4954 13.4366 24.8303 13.4466 25.0764C13.624 25.3688 13.7634 25.6828 13.8616 26.0107C14.1015 26.7641 14.1715 26.6687 14.2265 26.7641C14.3106 26.8809 14.3507 27.0239 14.3398 27.1677C14.3198 28.6126 14.863 28.8571 15.0697 29.1534C15.4246 29.6641 15.7945 30.1045 16.0595 30.6051C16.1778 30.8295 16.3594 31.0455 16.4561 31.2832C16.5945 31.6632 16.7756 32.0261 16.9959 32.3648C17.1778 32.5975 17.3935 32.8013 17.6358 32.9693C17.8901 33.1512 18.1348 33.3462 18.369 33.5536C18.8539 34.1162 19.3088 34.431 19.7804 34.8362C19.992 35.017 20.8785 35.4004 20.9468 35.439C21.0652 35.5026 21.0302 35.5327 21.1451 35.598C22.0116 36.0886 22.2383 36.5072 22.8381 36.7835C23.438 37.0597 23.7846 37.2138 24.2912 37.269C24.5068 37.3155 24.7185 37.3788 24.9244 37.4582C25.9892 37.7027 26.2325 37.6859 27.064 37.5671C27.2023 37.547 27.8088 37.5671 27.9538 37.6658C28.3104 37.9254 28.7403 37.8333 29.1019 37.7847C29.6218 37.7077 29.8151 37.7144 30.0317 37.5871C30.175 37.5018 30.365 37.5336 30.8166 37.4398C31.1065 37.3795 31.4398 37.336 31.7897 37.2908C32.4829 37.2004 33.1994 37.1066 33.7893 36.8638C34.0641 36.765 34.346 36.6872 34.6325 36.6311C35.0891 36.529 35.3623 36.4804 35.7089 36.2879C35.984 36.1405 36.2455 35.9691 36.4905 35.7755C36.6171 35.6616 38.0035 34.8194 38.2085 34.7156C38.5525 34.5121 38.8703 34.2669 39.1549 33.9856C39.1549 33.9856 39.5265 33.6775 39.7315 33.5285C40.0856 33.3038 40.4112 33.0367 40.7013 32.7332C40.9296 32.4804 41.3428 32.2677 41.5828 32.0216C42.1394 31.4523 42.386 31.017 43.1492 30.1798C43.3375 29.9722 43.4341 29.8014 43.6707 29.2522C43.7774 29.0061 44.1923 28.0333 44.2489 27.8659C44.5672 26.9316 44.7838 26.8612 44.8555 26.7273C44.9801 26.5222 45.0744 26.3 45.1354 26.0676C45.3137 25.1551 45.4037 24.3079 45.512 23.3451L45.7087 22.6101C45.8303 21.3124 45.867 21.1768 45.6703 20.7683C45.5504 20.5272 45.6053 20.2492 45.5903 20.0148V19.9093C45.5903 19.8273 45.1504 17.5652 45.1204 17.5033C44.999 17.2855 44.8637 17.0758 44.7155 16.8754C44.5489 16.6477 44.5289 16.497 44.4089 16.358C44.1223 16.0232 44.114 15.3836 44.034 15.1039C43.839 14.4342 43.4358 13.4547 42.9842 12.8904C42.8326 12.7012 42.6809 12.5037 42.5343 12.3111C42.0568 11.6511 41.5178 11.0383 40.9246 10.481L40.4147 10.0206C39.4781 9.14922 38.4322 8.40452 37.3036 7.80543C37.097 7.69995 36.8787 7.53754 36.6504 7.40694C36.1855 7.14406 35.8073 6.84938 35.3274 6.67357C34.8917 6.49582 34.4396 6.36177 33.9776 6.2734C33.6593 6.22484 33.4194 6.19805 33.1661 6.13443C32.8367 6.04818 32.5129 5.94195 32.1963 5.8163C31.7581 5.63715 31.4364 5.49482 31.0482 5.3592C30.315 5.09968 30.0484 5.47473 29.3818 5.53836C28.7153 5.60198 27.9938 5.55008 27.5022 5.63714C26.9423 5.73593 27.0456 6.00718 25.9275 5.8163C25.3926 5.72421 25.0627 5.89667 24.6511 5.87658C24.2395 5.85649 24.0179 5.76774 23.603 5.77612C23.1564 5.78616 22.6165 5.73258 22.2699 5.85648L21.8933 6.01555L21.5167 6.18298C20.132 6.70036 20.5169 6.70538 20.017 6.91133C19.1389 7.27131 18.6839 7.37512 18.1357 8.07165C17.8608 8.41825 17.4409 8.65266 17.1459 8.98753C16.9793 9.17003 16.8893 9.28389 16.731 9.44462C16.483 9.67602 16.2811 9.95275 16.1361 10.26C16.0794 10.4574 15.9928 10.6449 15.8795 10.8159C15.6155 11.2264 15.2721 11.5794 14.8697 11.854C14.5364 12.0868 14.0782 12.4668 13.8399 12.646C13.19 13.1366 12.4168 15.2998 12.0186 16.4652C11.637 17.587 11.2871 18.3555 11.1688 20.0064C11.1159 20.6483 11.1159 21.2934 11.1688 21.9353C11.186 22.2843 11.1765 22.6342 11.1404 22.9818C11.0738 23.8357 11.3637 24.4401 11.537 25.073C11.7302 25.6956 11.9818 26.2983 12.2885 26.873C12.4552 27.2078 12.7135 27.5008 12.7384 27.8391C12.7501 27.9898 12.6768 28.2794 12.6918 28.4988C12.7135 28.7934 12.8584 29.0212 12.9834 29.269C13.1367 29.5921 13.165 29.505 13.405 30.1497C13.5604 30.6492 13.7847 31.1243 14.0715 31.5612C14.2382 31.8073 14.3431 32.2309 14.5064 32.5172C14.778 32.9827 15.173 33.2322 15.4313 33.8718C15.4696 33.9689 15.4896 34.2753 15.5979 34.4193C15.8202 34.6821 16.0705 34.9196 16.3444 35.1275C17.7891 36.8186 18.4957 36.9074 18.9289 37.1535C19.2883 37.3323 19.6336 37.5383 19.962 37.7697C20.1537 37.9254 20.182 37.9371 20.3136 38.0459C20.5902 38.272 21.1218 38.4595 22.1916 38.7491C22.4074 38.8043 22.6106 38.9009 22.7898 39.0338C22.9538 39.1993 23.1633 39.3119 23.3914 39.3569C23.9646 39.4524 24.3178 39.449 24.8611 39.5344C25.1627 39.583 25.7859 39.8408 26.1025 39.8592C26.4191 39.8777 26.6574 39.8224 26.984 39.876C28.8053 40.174 30.6899 39.7638 33.1794 39.4189C33.566 39.3636 35.2407 39.1929 36.1955 38.858C36.4071 38.786 36.6038 38.6604 36.8137 38.5784C37.2726 38.3797 37.7136 38.1416 38.1318 37.8668C38.4684 37.6476 38.8191 37.4513 39.1816 37.2791C41.3103 36.3374 43.1509 34.8429 44.5139 32.9492C44.7372 32.6478 44.9821 32.3615 45.2404 32.0568C45.782 31.4239 46.0536 30.6453 46.5635 29.8901C47.5733 28.333 47.7399 26.4912 47.7399 25.1752C47.7654 24.8798 47.8664 24.596 48.0332 24.3514C48.2578 23.9589 48.3638 23.5091 48.3381 23.0571C48.3098 22.3757 48.1448 21.7294 48.0349 21.0245Z" fill="#007E48"/><path d="M5 45.2791H8.76926C10.1107 45.2791 10.8072 45.9086 10.8072 47.012C10.8072 47.7002 10.4939 48.3984 9.4358 48.6244V48.6445C10.7972 48.7818 11.0422 49.7764 11.0422 50.3758C11.0422 51.1343 10.6306 52.3046 8.70094 52.3046H5V45.2791ZM5.44991 48.4603H8.5643C8.9259 48.4603 10.3556 48.4603 10.3556 47.0338C10.3556 45.6658 9.23917 45.6658 8.49598 45.6658H5.44991V48.4603ZM5.44991 51.9045H8.60263C8.95589 51.9045 10.5906 51.9045 10.5906 50.3306C10.5906 48.8538 9.2575 48.8538 8.48598 48.8538H5.44991V51.9045Z" fill="#000"/><path d="M12.1135 45.2791H12.5634V52.3113H12.1135V45.2791Z" fill="#000"/><path d="M17.1876 45.1234C20.0204 45.1234 20.8986 47.4156 20.8986 48.7919C20.8986 50.1682 20.0271 52.4621 17.1876 52.4621C14.3482 52.4621 13.4767 50.1699 13.4767 48.7919C13.4767 47.4139 14.3482 45.1234 17.1876 45.1234ZM17.1876 52.0686C19.2922 52.0686 20.4487 50.4746 20.4487 48.7919C20.4487 47.1092 19.2922 45.5152 17.1876 45.5152C15.083 45.5152 13.9266 47.1092 13.9266 48.7919C13.9266 50.4746 15.0797 52.0686 17.1876 52.0686Z" fill="#000"/><path d="M23.2531 45.2791H29.3435V45.6725H26.5241V52.3046H26.0775V45.6725H23.2531V45.2791Z" fill="#000"/><path d="M33.2429 45.1234C36.0757 45.1234 36.9538 47.4156 36.9538 48.7919C36.9538 50.1682 36.0757 52.4621 33.2429 52.4621C30.4101 52.4621 29.5303 50.1699 29.5303 48.7919C29.5303 47.4139 30.3951 45.1234 33.2429 45.1234ZM33.2429 52.0686C35.3475 52.0686 36.5022 50.4746 36.5022 48.7919C36.5022 47.1092 35.3475 45.5152 33.2429 45.5152C31.1383 45.5152 29.9819 47.1092 29.9819 48.7919C29.9819 50.4746 31.1283 52.0686 33.2429 52.0686Z" fill="#000"/><path d="M37.8604 45.2791H41.503C42.4811 45.2791 43.6275 45.624 43.6275 47.228C43.6275 48.4 42.961 49.2155 41.4346 49.2155H38.3103V52.3046H37.8604V45.2791ZM38.3103 48.822H41.4246C42.2761 48.822 43.1776 48.4871 43.1776 47.2464C43.1776 45.6725 41.9245 45.6725 41.3163 45.6725H38.3169L38.3103 48.822Z" fill="#000"/><path d="M48.8415 48.4084C49.8996 48.4084 51.251 48.4084 51.251 47.1091C51.251 45.9488 50.3295 45.6139 49.3214 45.6139C48.0183 45.6139 47.1468 46.1849 47.1468 47.5428H46.6969C46.7469 45.9003 47.765 45.2205 49.3214 45.2205C50.7895 45.2205 51.7009 45.8802 51.7009 47.0405C51.7009 48.0551 51.0644 48.4871 50.1729 48.5658V48.5926C50.8494 48.6127 51.8776 49.0145 51.8776 50.4813C51.8776 51.6332 51.0061 52.4687 49.2331 52.4687C47.5668 52.4687 46.5303 51.7119 46.512 50.0091H46.9619C46.9619 51.4558 47.8034 52.0753 49.2831 52.0753C50.2412 52.0753 51.426 51.7806 51.426 50.3825C51.426 48.8086 49.7813 48.8086 48.8415 48.8086V48.4084Z" fill="#000"/><path fill-rule="evenodd" clip-rule="evenodd" d="M54.7786 56.1021C54.7786 56.1021 55.2535 55.9883 55.5417 55.8878C55.8567 55.779 56.1116 55.856 55.9083 56.2628C55.83 56.4169 55.5451 56.4805 55.3118 56.5676C55.1419 56.6221 54.9783 56.6945 54.8236 56.7836C54.6986 56.8824 54.6903 57.1402 54.7119 57.4165C54.7302 57.6241 54.7502 57.8552 54.7852 58.0778C54.8202 58.3005 54.8452 58.5433 54.8569 58.7342C54.8769 59.0691 54.8935 59.1511 54.6503 59.1561C54.2853 59.1561 54.1804 58.9167 54.1854 58.6304C54.1854 58.4512 54.1987 58.1281 54.1987 57.8686C54.1945 57.5952 54.1739 57.3223 54.137 57.0515C53.9187 57.0933 53.4288 57.244 53.3888 56.9493C53.3322 56.5341 53.9404 56.5106 54.1004 56.3683C54.0992 56.1261 54.0797 55.8843 54.042 55.645C54.0004 55.4139 53.9837 55.1511 53.9421 54.9033C53.8918 54.6475 53.88 54.3856 53.9071 54.1264C53.9504 53.8652 54.0537 53.7044 54.3653 53.6827C54.5486 53.6693 54.7602 53.8635 54.7769 54.1582C54.7869 54.3524 54.8119 54.5567 54.8286 54.7894C54.8296 54.9754 54.8168 55.1612 54.7902 55.3453C54.7752 55.6249 54.8019 56.0402 54.7786 56.1021Z" fill="#EC6608"/><path fill-rule="evenodd" clip-rule="evenodd" d="M53.1323 58.7845C53.0489 58.669 52.8756 58.6355 52.8107 58.592L52.5057 58.3877C52.3958 58.3318 52.2909 58.2662 52.1924 58.1918C52.1003 58.1087 52.0191 58.0142 51.9508 57.9105L51.7842 57.5756L52.0541 57.2592C52.0541 57.2592 52.2541 57.0331 52.3157 56.9477C52.4057 56.8486 52.5038 56.7573 52.609 56.6748L52.8606 56.3651L53.0273 56.0302C53.0273 56.0302 53.0406 55.7087 52.9506 55.6216C52.8918 55.5876 52.8257 55.5682 52.7579 55.565C52.6901 55.5618 52.6225 55.5749 52.5607 55.6032C52.4669 55.6826 52.3825 55.7725 52.3091 55.8711C52.3091 55.8711 52.1708 56.134 52.1275 56.206C52.0841 56.278 51.8775 56.4923 51.8775 56.4923C51.8281 56.6005 51.7666 56.7028 51.6942 56.797C51.6292 56.859 51.4093 57.013 51.4093 57.013L51.1693 56.782L50.9777 56.4789L50.8427 56.1524C50.8195 56.0478 50.7877 55.9454 50.7477 55.846C50.6728 55.7412 50.5921 55.6405 50.5061 55.5446C50.3987 55.5093 50.2852 55.4974 50.1728 55.5095C50.1162 55.5211 50.0628 55.5454 50.0167 55.5805C49.9706 55.6155 49.9328 55.6605 49.9062 55.7121C49.9141 55.8314 49.9434 55.9482 49.9929 56.057L50.1595 56.3734L50.3578 56.6731L50.5728 56.9645L50.7877 57.2508L50.886 57.5974L50.6211 57.882C50.6211 57.882 50.4544 58.0746 50.3845 58.1616C50.3145 58.2487 50.1212 58.4965 50.1212 58.4965L49.8279 58.756L49.6479 58.9235C49.5646 58.9646 49.4782 58.9993 49.3897 59.0273C49.3213 59.0507 48.9697 59.2433 47.9383 59.0641C47.7716 59.034 47.3484 58.9419 47.1451 58.7728C47.0151 58.664 46.1753 58.2035 46.2653 57.4735C46.3969 56.4069 46.8935 56.2395 47.2118 56.1993C47.8 56.1239 47.9033 56.2947 48.0049 56.4052C48.0521 56.4631 48.0944 56.5247 48.1316 56.5894C48.3115 56.8456 48.2399 56.8456 48.2649 56.9477C48.2687 56.9698 48.268 56.9923 48.263 57.0141C48.258 57.0359 48.2487 57.0564 48.2357 57.0745C48.2226 57.0926 48.2061 57.1079 48.1871 57.1195C48.168 57.1311 48.1469 57.1387 48.1249 57.142C47.908 57.1941 47.6939 57.2573 47.4834 57.3312C47.3914 57.35 47.3055 57.3914 47.2334 57.4517C47.2016 57.5015 47.1864 57.5601 47.1901 57.6192C47.3001 57.9055 47.7417 58.0813 47.7417 58.0813C47.8949 58.1297 48.0573 58.1415 48.2158 58.1156C48.3744 58.0897 48.5247 58.0269 48.6548 57.9323C48.8614 57.7648 48.9497 57.4852 48.9964 57.1503C49.0081 57.0733 49.0781 56.9946 48.8814 56.5107C48.6848 56.0268 48.6331 55.98 48.5482 55.9264C48.5148 55.9046 48.4848 55.8828 48.4532 55.8594C48.2865 55.7422 48.1199 55.5245 47.7 55.5245C47.5786 55.514 47.4564 55.5202 47.3367 55.5429C47.2917 55.5547 47.1068 55.6149 47.0285 55.6334C46.7318 55.702 45.722 56.2361 45.4488 57.075C45.4386 57.2087 45.4386 57.3431 45.4488 57.4768C45.4691 57.8386 45.5917 58.1871 45.802 58.4814C46.0587 58.768 46.3409 59.0303 46.6452 59.265C46.7335 59.3237 46.9251 59.4224 47.595 59.6418C48.1766 59.831 48.6765 59.908 49.0731 59.836L49.2713 59.8025C49.3283 59.7915 49.384 59.7753 49.438 59.754L49.6279 59.7037L49.7796 59.6368C49.9765 59.5665 50.1565 59.4552 50.3078 59.3103C50.4214 59.206 50.5277 59.0941 50.6261 58.9754L50.7827 58.8264L50.9494 58.5384L51.1776 58.3073L51.4093 58.0947L51.7309 58.3575L51.9841 58.6723L52.2591 58.9687L52.5357 59.2584C52.5357 59.2584 52.769 59.4626 52.8973 59.4509C53.0256 59.4392 53.1756 59.2098 53.1889 59.1663C53.2083 59.1024 53.2133 59.035 53.2035 58.9689C53.1937 58.9029 53.1694 58.8399 53.1323 58.7845Z" fill="#EC6608"/><path fill-rule="evenodd" clip-rule="evenodd" d="M42.2178 59.9783C42.1511 59.9599 42.0961 59.9331 42.1161 59.8527C42.1543 59.74 42.1844 59.6248 42.2061 59.5078C42.2094 59.2708 42.1993 59.0338 42.1761 58.7979C42.1853 58.608 42.1803 58.4177 42.1611 58.2286C42.1178 57.9958 42.0611 57.7598 42.0345 57.5254C42.0014 57.0957 42.0176 56.6637 42.0828 56.2378C42.0828 56.1792 42.0828 55.9498 42.1295 55.9163C42.1761 55.8828 42.3594 55.712 42.4327 55.712C42.5744 55.712 42.8243 56.0938 42.891 56.2143C43.0326 55.9699 43.3259 55.5931 43.5992 55.4977C43.8725 55.4023 43.8575 55.4073 44.0791 55.5664C44.2207 55.6685 44.1657 55.8493 44.2091 56.0117C44.3236 56.3663 44.4089 56.7297 44.464 57.0984C44.514 57.44 44.5818 57.7787 44.6673 58.1131C44.7192 58.4414 44.7288 58.7751 44.6956 59.1059C44.6956 59.3253 44.6873 59.5346 44.529 59.6083C44.4606 59.6122 44.3921 59.6025 44.3274 59.5798C44.2124 59.5296 44.1957 59.4994 44.1741 59.3805C44.1074 59.0306 43.9941 58.7108 43.9458 58.3508C43.9186 57.9844 43.8668 57.6202 43.7908 57.2608C43.7391 57.0666 43.7342 56.7501 43.5992 56.6028C43.3759 56.6379 43.0993 57.0214 43.0176 57.3562C42.936 57.7221 42.8991 58.0966 42.9076 58.4714C42.936 58.7633 42.9326 59.0575 42.8976 59.3487C42.8577 59.5313 42.8053 59.7108 42.741 59.8862C42.7043 59.9934 42.4977 59.9816 42.3927 60.0001H42.3111L42.2178 59.9783Z" fill="#EC6608"/><path d="M53.6088 43.1962H54.3953C54.7986 43.1962 55.0618 43.3168 55.0618 43.7638C55.0618 44.1222 54.8585 44.2661 54.5386 44.3114L55.1535 45.2507H54.9419L54.327 44.3114H53.7937V45.244H53.6088V43.1962ZM53.7937 44.154H54.2287C54.6086 44.154 54.8769 44.1222 54.8769 43.7638C54.8769 43.4474 54.6736 43.3553 54.3953 43.3553H53.7937V44.154ZM54.2753 45.7714C54.5803 45.7717 54.8786 45.6811 55.1323 45.5111C55.386 45.341 55.5838 45.0992 55.7007 44.8161C55.8176 44.533 55.8482 44.2215 55.7888 43.9209C55.7294 43.6203 55.5826 43.3442 55.3669 43.1275C55.1512 42.9108 54.8764 42.7632 54.5773 42.7035C54.2781 42.6438 53.9681 42.6746 53.6864 42.7921C53.4046 42.9095 53.1639 43.1083 52.9947 43.3632C52.8255 43.6182 52.7353 43.9178 52.7356 44.2243C52.7356 44.6346 52.8978 45.0281 53.1866 45.3183C53.4753 45.6084 53.867 45.7714 54.2753 45.7714ZM54.2753 42.4913C54.6164 42.4913 54.9499 42.593 55.2335 42.7834C55.5171 42.9738 55.7382 43.2445 55.8687 43.5611C55.9992 43.8778 56.0334 44.2262 55.9668 44.5624C55.9003 44.8985 55.736 45.2073 55.4948 45.4497C55.2536 45.692 54.9463 45.8571 54.6118 45.9239C54.2772 45.9908 53.9305 45.9565 53.6153 45.8253C53.3002 45.6942 53.0308 45.4721 52.8413 45.1871C52.6518 44.9021 52.5507 44.567 52.5507 44.2243C52.5507 43.7647 52.7324 43.3239 53.0558 42.9989C53.3792 42.6739 53.8179 42.4913 54.2753 42.4913Z" fill="#000"/></g><defs><clipPath id="clip0"><path fill="#fff" d="M0 0H61V60H0z"/></clipPath></defs></svg>