<svg width="61" height="60" viewBox="0 0 61 60" fill="none" xmlns="http://www.w3.org/2000/svg"><g clip-path="url(#clip0)"><path d="M59.9994 29.9975C59.9994 24.0635 58.2397 18.2628 54.9429 13.329C51.6461 8.39509 46.9602 4.54968 41.4779 2.27902C35.9955 0.0083548 29.9629 -0.585562 24.143 0.572373C18.3231 1.73031 12.9773 4.58808 8.78164 8.7843C4.58595 12.9805 1.72884 18.3267 0.571637 24.1467C-0.585566 29.9668 0.00910931 35.9993 2.28046 41.4813C4.55181 46.9634 8.39781 51.6488 13.3321 54.945C18.2664 58.2412 24.0673 60.0001 30.0013 59.9994C33.941 59.9994 37.8421 59.2233 41.4819 57.7156C45.1217 56.2078 48.4289 53.9978 51.2145 51.2118C54.0001 48.4258 56.2097 45.1184 57.717 41.4784C59.2243 37.8385 59.9999 33.9372 59.9994 29.9975Z" fill="#1A1A18"/><path d="M23.2651 47.3792H25.5472V47.9638H23.9479V48.5635H25.351V49.1105H23.9479V49.8648H25.5773V50.4495H23.2651V47.3792Z" fill="#fff"/><path d="M38.8508 47.3792H39.56L40.3634 48.82C40.4614 49.0011 40.5671 49.1972 40.6576 49.3745L40.7519 49.5933C40.7519 49.4386 40.7292 49.2802 40.7255 49.1218C40.7217 48.9634 40.7255 48.8502 40.7255 48.7144V47.3792H41.3629V50.4495H40.6576L39.824 48.9407C39.7485 48.8049 39.6731 48.6691 39.609 48.5296C39.552 48.4271 39.5041 48.3198 39.4657 48.209C39.4657 48.5862 39.4657 48.9332 39.4657 49.3028V50.4344H38.8508V47.3792Z" fill="#fff"/><path d="M43.7543 49.646C43.6285 49.7715 43.4604 49.8455 43.2829 49.8535C43.1735 49.8535 43.0565 49.8535 42.9434 49.8535H42.7095V47.9675H43.0641C43.233 47.9555 43.4025 47.9786 43.562 48.0354C43.641 48.0754 43.7105 48.132 43.7657 48.2014C43.9122 48.4079 43.9853 48.6576 43.9731 48.9105C43.983 49.1719 43.9061 49.4292 43.7543 49.6422V49.646ZM44.1089 47.6318C43.7701 47.4245 43.3724 47.3344 42.9773 47.3753H42.0117V50.4457H42.8868C43.1563 50.4625 43.4268 50.4409 43.6902 50.3815C43.9076 50.3133 44.1035 50.1899 44.2589 50.0233C44.4143 49.8567 44.5238 49.6526 44.5766 49.431C44.6285 49.2534 44.6539 49.0691 44.6521 48.8841C44.6678 48.6461 44.6256 48.4078 44.529 48.1897C44.4324 47.9716 44.2844 47.7801 44.0976 47.6318" fill="#fff"/><path d="M36.8517 49.2764L37.2062 48.0128L37.5608 49.2764H36.8517ZM37.6513 47.3904H36.7838L35.7616 50.4608H36.516L36.7083 49.8422H37.7192L37.9078 50.4608H38.6622L37.6513 47.3904Z" fill="#fff"/><path d="M34.7018 48.6579C34.5794 48.6934 34.451 48.7037 34.3246 48.688H33.8267V47.9751H34.3962C34.5135 47.9635 34.632 47.9776 34.7432 48.0166C34.798 48.0455 34.843 48.0899 34.8725 48.1442C34.9021 48.1986 34.9148 48.2605 34.9092 48.3222C34.909 48.3918 34.8895 48.4601 34.8529 48.5193C34.8163 48.5786 34.764 48.6265 34.7018 48.6579ZM35.5844 50.3741C35.5463 50.2711 35.5234 50.1631 35.5165 50.0535C35.5126 49.8341 35.4975 49.615 35.4712 49.3972C35.4555 49.2882 35.4059 49.1869 35.3294 49.1077C35.2529 49.0284 35.1534 48.9753 35.045 48.9558C35.1588 48.9311 35.2633 48.8749 35.3468 48.7937C35.3893 48.7537 35.4261 48.708 35.4561 48.6579C35.5399 48.5204 35.5842 48.3625 35.5844 48.2015C35.585 48.0159 35.521 47.8358 35.4033 47.6923C35.2672 47.5636 35.1028 47.4686 34.9233 47.4149C34.7438 47.3611 34.5543 47.3502 34.3698 47.383H33.1515V50.4533H33.8267V49.2237H34.019C34.3623 49.2237 34.5282 49.2237 34.6716 49.3406C34.8149 49.4575 34.8225 49.533 34.8413 49.7894V50.0384C34.8346 50.1689 34.8619 50.2988 34.9205 50.4156C34.9339 50.4291 34.9491 50.4405 34.9658 50.4495H35.6523C35.6245 50.4241 35.6003 50.3949 35.5806 50.3628" fill="#fff"/><path d="M31.8539 49.7328C31.8114 49.7821 31.7577 49.8205 31.6974 49.8448C31.637 49.8691 31.5717 49.8785 31.5069 49.8724H30.8468V49.118H31.307C31.4326 49.1092 31.5586 49.1092 31.6842 49.118C31.765 49.1348 31.8373 49.1796 31.8883 49.2444C31.9394 49.3093 31.9659 49.3901 31.9633 49.4726C31.9656 49.5598 31.9376 49.6451 31.8841 49.714L31.8539 49.7328ZM30.877 47.9449H31.307C31.4423 47.9329 31.5786 47.9431 31.7106 47.9751C31.7652 47.9937 31.8123 48.0295 31.8449 48.0771C31.8775 48.1247 31.8939 48.1815 31.8916 48.2391C31.8949 48.2969 31.8809 48.3543 31.8513 48.4041C31.8217 48.4538 31.778 48.4936 31.7257 48.5183C31.567 48.5596 31.4022 48.5724 31.2391 48.556H30.8619L30.877 47.9449ZM32.3443 48.903C32.2832 48.8541 32.2143 48.8159 32.1406 48.7898C32.1928 48.7716 32.2423 48.7462 32.2877 48.7144C32.3811 48.6514 32.4571 48.5658 32.5085 48.4656C32.56 48.3653 32.5852 48.2537 32.5819 48.1411C32.5854 47.9652 32.5205 47.7948 32.4008 47.6658C32.2178 47.4844 31.972 47.3804 31.7144 47.3754C31.5498 47.366 31.3848 47.366 31.2202 47.3754H30.1754V50.4457H31.5635C31.7378 50.4642 31.914 50.4394 32.0765 50.3736C32.239 50.3078 32.3828 50.2031 32.4951 50.0685C32.5947 49.9189 32.6472 49.7428 32.646 49.5631C32.6526 49.4385 32.6268 49.3144 32.5713 49.2027C32.5158 49.0911 32.4324 48.9956 32.3292 48.9256" fill="#fff"/><path d="M27.6407 48.6578C27.5184 48.694 27.3899 48.7043 27.2635 48.688H26.758V47.9751H27.3276C27.4437 47.9636 27.5609 47.9778 27.6709 48.0166C27.7267 48.0445 27.7727 48.0886 27.803 48.1431C27.8333 48.1976 27.8464 48.26 27.8406 48.3221C27.8411 48.391 27.8227 48.4587 27.7875 48.5179C27.7522 48.577 27.7015 48.6255 27.6407 48.6578ZM28.5271 50.3741C28.489 50.271 28.4661 50.163 28.4592 50.0534C28.4592 49.9101 28.4592 49.5405 28.4102 49.3971C28.3956 49.2877 28.3463 49.1858 28.2696 49.1064C28.1929 49.0269 28.0928 48.9742 27.9839 48.9558C28.0989 48.9313 28.2047 48.8751 28.2894 48.7936C28.3306 48.7561 28.3662 48.713 28.3951 48.6654C28.4807 48.5287 28.5252 48.3702 28.5233 48.209C28.524 48.024 28.4615 47.8443 28.346 47.6998C28.209 47.5713 28.0439 47.4764 27.8639 47.4227C27.6838 47.3691 27.4938 47.358 27.3087 47.3905H26.0791V50.4608H26.758V49.2312H26.9466C27.2899 49.2312 27.4559 49.2312 27.5992 49.3481C27.7425 49.465 27.7538 49.5405 27.7689 49.7969V50.0459C27.7689 50.144 27.7689 50.3401 27.8519 50.4231C27.8633 50.4371 27.8774 50.4487 27.8934 50.457H28.5799C28.5519 50.4328 28.5288 50.4033 28.512 50.3703" fill="#fff"/><path d="M17.0792 48.6579C16.9472 48.8502 16.7473 48.8314 16.5474 48.8276H16.1702V47.9714H16.5474C16.7031 47.9572 16.8599 47.9818 17.0038 48.043C17.093 48.1157 17.1518 48.2191 17.1685 48.3329C17.1853 48.4467 17.1588 48.5626 17.0943 48.6579H17.0792ZM17.6865 47.8167C17.5842 47.6833 17.4522 47.5756 17.3009 47.5022C17.1496 47.4289 16.9833 47.3919 16.8152 47.3943H15.4648V50.4646H16.1476V49.4122H16.5587C16.7935 49.4361 17.0307 49.413 17.2565 49.3444C17.4369 49.2652 17.5895 49.1338 17.6944 48.967C17.7993 48.8002 17.8517 48.6058 17.8449 48.4089C17.8468 48.1999 17.7864 47.9951 17.6714 47.8205" fill="#fff"/><path d="M18.6333 49.2764L19.0105 48.0128L19.3613 49.2764H18.6333ZM19.4329 47.3904H18.5692L17.5432 50.4608H18.2976L18.4862 49.8422H19.5235L19.7083 50.4608H20.4627L19.4329 47.3904Z" fill="#fff"/><path d="M22.2543 48.6578C22.1185 48.8502 21.9186 48.8313 21.7187 48.8276H21.3415V47.9713H21.7187C21.8744 47.9575 22.0311 47.9821 22.1751 48.043C22.2311 48.0881 22.2757 48.1457 22.3051 48.2113C22.3346 48.2768 22.3482 48.3484 22.3448 48.4202C22.3389 48.5066 22.3073 48.5893 22.2543 48.6578ZM22.8465 47.8167C22.7436 47.683 22.611 47.5751 22.459 47.5018C22.3071 47.4284 22.1401 47.3916 21.9714 47.3942H20.6512V50.4646H21.334V49.4122H21.7338C21.9673 49.4365 22.2034 49.4134 22.4278 49.3443C22.6103 49.2633 22.7636 49.1285 22.8674 48.958C22.9712 48.7874 23.0205 48.5893 23.0087 48.39C23.0106 48.181 22.9502 47.9762 22.8352 47.8016" fill="#fff"/><path d="M48.4278 43.3884H47.5112V45.8741H46.8285V43.3884H45.8817V42.8038H48.4278V43.3884Z" fill="#fff"/><path d="M21.9489 42.8038H21.2511V45.8741H21.9489V42.8038Z" fill="#fff"/><path d="M19.8177 45.8741H17.5055V42.8038H19.7875V43.3846H18.1882V43.9844H19.5914V44.5351H18.1882V45.2857H19.8177V45.8741Z" fill="#fff"/><path d="M11.5986 42.8038H14.1485V43.3884H13.2319V45.8741H12.5492V43.3884H11.5986V42.8038Z" fill="#fff"/><path d="M14.3408 42.8038H15.0235V43.9542H16.1589V42.8038H16.8454V45.8741H16.1589V44.5502H15.0235V45.8741H14.3408V42.8038Z" fill="#fff"/><path d="M23.2276 43.6449C23.2276 44.0221 23.2276 44.3729 23.2276 44.7425V45.8741H22.6316V42.8038H23.3407L24.1404 44.2409C24.2422 44.4257 24.3478 44.6181 24.4383 44.7991L24.5326 45.0179C24.5326 44.8595 24.51 44.7048 24.5062 44.5426C24.5025 44.3804 24.5062 44.2711 24.5062 44.139V42.8038H25.1437V45.8741H24.4195L23.5821 44.3654C23.5105 44.2296 23.435 44.0975 23.3709 43.958C23.3108 43.8557 23.2627 43.7469 23.2276 43.6336" fill="#fff"/><path d="M26.9466 43.3884V45.8741H26.2639V43.3884H25.3134V42.8038H27.8632V43.3884H26.9466Z" fill="#fff"/><path d="M28.0443 45.8741V42.8038H30.3301V43.3846H28.727V43.9844H30.134V44.5351H28.727V45.2857H30.3603V45.8741H28.0443Z" fill="#fff"/><path d="M30.8544 45.8741V42.8038H31.5446V45.2895H33.0534V45.8741H30.8544Z" fill="#fff"/><path d="M33.2986 45.8741V42.8038H33.9888V45.2895H35.4938V45.8741H33.2986Z" fill="#fff"/><path d="M36.4405 42.8038H35.7465V45.8741H36.4405V42.8038Z" fill="#fff"/><path d="M39.1412 44.7388H38.3869V44.1768H39.7146V45.8742H39.2997C39.2581 45.7247 39.229 45.5721 39.2129 45.4178C39.1869 45.5202 39.1303 45.6123 39.0507 45.6818C38.8318 45.8644 38.5505 45.955 38.2662 45.9345C38.1758 45.9423 38.0849 45.9423 37.9946 45.9345C37.7156 45.9002 37.4584 45.7663 37.2704 45.5573C37.0055 45.2417 36.8706 44.8372 36.8932 44.4257C36.8926 44.1922 36.9308 43.9602 37.0063 43.7393C37.1048 43.4524 37.2929 43.2048 37.5428 43.0329C37.7928 42.8611 38.0913 42.7742 38.3944 42.785C38.5611 42.7841 38.7268 42.8108 38.8848 42.8642C39.0904 42.9322 39.2746 43.053 39.4189 43.2145C39.5632 43.376 39.6625 43.5726 39.707 43.7845L39.0432 43.8185C39.0071 43.6796 38.9227 43.5582 38.8052 43.476C38.6877 43.3937 38.5447 43.356 38.4019 43.3696C38.2448 43.3681 38.0904 43.4113 37.9569 43.4941C37.8213 43.5971 37.7151 43.7338 37.6489 43.8907C37.5827 44.0476 37.5588 44.219 37.5797 44.388C37.5643 44.6438 37.6317 44.8978 37.772 45.1122C37.846 45.2124 37.9436 45.2928 38.0561 45.3461C38.1687 45.3994 38.2927 45.424 38.417 45.4178C38.5063 45.4169 38.5951 45.4042 38.6811 45.38C38.7859 45.3394 38.8806 45.2766 38.9587 45.1959C39.0369 45.1151 39.0966 45.0184 39.1337 44.9123C39.1337 44.8821 39.1337 44.8482 39.1601 44.7878" fill="#fff"/><path d="M41.0498 44.5351V45.2857H42.6793V45.8741H40.3671V42.8038H42.6491V43.3846H41.0498V43.9844H42.4529V44.5351H41.0498Z" fill="#fff"/><path d="M44.984 45.8741L44.1466 44.3654C44.075 44.2296 44.0033 44.0976 43.9354 43.958C43.8784 43.8542 43.8305 43.7456 43.7921 43.6336C43.7921 44.0108 43.8109 44.3616 43.8109 44.7312V45.8628H43.181V42.7925H43.8901L44.6898 44.2296C44.7879 44.4144 44.8935 44.6068 44.984 44.7878C45.018 44.8633 45.0481 44.9349 45.0821 45.0066C45.0821 44.8482 45.0594 44.6935 45.0557 44.5313C45.0519 44.3691 45.0557 44.2598 45.0557 44.1277V42.7925H45.6894V45.8628L44.984 45.8741Z" fill="#fff"/><path d="M39.8692 30.2885L38.0964 28.3573L32.216 29.1117L36.2407 32.9402C35.5689 33.1485 34.8694 33.2541 34.1661 33.2532C32.8215 33.2346 31.5124 32.8189 30.4033 32.0584C29.2943 31.2978 28.4349 30.2263 27.9332 28.9787C27.4315 27.731 27.3098 26.3629 27.5835 25.0463C27.8572 23.7297 28.514 22.5234 29.4714 21.579C30.4288 20.6347 31.644 19.9945 32.9643 19.7389C34.2845 19.4833 35.6508 19.6238 36.8915 20.1426C38.1321 20.6614 39.1917 21.5354 39.9369 22.6548C40.6822 23.7741 41.0799 25.0888 41.08 26.4336C41.0814 27.8123 40.6587 29.1581 39.8692 30.2885ZM44.2673 34.9506C46.3797 32.6163 47.5516 29.5818 47.5564 26.4336C47.5564 19.2669 41.5591 13.4544 34.1661 13.4544C26.7731 13.4544 20.7795 19.2669 20.7795 26.4336C20.7795 33.6003 26.7807 39.4128 34.1661 39.4128C36.4797 39.4178 38.7566 38.8336 40.7821 37.7154L42.7208 40.054L48.4127 39.1148L44.2673 34.9506Z" fill="#fff"/><path d="M17.9167 14.2541H11.5836V38.5566H17.9167V14.2541Z" fill="#fff"/></g><defs><clipPath id="clip0"><path fill="#fff" d="M0 0H61V60H0z"/></clipPath></defs></svg>